<svg xmlns="http://www.w3.org/2000/svg" width="270" height="90"><defs><marker orient="auto" id="a" overflow="visible"><path d="M-5.231-2.42l6.556 2.411-6.556 2.411c1.047-1.423 1.041-3.37 0-4.821z" fill-rule="evenodd"/></marker><marker orient="auto" overflow="visible"><path d="M-10.69-4.437l12.018 4.419-12.018 4.419c1.92-2.609 1.909-6.179 0-8.839z" fill-rule="evenodd"/></marker><marker orient="auto" overflow="visible"><path d="M-10 0l-4 4 14-4-14-4 4 4z" fill-rule="evenodd" stroke="#000" stroke-width="NaN"/></marker><pattern height="100" width="100" patternUnits="userSpaceOnUse"><image height="100" width="100"/></pattern><marker orient="auto" overflow="visible"><path d="M-5.231-2.42l6.556 2.411-6.556 2.411c1.047-1.423 1.041-3.37 0-4.821z" fill-rule="evenodd"/></marker><marker orient="auto" overflow="visible"><path d="M-5.231-2.42l6.556 2.411-6.556 2.411c1.047-1.423 1.041-3.37 0-4.821z" fill-rule="evenodd"/></marker><marker orient="auto" overflow="visible"><path d="M-5.231-2.42l6.556 2.411-6.556 2.411c1.047-1.423 1.041-3.37 0-4.821z" fill-rule="evenodd"/></marker></defs><path d="M45.816 24.553v8.505l-9.518 3.848v-8.505l9.518-3.848z" fill="#002ec4"/><path d="M12.756 29.477v-7.911l23.592 6.886v8.505l-23.592-7.48zm33.06-4.823l-23.441-7.139-9.569 4.05 23.491 6.987 9.518-3.898z" fill="#2da6ff"/><path d="M38.12 25.16v1.721c-.911.81-4.05.759-4.809-.101v-1.772l4.809.152z" fill="#002ec4"/><path d="M38.12 25.034c0-.321-1.077-.582-2.405-.582-1.328 0-2.404.261-2.404.582 0 .322 1.077.582 2.404.582 1.328 0 2.405-.26 2.405-.582z" fill="#2da6ff"/><path d="M32.121 23.413v1.721c-.911.81-4.05.76-4.809-.101v-1.772l4.809.152z" fill="#002ec4"/><path d="M32.121 23.287c0-.321-1.077-.582-2.404-.582-1.328 0-2.405.261-2.405.582 0 .322 1.077.582 2.405.582 1.328 0 2.404-.261 2.404-.582z" fill="#2da6ff"/><path d="M26.274 21.667v1.722c-.911.81-4.05.759-4.809-.101v-1.772l4.809.152z" fill="#002ec4"/><path d="M26.274 21.541c0-.322-1.077-.582-2.404-.582-1.328 0-2.405.26-2.405.582 0 .321 1.077.582 2.405.582 1.328 0 2.404-.261 2.404-.582z" fill="#2da6ff"/><path d="M20.629 19.971v1.721c-.911.81-4.05.759-4.809-.101v-1.772l4.809.152z" fill="#002ec4"/><path d="M20.629 19.845c0-.322-1.077-.582-2.404-.582-1.328 0-2.405.26-2.405.582 0 .322 1.077.582 2.405.582 1.328 0 2.404-.26 2.404-.582z" fill="#2da6ff"/><path d="M25.312 17.921v1.721c-.911.81-4.05.76-4.81-.101v-1.772l4.81.152z" fill="#002ec4"/><path d="M25.312 17.795c0-.321-1.077-.582-2.405-.582-1.328 0-2.405.261-2.405.582 0 .322 1.077.582 2.405.582 1.328 0 2.405-.26 2.405-.582z" fill="#2da6ff"/><path d="M31.209 19.617v1.721c-.911.81-4.05.759-4.809-.101v-1.772l4.809.152z" fill="#002ec4"/><path d="M31.209 19.491c0-.321-1.077-.582-2.404-.582-1.328 0-2.405.261-2.405.582 0 .322 1.077.582 2.405.582 1.328 0 2.404-.26 2.404-.582z" fill="#2da6ff"/><path d="M37.107 21.314v1.721c-.911.81-4.05.759-4.809-.101v-1.772l4.809.152z" fill="#002ec4"/><path d="M37.107 21.187c0-.322-1.077-.582-2.404-.582-1.328 0-2.405.26-2.405.582 0 .322 1.077.582 2.405.582 1.328 0 2.404-.26 2.404-.582z" fill="#2da6ff"/><path d="M43.004 23.01v1.722c-.911.81-4.05.759-4.809-.101v-1.772l4.809.152z" fill="#002ec4"/><path d="M43.004 22.884c0-.322-1.077-.582-2.404-.582-1.328 0-2.405.26-2.405.582 0 .321 1.077.582 2.405.582 1.328 0 2.404-.261 2.404-.582z" fill="#2da6ff"/><path d="M69.314 39.872v8.505l-9.518 3.848v-8.505l9.518-3.848z" fill="#002ec4"/><path d="M36.254 44.796v-7.911l23.592 6.886v8.505l-23.592-7.48zm33.06-4.823l-23.441-7.139-9.569 4.05 23.491 6.987 9.518-3.898z" fill="#2da6ff"/><path d="M61.618 40.479v1.721c-.911.81-4.05.759-4.809-.101v-1.772l4.809.152z" fill="#002ec4"/><path d="M61.618 40.353c0-.321-1.077-.582-2.405-.582-1.328 0-2.404.261-2.404.582 0 .322 1.077.582 2.404.582 1.328 0 2.405-.26 2.405-.582z" fill="#2da6ff"/><path d="M55.619 38.732v1.721c-.911.81-4.05.76-4.809-.101v-1.772l4.809.152z" fill="#002ec4"/><path d="M55.619 38.606c0-.321-1.077-.582-2.404-.582-1.328 0-2.405.261-2.405.582 0 .322 1.077.582 2.405.582 1.328 0 2.404-.261 2.404-.582z" fill="#2da6ff"/><path d="M49.772 36.986v1.722c-.911.81-4.05.759-4.809-.101v-1.772l4.809.152z" fill="#002ec4"/><path d="M49.772 36.86c0-.322-1.077-.582-2.404-.582-1.328 0-2.405.26-2.405.582 0 .321 1.077.582 2.405.582 1.328 0 2.404-.261 2.404-.582z" fill="#2da6ff"/><path d="M44.127 35.29v1.721c-.911.81-4.05.759-4.809-.101v-1.772l4.809.152z" fill="#002ec4"/><path d="M44.127 35.164c0-.322-1.077-.582-2.404-.582-1.328 0-2.405.26-2.405.582 0 .322 1.077.582 2.405.582 1.328 0 2.404-.26 2.404-.582z" fill="#2da6ff"/><path d="M48.81 33.24v1.721c-.911.81-4.05.76-4.81-.101v-1.772l4.81.152z" fill="#002ec4"/><path d="M48.81 33.114c0-.321-1.077-.582-2.405-.582-1.328 0-2.405.261-2.405.582 0 .322 1.077.582 2.405.582 1.328 0 2.405-.26 2.405-.582z" fill="#2da6ff"/><path d="M54.707 34.936v1.721c-.911.81-4.05.759-4.809-.101v-1.772l4.809.152z" fill="#002ec4"/><path d="M54.707 34.81c0-.321-1.077-.582-2.404-.582-1.328 0-2.405.261-2.405.582 0 .322 1.077.582 2.405.582 1.328 0 2.404-.26 2.404-.582z" fill="#2da6ff"/><path d="M60.605 36.633v1.721c-.911.81-4.05.759-4.809-.101v-1.772l4.809.152z" fill="#002ec4"/><path d="M60.605 36.506c0-.322-1.077-.582-2.404-.582-1.328 0-2.405.26-2.405.582 0 .322 1.077.582 2.405.582 1.328 0 2.404-.26 2.404-.582z" fill="#2da6ff"/><path d="M66.502 38.329v1.722c-.911.81-4.05.759-4.809-.101v-1.772l4.809.152z" fill="#002ec4"/><path d="M66.502 38.203c0-.322-1.077-.582-2.404-.582-1.328 0-2.405.26-2.405.582 0 .321 1.077.582 2.405.582 1.328 0 2.404-.261 2.404-.582z" fill="#2da6ff"/><path d="M92.907 55.106v8.505l-9.518 3.848v-8.505l9.518-3.848z" fill="#002ec4"/><path d="M59.847 60.03v-7.911l23.592 6.886v8.505l-23.592-7.48zm33.06-4.823l-23.441-7.139-9.569 4.05 23.491 6.987 9.518-3.898z" fill="#2da6ff"/><path d="M85.211 55.713v1.721c-.911.81-4.05.759-4.809-.101v-1.772l4.809.152z" fill="#002ec4"/><path d="M85.211 55.587c0-.321-1.077-.582-2.405-.582-1.328 0-2.404.261-2.404.582 0 .322 1.077.582 2.404.582 1.328 0 2.405-.26 2.405-.582z" fill="#2da6ff"/><path d="M79.212 53.966v1.721c-.911.81-4.05.76-4.809-.101v-1.772l4.809.152z" fill="#002ec4"/><path d="M79.212 53.84c0-.321-1.077-.582-2.404-.582-1.328 0-2.405.261-2.405.582 0 .322 1.077.582 2.405.582 1.328 0 2.404-.261 2.404-.582z" fill="#2da6ff"/><path d="M73.365 52.22v1.722c-.911.81-4.05.759-4.809-.101v-1.772l4.809.152z" fill="#002ec4"/><path d="M73.365 52.094c0-.322-1.077-.582-2.404-.582-1.328 0-2.405.26-2.405.582 0 .321 1.077.582 2.405.582 1.328 0 2.404-.261 2.404-.582z" fill="#2da6ff"/><path d="M67.72 50.524v1.721c-.911.81-4.05.759-4.809-.101v-1.772l4.809.152z" fill="#002ec4"/><path d="M67.72 50.398c0-.322-1.077-.582-2.404-.582-1.328 0-2.405.26-2.405.582 0 .322 1.077.582 2.405.582 1.328 0 2.404-.26 2.404-.582z" fill="#2da6ff"/><path d="M72.403 48.474v1.721c-.911.81-4.05.76-4.81-.101v-1.772l4.81.152z" fill="#002ec4"/><path d="M72.403 48.348c0-.321-1.077-.582-2.405-.582-1.328 0-2.405.261-2.405.582 0 .322 1.077.582 2.405.582 1.328 0 2.405-.26 2.405-.582z" fill="#2da6ff"/><path d="M78.3 50.17v1.721c-.911.81-4.05.759-4.809-.101v-1.772l4.809.152z" fill="#002ec4"/><path d="M78.3 50.044c0-.321-1.077-.582-2.404-.582-1.328 0-2.405.261-2.405.582 0 .322 1.077.582 2.405.582 1.328 0 2.404-.26 2.404-.582z" fill="#2da6ff"/><path d="M84.198 51.867v1.721c-.911.81-4.05.759-4.809-.101v-1.772l4.809.152z" fill="#002ec4"/><path d="M84.198 51.74c0-.322-1.077-.582-2.404-.582-1.328 0-2.405.26-2.405.582 0 .322 1.077.582 2.405.582 1.328 0 2.404-.26 2.404-.582z" fill="#2da6ff"/><path d="M90.095 53.563v1.722c-.911.81-4.05.759-4.809-.101v-1.772l4.809.152z" fill="#002ec4"/><path d="M90.095 53.437c0-.322-1.077-.582-2.404-.582-1.328 0-2.405.26-2.405.582 0 .321 1.077.582 2.405.582 1.328 0 2.404-.261 2.404-.582z" fill="#2da6ff"/><path d="M116.406 70.425v8.505l-9.518 3.848v-8.505l9.518-3.848z" fill="#002ec4"/><path d="M83.346 75.349v-7.911l23.592 6.886v8.505l-23.592-7.48zm33.06-4.823l-23.441-7.139-9.569 4.05 23.491 6.987 9.518-3.898z" fill="#2da6ff"/><path d="M108.71 71.032v1.721c-.911.81-4.05.759-4.809-.101v-1.772l4.809.152z" fill="#002ec4"/><path d="M108.71 70.906c0-.321-1.077-.582-2.405-.582-1.328 0-2.404.261-2.404.582 0 .322 1.077.582 2.404.582 1.328 0 2.405-.26 2.405-.582z" fill="#2da6ff"/><path d="M102.711 69.285v1.721c-.911.81-4.05.76-4.809-.101v-1.772l4.809.152z" fill="#002ec4"/><path d="M102.711 69.159c0-.321-1.077-.582-2.404-.582-1.328 0-2.405.261-2.405.582 0 .322 1.077.582 2.405.582 1.328 0 2.404-.261 2.404-.582z" fill="#2da6ff"/><path d="M96.864 67.539v1.722c-.911.81-4.05.759-4.809-.101v-1.772l4.809.152z" fill="#002ec4"/><path d="M96.864 67.413c0-.322-1.077-.582-2.404-.582-1.328 0-2.405.26-2.405.582 0 .321 1.077.582 2.405.582 1.328 0 2.404-.261 2.404-.582z" fill="#2da6ff"/><path d="M91.219 65.843v1.721c-.911.81-4.05.759-4.809-.101v-1.772l4.809.152z" fill="#002ec4"/><path d="M91.219 65.717c0-.322-1.077-.582-2.404-.582-1.328 0-2.405.26-2.405.582 0 .322 1.077.582 2.405.582 1.328 0 2.404-.26 2.404-.582z" fill="#2da6ff"/><path d="M95.902 63.793v1.721c-.911.81-4.05.76-4.81-.101v-1.772l4.81.152z" fill="#002ec4"/><path d="M95.902 63.667c0-.321-1.077-.582-2.405-.582-1.328 0-2.405.261-2.405.582 0 .322 1.077.582 2.405.582 1.328 0 2.405-.26 2.405-.582z" fill="#2da6ff"/><path d="M101.799 65.489v1.721c-.911.81-4.05.759-4.809-.101v-1.772l4.809.152z" fill="#002ec4"/><path d="M101.799 65.363c0-.321-1.077-.582-2.404-.582-1.328 0-2.405.261-2.405.582 0 .322 1.077.582 2.405.582 1.328 0 2.404-.26 2.404-.582z" fill="#2da6ff"/><path d="M107.697 67.186v1.721c-.911.81-4.05.759-4.809-.101v-1.772l4.809.152z" fill="#002ec4"/><path d="M107.697 67.059c0-.322-1.077-.582-2.404-.582-1.328 0-2.405.26-2.405.582 0 .322 1.077.582 2.405.582 1.328 0 2.404-.26 2.404-.582z" fill="#2da6ff"/><path d="M113.594 68.882v1.722c-.911.81-4.05.759-4.809-.101v-1.772l4.809.152z" fill="#002ec4"/><path d="M113.594 68.756c0-.322-1.077-.582-2.404-.582-1.328 0-2.405.26-2.405.582 0 .321 1.077.582 2.405.582 1.328 0 2.404-.261 2.404-.582z" fill="#2da6ff"/><path d="M10.416 55.376l104.572 33.413" stroke="#000" marker-end="url(#a)" fill="none"/><path d="M39.702 69.885l-2.092-.524v6.047l-.849-.212v-6.047l-2.087-.522v-.717l5.028 1.258zm1.39.338c-.148-.037-.275-.116-.379-.236-.104-.12-.157-.253-.157-.398 0-.145.052-.252.157-.322.104-.07.231-.086.379-.049.152.038.28.118.387.241.106.122.159.256.159.401 0 .138-.053.243-.159.314-.106.071-.235.087-.387.049zm.404 4.809c0 .443.184.711.551.803.148.037.281.053.399.048v.698l-.255-.019-.336-.063c-.165-.041-.32-.105-.465-.192-.145-.087-.27-.195-.377-.325-.106-.13-.19-.281-.253-.452-.062-.171-.093-.361-.093-.568v-3.618l.829.207zm9.203 3.652l-.829-.207v-2.773c0-.535-.088-.943-.265-1.227-.177-.283-.474-.477-.892-.582-.354-.089-.654-.013-.902.227-.248.24-.371.571-.371.992v2.755l-.829-.207v-2.868c0-.95-.393-1.523-1.178-1.719-.364-.091-.664-.024-.9.202s-.354.566-.354 1.022v2.755l-.829-.207v-4.83l.829.207v.764l.02.005c.367-.493.903-.651 1.607-.475.354.089.662.258.925.507.263.25.443.536.541.859.384-.571.957-.761 1.718-.57 1.139.285 1.708 1.083 1.708 2.394zm5.726-.789l-3.654-.914c.013.541.168.995.465 1.362.296.367.704.615 1.223.745.583.146 1.119.101 1.607-.136v.726c-.455.194-1.056.198-1.804.011-.731-.183-1.306-.546-1.723-1.089-.418-.543-.627-1.213-.627-2.008 0-.752.228-1.307.685-1.666.457-.359 1.023-.454 1.701-.284.677.169 1.201.505 1.572 1.006.371.502.556 1.115.556 1.842zm-.849-.868c-.003-.447-.119-.824-.346-1.129-.227-.305-.543-.509-.948-.61-.391-.098-.723-.05-.996.142-.273.193-.441.492-.505.897z" fill="#333"/><path d="M10.663 55.55l.224-44.625" stroke="#000" marker-end="url(#a)" fill="none"/><path d="M1.143 41.577v2.021l6.26 1.678v.82l-6.26-1.678v2.017l-.742-.199v-4.858zm6.259-2.888v.801l-.781-.209v.02c.599.509.898 1.102.898 1.779 0 .498-.132.853-.396 1.063-.264.211-.614.258-1.05.141-.934-.25-1.478-.946-1.631-2.087l-.21-1.555c-.85-.228-1.274.002-1.274.689 0 .602.205 1.201.615 1.796l-.82-.22c-.312-.575-.469-1.184-.469-1.825 0-1.175.622-1.596 1.865-1.263zm-2.529.123l.166 1.251c.052.385.144.69.276.914.132.224.365.381.701.471.244.065.444.032.598-.101.155-.133.232-.344.232-.634 0-.397-.139-.762-.417-1.096-.278-.333-.631-.557-1.057-.671zm2.349-1.387l-.859-.23c.322-.35.483-.787.483-1.311 0-.703-.234-1.117-.703-1.243-.133-.036-.247-.036-.339-.001-.093.035-.175.095-.247.178-.072.083-.136.187-.193.31l-.178.399c-.088.198-.177.369-.266.512-.09.144-.19.257-.303.339-.112.082-.24.133-.383.151-.143.019-.311.002-.503-.049-.234-.063-.442-.172-.623-.328-.181-.156-.332-.34-.454-.551-.122-.212-.214-.441-.276-.687-.062-.246-.093-.491-.093-.735 0-.433.075-.8.225-1.102l.811.217c-.241.303-.361.694-.361 1.173 0 .15.017.289.051.419.034.13.082.246.144.349.062.103.136.189.222.26.086.07.181.119.286.147.13.035.239.041.327.017.088-.024.166-.072.234-.145s.13-.167.186-.282l.181-.396c.085-.199.172-.374.261-.526.09-.152.19-.274.303-.368.112-.094.242-.154.388-.182.146-.027.321-.014.522.04.247.066.462.178.645.336.182.158.334.344.454.559.12.215.21.449.269.702.059.253.088.51.088.771 0 .514-.099.934-.298 1.258zm.18-8.643v1.123l-2.402 1.563v.02l2.402.644v.801l-7.402-1.984v-.801l4.692 1.258v-.02l-2.29-2.713v-1.05l2.412 2.966zm-.18-.576l-.859-.23c.322-.35.483-.787.483-1.311 0-.703-.234-1.117-.703-1.243-.133-.036-.247-.036-.339-.001-.093.035-.175.095-.247.178-.072.083-.136.187-.193.31l-.178.399c-.088.198-.177.369-.266.512-.09.144-.19.257-.303.339-.112.082-.24.133-.383.151-.143.019-.311.002-.503-.049-.234-.063-.442-.172-.623-.328-.181-.156-.332-.34-.454-.551-.122-.212-.214-.441-.276-.687-.062-.246-.093-.491-.093-.735 0-.433.075-.8.225-1.102l.811.217c-.241.303-.361.694-.361 1.173 0 .15.017.289.051.419.034.13.082.246.144.349.062.103.136.189.222.26.086.07.181.119.286.147.13.035.239.041.327.017.088-.024.166-.072.234-.145s.13-.167.186-.282l.181-.396c.085-.199.172-.374.261-.526.09-.152.19-.274.303-.368.112-.094.242-.154.388-.182.146-.027.321-.014.522.04.247.066.462.178.645.336.182.158.334.344.454.559.12.215.21.449.269.702.059.253.088.51.088.771 0 .514-.099.934-.298 1.258zm2.089-26.358h-2.021v6.26h-.82v-6.26h-2.017v-.742h4.858zm3.594 2.07c-.14-.107-.342-.161-.605-.161-.342 0-.627.161-.857.483-.229.322-.344.762-.344 1.318v2.549h-.801v-5h.801v1.03h.02c.114-.352.288-.626.522-.823.234-.197.496-.295.786-.295.208 0 .368.023.479.068zm4.448 4.19h-.801v-.781h-.02c-.348.599-.861.898-1.538.898-.498 0-.888-.132-1.169-.396-.282-.264-.422-.614-.422-1.05 0-.934.55-1.478 1.65-1.631l1.499-.21c0-.85-.343-1.274-1.03-1.274-.602 0-1.146.205-1.631.615v-.82c.492-.312 1.058-.469 1.699-.469 1.175 0 1.763.622 1.763 1.865zm-.801-2.529l-1.206.166c-.371.052-.651.144-.84.276-.189.132-.283.365-.283.701 0 .244.087.444.261.598.174.155.406.232.696.232.397 0 .725-.139.984-.417.259-.278.388-.631.388-1.057zm6.587 2.529h-.801v-.85h-.02c-.371.645-.944.967-1.719.967-.628 0-1.13-.224-1.506-.671-.376-.448-.564-1.057-.564-1.829 0-.827.208-1.489.625-1.987.417-.498.972-.747 1.665-.747.687 0 1.187.27 1.499.811h.02v-3.096h.801zm-.801-2.261v-.737c0-.404-.133-.745-.4-1.025-.267-.28-.605-.42-1.016-.42-.488 0-.872.179-1.152.537-.28.358-.42.853-.42 1.484 0 .576.134 1.031.403 1.365.269.334.629.5 1.082.5.446 0 .808-.161 1.086-.483.278-.322.417-.729.417-1.221zm2.788-4.009c-.143 0-.265-.049-.366-.146-.101-.098-.151-.221-.151-.371s.05-.274.151-.374c.101-.099.223-.149.366-.149.146 0 .271.05.374.149.103.099.154.224.154.374 0 .143-.051.265-.154.366-.103.101-.227.151-.374.151zm.391 4.873c0 .459.177.688.532.688.143 0 .272-.018.386-.054v.723l-.247.046-.325.022c-.16 0-.309-.026-.449-.078-.14-.052-.261-.132-.364-.239-.103-.107-.184-.242-.244-.403-.06-.161-.09-.349-.09-.564v-3.745h.801zm4.111 1.348c-.189.104-.438.156-.747.156-.876 0-1.313-.488-1.313-1.465v-2.959h-.859v-.684h.859v-1.221l.801-.259v1.479h1.26v.684h-1.26v2.817c0 .335.057.575.171.718.114.143.303.215.566.215.202 0 .376-.055.522-.166zm1.436-6.221c-.143 0-.265-.049-.366-.146-.101-.098-.151-.221-.151-.371s.05-.274.151-.374c.101-.099.223-.149.366-.149.146 0 .271.05.374.149.103.099.154.224.154.374 0 .143-.051.265-.154.366-.103.101-.227.151-.374.151zm.391 4.873c0 .459.177.688.532.688.143 0 .272-.018.386-.054v.723l-.247.046-.325.022c-.16 0-.309-.026-.449-.078-.14-.052-.261-.132-.364-.239-.103-.107-.184-.242-.244-.403-.06-.161-.09-.349-.09-.564v-3.745h.801zm3.881 1.514c-.739 0-1.329-.234-1.77-.701-.441-.467-.662-1.086-.662-1.858 0-.84.229-1.496.688-1.968.459-.472 1.079-.708 1.86-.708.745 0 1.327.229 1.746.688.418.459.627 1.095.627 1.909 0 .798-.225 1.436-.676 1.917-.451.48-1.056.72-1.814.72zm.059-4.561c-.514 0-.921.175-1.221.525-.299.35-.449.833-.449 1.448 0 .592.151 1.06.454 1.401.303.342.708.513 1.216.513.518 0 .916-.168 1.194-.503.278-.335.417-.812.417-1.431 0-.625-.139-1.107-.417-1.445-.278-.339-.676-.508-1.194-.508zm7.861 4.444h-.801v-2.852c0-1.061-.387-1.592-1.162-1.592-.4 0-.732.151-.994.452-.262.301-.393.681-.393 1.14v2.852h-.801v-5h.801v.83h.02c.378-.632.924-.947 1.641-.947.547 0 .965.177 1.255.53.29.353.435.863.435 1.531zm5.093 0h-.801v-.781h-.02c-.348.599-.861.898-1.538.898-.498 0-.888-.132-1.169-.396-.282-.264-.422-.614-.422-1.05 0-.934.55-1.478 1.65-1.631l1.499-.21c0-.85-.343-1.274-1.03-1.274-.602 0-1.146.205-1.631.615v-.82c.492-.312 1.058-.469 1.699-.469 1.175 0 1.763.622 1.763 1.865zm-.801-2.529l-1.206.166c-.371.052-.651.144-.84.276-.189.132-.283.365-.283.701 0 .244.087.444.261.598.174.155.406.232.696.232.397 0 .725-.139.984-.417.259-.278.388-.631.388-1.057zm3.066 1.132c0 .459.177.688.532.688.143 0 .272-.018.386-.054v.723l-.247.046-.325.022c-.16 0-.309-.026-.449-.078-.14-.052-.261-.132-.364-.239-.103-.107-.184-.242-.244-.403-.06-.161-.09-.349-.09-.564v-6.147h.801zm8.794 1.397h-.801v-.85h-.02c-.371.645-.944.967-1.719.967-.628 0-1.13-.224-1.506-.671-.376-.448-.564-1.057-.564-1.829 0-.827.208-1.489.625-1.987.417-.498.972-.747 1.665-.747.687 0 1.187.27 1.499.811h.02v-3.096h.801zm-.801-2.261v-.737c0-.404-.133-.745-.4-1.025-.267-.28-.605-.42-1.016-.42-.488 0-.872.179-1.152.537-.28.358-.42.853-.42 1.484 0 .576.134 1.031.403 1.365.269.334.629.5 1.082.5.446 0 .808-.161 1.086-.483.278-.322.417-.729.417-1.221zm6.451-.039h-3.53c.013.557.163.986.449 1.289.286.303.68.454 1.182.454.563 0 1.081-.186 1.553-.557v.752c-.439.319-1.021.479-1.743.479-.706 0-1.261-.227-1.665-.681-.404-.454-.605-1.093-.605-1.917 0-.778.221-1.412.662-1.902.441-.49.989-.735 1.643-.735s1.16.212 1.519.635c.358.423.537 1.011.537 1.763zm-.82-.679c-.003-.462-.115-.822-.334-1.079-.22-.257-.525-.386-.916-.386-.378 0-.698.135-.962.405s-.426.623-.488 1.06zm5.966-2.021l-1.992 5h-.786l-1.895-5h.879l1.27 3.633c.094.267.153.5.176.698h.02c.033-.251.085-.477.156-.679l1.328-3.652zm4.873 2.7h-3.53c.013.557.163.986.449 1.289.286.303.68.454 1.182.454.563 0 1.081-.186 1.553-.557v.752c-.439.319-1.021.479-1.743.479-.706 0-1.261-.227-1.665-.681-.404-.454-.605-1.093-.605-1.917 0-.778.221-1.412.662-1.902.441-.49.989-.735 1.643-.735s1.16.212 1.519.635c.358.423.537 1.011.537 1.763zm-.82-.679c-.003-.462-.115-.822-.334-1.079-.22-.257-.525-.386-.916-.386-.378 0-.698.135-.962.405s-.426.623-.488 1.06zm2.783 1.582c0 .459.177.688.532.688.143 0 .272-.018.386-.054v.723l-.247.046-.325.022c-.16 0-.309-.026-.449-.078-.14-.052-.261-.132-.364-.239-.103-.107-.184-.242-.244-.403-.06-.161-.09-.349-.09-.564v-6.147h.801zm3.882 1.514c-.739 0-1.329-.234-1.77-.701-.441-.467-.662-1.086-.662-1.858 0-.84.229-1.496.688-1.968.459-.472 1.079-.708 1.86-.708.745 0 1.327.229 1.746.688.418.459.627 1.095.627 1.909 0 .798-.225 1.436-.676 1.917-.451.48-1.056.72-1.814.72zm.059-4.561c-.514 0-.921.175-1.221.525-.299.35-.449.833-.449 1.448 0 .592.151 1.06.454 1.401.303.342.708.513 1.216.513.518 0 .916-.168 1.194-.503.278-.335.417-.812.417-1.431 0-.625-.139-1.107-.417-1.445-.278-.339-.676-.508-1.194-.508zm4.531 3.721h-.02v3.022h-.801v-7.3h.801v.879h.02c.394-.664.97-.996 1.729-.996.645 0 1.147.224 1.509.671.361.448.542 1.047.542 1.799 0 .837-.203 1.506-.61 2.009-.407.503-.964.754-1.67.754-.648 0-1.147-.28-1.499-.84zm-.02-2.017v.698c0 .413.134.764.403 1.052.269.288.61.432 1.023.432.485 0 .865-.186 1.14-.557.275-.371.413-.887.413-1.548 0-.557-.129-.993-.386-1.309-.257-.316-.605-.474-1.045-.474-.465 0-.84.162-1.123.486-.283.324-.425.73-.425 1.218zm12.178 2.74h-.801v-2.871c0-.553-.085-.954-.256-1.201-.171-.247-.458-.371-.862-.371-.342 0-.632.156-.872.469-.239.313-.359.687-.359 1.123v2.852h-.801v-2.969c0-.983-.379-1.475-1.138-1.475-.352 0-.641.147-.869.442-.228.295-.342.678-.342 1.15v2.852h-.801v-5h.801v.791h.02c.355-.605.872-.908 1.553-.908.342 0 .64.095.894.286.254.19.428.44.522.75.371-.69.924-1.035 1.66-1.035 1.1 0 1.65.679 1.65 2.036zm5.532-2.3h-3.53c.013.557.163.986.449 1.289.286.303.68.454 1.182.454.563 0 1.081-.186 1.553-.557v.752c-.439.319-1.021.479-1.743.479-.706 0-1.261-.227-1.665-.681-.404-.454-.605-1.093-.605-1.917 0-.778.221-1.412.662-1.902.441-.49.989-.735 1.643-.735s1.16.212 1.519.635c.358.423.537 1.011.537 1.763zm-.82-.679c-.003-.462-.115-.822-.334-1.079-.22-.257-.525-.386-.916-.386-.378 0-.698.135-.962.405s-.426.623-.488 1.06zm6.187 2.979h-.801v-2.852c0-1.061-.387-1.592-1.162-1.592-.4 0-.732.151-.994.452-.262.301-.393.681-.393 1.14v2.852h-.801v-5h.801v.83h.019c.378-.632.924-.947 1.641-.947.547 0 .965.177 1.255.53.29.353.435.863.435 1.531zm3.833-.049c-.189.104-.438.156-.747.156-.876 0-1.313-.488-1.313-1.465v-2.959h-.859v-.684h.859v-1.221l.801-.259v1.479h1.26v.684h-1.26v2.817c0 .335.057.575.171.718.114.143.303.215.566.215.202 0 .376-.055.522-.166z" fill="#333"/><path d="M195.745 51.624v6.705l-7.504 3.034v-6.706l7.504-3.033z" fill="#002ec4"/><path d="M179.061 58.442v-6.484l9.22 2.74v6.705l-9.22-2.961zm16.684-6.738l-9.295-2.739-7.389 2.993 9.18 2.82 7.504-3.073z" fill="#2da6ff"/><path d="M189.677 52.103v1.357c-.718.639-3.192.599-3.791-.08v-1.397l3.791.12z" fill="#002ec4"/><path d="M189.677 52.003c0-.253-.849-.459-1.896-.459s-1.896.206-1.896.459c0 .254.849.459 1.896.459s1.896-.205 1.896-.459z" fill="#2da6ff"/><path d="M184.948 50.726v1.357c-.718.639-3.193.599-3.791-.08v-1.397l3.791.119z" fill="#002ec4"/><path d="M184.948 50.626c0-.254-.849-.459-1.896-.459s-1.896.205-1.896.459c0 .253.849.459 1.896.459s1.896-.206 1.896-.459z" fill="#2da6ff"/><path d="M188.878 49.07v1.357c-.718.639-3.193.599-3.791-.08v-1.397l3.791.12z" fill="#002ec4"/><path d="M188.878 48.971c0-.253-.849-.459-1.896-.459s-1.896.206-1.896.459c0 .254.849.459 1.896.459s1.896-.205 1.896-.459z" fill="#2da6ff"/><path d="M193.528 50.408v1.357c-.718.639-3.193.599-3.791-.08v-1.397l3.791.12z" fill="#002ec4"/><path d="M193.528 50.308c0-.254-.849-.459-1.896-.459s-1.896.205-1.896.459.849.459 1.896.459 1.896-.205 1.896-.459z" fill="#2da6ff"/><path d="M191.305 43.672v6.705l-7.504 3.034v-6.706l7.504-3.033z" fill="#002ec4"/><path d="M174.621 50.49v-6.484l9.22 2.74v6.705l-9.22-2.961zm16.684-6.738l-9.295-2.739-7.389 2.993 9.18 2.82 7.504-3.073z" fill="#2da6ff"/><path d="M185.237 44.151v1.357c-.718.639-3.192.599-3.791-.08v-1.397l3.791.12z" fill="#002ec4"/><path d="M185.237 44.051c0-.253-.849-.459-1.896-.459s-1.896.206-1.896.459c0 .254.849.459 1.896.459s1.896-.205 1.896-.459z" fill="#2da6ff"/><path d="M180.508 42.774v1.357c-.718.639-3.193.599-3.791-.08v-1.397l3.791.119z" fill="#002ec4"/><path d="M180.508 42.674c0-.254-.849-.459-1.896-.459s-1.896.205-1.896.459c0 .253.849.459 1.896.459s1.896-.206 1.896-.459z" fill="#2da6ff"/><path d="M184.438 41.118v1.357c-.718.639-3.193.599-3.791-.08v-1.397l3.791.12z" fill="#002ec4"/><path d="M184.438 41.019c0-.253-.849-.459-1.896-.459s-1.896.206-1.896.459c0 .254.849.459 1.896.459s1.896-.205 1.896-.459z" fill="#2da6ff"/><path d="M189.088 42.456v1.357c-.718.639-3.193.599-3.791-.08v-1.397l3.791.12z" fill="#002ec4"/><path d="M189.088 42.356c0-.254-.849-.459-1.896-.459s-1.896.205-1.896.459.849.459 1.896.459 1.896-.205 1.896-.459z" fill="#2da6ff"/><path d="M187.052 35.788v6.705l-7.504 3.034v-6.706l7.504-3.033z" fill="#002ec4"/><path d="M170.368 42.606v-6.484l9.22 2.74v6.705l-9.22-2.961zm16.684-6.738l-9.295-2.739-7.389 2.993 9.18 2.82 7.504-3.073z" fill="#2da6ff"/><path d="M180.984 36.267v1.357c-.718.639-3.192.599-3.791-.08v-1.397l3.791.12z" fill="#002ec4"/><path d="M180.984 36.167c0-.253-.849-.459-1.896-.459s-1.896.206-1.896.459c0 .254.849.459 1.896.459s1.896-.205 1.896-.459z" fill="#2da6ff"/><path d="M176.255 34.89v1.357c-.718.639-3.193.599-3.791-.08v-1.397l3.791.119z" fill="#002ec4"/><path d="M176.255 34.79c0-.254-.849-.459-1.896-.459s-1.896.205-1.896.459c0 .253.849.459 1.896.459s1.896-.206 1.896-.459z" fill="#2da6ff"/><path d="M180.185 33.234v1.357c-.718.639-3.193.599-3.791-.08v-1.397l3.791.12z" fill="#002ec4"/><path d="M180.185 33.135c0-.253-.849-.459-1.896-.459s-1.896.206-1.896.459c0 .254.849.459 1.896.459s1.896-.205 1.896-.459z" fill="#2da6ff"/><path d="M184.835 34.572v1.357c-.718.639-3.193.599-3.791-.08v-1.397l3.791.12z" fill="#002ec4"/><path d="M184.835 34.472c0-.254-.849-.459-1.896-.459s-1.896.205-1.896.459.849.459 1.896.459 1.896-.205 1.896-.459z" fill="#2da6ff"/><path d="M182.612 27.835v6.705l-7.504 3.034v-6.706l7.504-3.033z" fill="#002ec4"/><path d="M165.928 34.653v-6.484l9.22 2.74v6.705l-9.22-2.961zm16.684-6.738l-9.295-2.739-7.389 2.993 9.18 2.82 7.504-3.073z" fill="#2da6ff"/><path d="M176.544 28.314v1.357c-.718.639-3.192.599-3.791-.08v-1.397l3.791.12z" fill="#002ec4"/><path d="M176.544 28.214c0-.253-.849-.459-1.896-.459s-1.896.206-1.896.459c0 .254.849.459 1.896.459s1.896-.205 1.896-.459z" fill="#2da6ff"/><path d="M171.815 26.937v1.357c-.718.639-3.193.599-3.791-.08v-1.397l3.791.119z" fill="#002ec4"/><path d="M171.815 26.837c0-.254-.849-.459-1.896-.459s-1.896.205-1.896.459c0 .253.849.459 1.896.459s1.896-.206 1.896-.459z" fill="#2da6ff"/><path d="M175.745 25.281v1.357c-.718.639-3.193.599-3.791-.08v-1.397l3.791.12z" fill="#002ec4"/><path d="M175.745 25.182c0-.253-.849-.459-1.896-.459s-1.896.206-1.896.459c0 .254.849.459 1.896.459s1.896-.205 1.896-.459z" fill="#2da6ff"/><path d="M180.395 26.619v1.357c-.718.639-3.193.599-3.791-.08v-1.397l3.791.12z" fill="#002ec4"/><path d="M180.395 26.519c0-.254-.849-.459-1.896-.459s-1.896.205-1.896.459.849.459 1.896.459 1.896-.205 1.896-.459z" fill="#2da6ff"/><path d="M214.023 57.197v6.705l-7.504 3.034v-6.706l7.504-3.033z" fill="#002ec4"/><path d="M197.339 64.015v-6.484l9.22 2.74v6.705l-9.22-2.961zm16.684-6.738l-9.295-2.739-7.389 2.993 9.18 2.82 7.504-3.073z" fill="#2da6ff"/><path d="M207.955 57.676v1.357c-.718.639-3.192.599-3.791-.08v-1.397l3.791.12z" fill="#002ec4"/><path d="M207.955 57.576c0-.253-.849-.459-1.896-.459s-1.896.206-1.896.459c0 .254.849.459 1.896.459s1.896-.205 1.896-.459z" fill="#2da6ff"/><path d="M203.226 56.299v1.357c-.718.639-3.193.599-3.791-.08v-1.397l3.791.119z" fill="#002ec4"/><path d="M203.226 56.199c0-.254-.849-.459-1.896-.459s-1.896.205-1.896.459c0 .253.849.459 1.896.459s1.896-.206 1.896-.459z" fill="#2da6ff"/><path d="M207.156 54.643v1.357c-.718.639-3.193.599-3.791-.08v-1.397l3.791.12z" fill="#002ec4"/><path d="M207.156 54.544c0-.253-.849-.459-1.896-.459s-1.896.206-1.896.459c0 .254.849.459 1.896.459s1.896-.205 1.896-.459z" fill="#2da6ff"/><path d="M211.806 55.981v1.357c-.718.639-3.193.599-3.791-.08v-1.397l3.791.12z" fill="#002ec4"/><path d="M211.806 55.881c0-.254-.849-.459-1.896-.459s-1.896.205-1.896.459.849.459 1.896.459 1.896-.205 1.896-.459z" fill="#2da6ff"/><path d="M209.583 49.245v6.705l-7.504 3.034v-6.706l7.504-3.033z" fill="#002ec4"/><path d="M192.899 56.063v-6.484l9.22 2.74v6.705l-9.22-2.961zm16.684-6.738l-9.295-2.739-7.389 2.993 9.18 2.82 7.504-3.073z" fill="#2da6ff"/><path d="M203.515 49.724v1.357c-.718.639-3.192.599-3.791-.08v-1.397l3.791.12z" fill="#002ec4"/><path d="M203.515 49.624c0-.253-.849-.459-1.896-.459s-1.896.206-1.896.459c0 .254.849.459 1.896.459s1.896-.205 1.896-.459z" fill="#2da6ff"/><path d="M198.786 48.347v1.357c-.718.639-3.193.599-3.791-.08v-1.397l3.791.119z" fill="#002ec4"/><path d="M198.786 48.247c0-.254-.849-.459-1.896-.459s-1.896.205-1.896.459c0 .253.849.459 1.896.459s1.896-.206 1.896-.459z" fill="#2da6ff"/><path d="M202.716 46.691v1.357c-.718.639-3.193.599-3.791-.08v-1.397l3.791.12z" fill="#002ec4"/><path d="M202.716 46.592c0-.253-.849-.459-1.896-.459s-1.896.206-1.896.459c0 .254.849.459 1.896.459s1.896-.205 1.896-.459z" fill="#2da6ff"/><path d="M207.366 48.029v1.357c-.718.639-3.193.599-3.791-.08v-1.397l3.791.12z" fill="#002ec4"/><path d="M207.366 47.929c0-.254-.849-.459-1.896-.459s-1.896.205-1.896.459.849.459 1.896.459 1.896-.205 1.896-.459z" fill="#2da6ff"/><path d="M205.33 41.361v6.705l-7.504 3.034v-6.706l7.504-3.033z" fill="#002ec4"/><path d="M188.646 48.179v-6.484l9.22 2.74v6.705l-9.22-2.961zm16.684-6.738l-9.295-2.739-7.389 2.993 9.18 2.82 7.504-3.073z" fill="#2da6ff"/><path d="M199.262 41.84v1.357c-.718.639-3.192.599-3.791-.08v-1.397l3.791.12z" fill="#002ec4"/><path d="M199.262 41.74c0-.253-.849-.459-1.896-.459s-1.896.206-1.896.459c0 .254.849.459 1.896.459s1.896-.205 1.896-.459z" fill="#2da6ff"/><path d="M194.533 40.463v1.357c-.718.639-3.193.599-3.791-.08v-1.397l3.791.119z" fill="#002ec4"/><path d="M194.533 40.363c0-.254-.849-.459-1.896-.459s-1.896.205-1.896.459c0 .253.849.459 1.896.459s1.896-.206 1.896-.459z" fill="#2da6ff"/><path d="M198.463 38.807v1.357c-.718.639-3.193.599-3.791-.08v-1.397l3.791.12z" fill="#002ec4"/><path d="M198.463 38.708c0-.253-.849-.459-1.896-.459s-1.896.206-1.896.459c0 .254.849.459 1.896.459s1.896-.205 1.896-.459z" fill="#2da6ff"/><path d="M203.113 40.145v1.357c-.718.639-3.193.599-3.791-.08v-1.397l3.791.12z" fill="#002ec4"/><path d="M203.113 40.045c0-.254-.849-.459-1.896-.459s-1.896.205-1.896.459.849.459 1.896.459 1.896-.205 1.896-.459z" fill="#2da6ff"/><path d="M200.89 33.408v6.705l-7.504 3.034v-6.706l7.504-3.033z" fill="#002ec4"/><path d="M184.206 40.226v-6.484l9.22 2.74v6.705l-9.22-2.961zm16.684-6.738l-9.295-2.739-7.389 2.993 9.18 2.82 7.504-3.073z" fill="#2da6ff"/><path d="M194.822 33.887v1.357c-.718.639-3.192.599-3.791-.08v-1.397l3.791.12z" fill="#002ec4"/><path d="M194.822 33.787c0-.253-.849-.459-1.896-.459s-1.896.206-1.896.459c0 .254.849.459 1.896.459s1.896-.205 1.896-.459z" fill="#2da6ff"/><path d="M190.093 32.51v1.357c-.718.639-3.193.599-3.791-.08v-1.397l3.791.119z" fill="#002ec4"/><path d="M190.093 32.41c0-.254-.849-.459-1.896-.459s-1.896.205-1.896.459c0 .253.849.459 1.896.459s1.896-.206 1.896-.459z" fill="#2da6ff"/><path d="M194.023 30.854v1.357c-.718.639-3.193.599-3.791-.08v-1.397l3.791.12z" fill="#002ec4"/><path d="M194.023 30.755c0-.253-.849-.459-1.896-.459s-1.896.206-1.896.459c0 .254.849.459 1.896.459s1.896-.205 1.896-.459z" fill="#2da6ff"/><path d="M198.673 32.192v1.357c-.718.639-3.193.599-3.791-.08v-1.397l3.791.12z" fill="#002ec4"/><path d="M198.673 32.092c0-.254-.849-.459-1.896-.459s-1.896.205-1.896.459.849.459 1.896.459 1.896-.205 1.896-.459z" fill="#2da6ff"/><path d="M232.456 62.694v6.705l-7.504 3.034v-6.706l7.504-3.033z" fill="#002ec4"/><path d="M215.772 69.512v-6.484l9.22 2.74v6.705l-9.22-2.961zm16.684-6.738l-9.295-2.739-7.389 2.993 9.18 2.82 7.504-3.073z" fill="#2da6ff"/><path d="M226.388 63.173v1.357c-.718.639-3.192.599-3.791-.08v-1.397l3.791.12z" fill="#002ec4"/><path d="M226.388 63.073c0-.253-.849-.459-1.896-.459s-1.896.206-1.896.459c0 .254.849.459 1.896.459s1.896-.205 1.896-.459z" fill="#2da6ff"/><path d="M221.659 61.796v1.357c-.718.639-3.193.599-3.791-.08v-1.397l3.791.119z" fill="#002ec4"/><path d="M221.659 61.696c0-.254-.849-.459-1.896-.459s-1.896.205-1.896.459c0 .253.849.459 1.896.459s1.896-.206 1.896-.459z" fill="#2da6ff"/><path d="M225.589 60.14v1.357c-.718.639-3.193.599-3.791-.08v-1.397l3.791.12z" fill="#002ec4"/><path d="M225.589 60.041c0-.253-.849-.459-1.896-.459s-1.896.206-1.896.459c0 .254.849.459 1.896.459s1.896-.205 1.896-.459z" fill="#2da6ff"/><path d="M230.239 61.478v1.357c-.718.639-3.193.599-3.791-.08v-1.397l3.791.12z" fill="#002ec4"/><path d="M230.239 61.378c0-.254-.849-.459-1.896-.459s-1.896.205-1.896.459.849.459 1.896.459 1.896-.205 1.896-.459z" fill="#2da6ff"/><path d="M228.016 54.742v6.705l-7.504 3.034v-6.706l7.504-3.033z" fill="#002ec4"/><path d="M211.332 61.56v-6.484l9.22 2.74v6.705l-9.22-2.961zm16.684-6.738l-9.295-2.739-7.389 2.993 9.18 2.82 7.504-3.073z" fill="#2da6ff"/><path d="M221.948 55.221v1.357c-.718.639-3.192.599-3.791-.08v-1.397l3.791.12z" fill="#002ec4"/><path d="M221.948 55.121c0-.253-.849-.459-1.896-.459s-1.896.206-1.896.459c0 .254.849.459 1.896.459s1.896-.205 1.896-.459z" fill="#2da6ff"/><path d="M217.219 53.844v1.357c-.718.639-3.193.599-3.791-.08v-1.397l3.791.119z" fill="#002ec4"/><path d="M217.219 53.744c0-.254-.849-.459-1.896-.459s-1.896.205-1.896.459c0 .253.849.459 1.896.459s1.896-.206 1.896-.459z" fill="#2da6ff"/><path d="M221.149 52.188v1.357c-.718.639-3.193.599-3.791-.08v-1.397l3.791.12z" fill="#002ec4"/><path d="M221.149 52.089c0-.253-.849-.459-1.896-.459s-1.896.206-1.896.459c0 .254.849.459 1.896.459s1.896-.205 1.896-.459z" fill="#2da6ff"/><path d="M225.799 53.526v1.357c-.718.639-3.193.599-3.791-.08v-1.397l3.791.12z" fill="#002ec4"/><path d="M225.799 53.426c0-.254-.849-.459-1.896-.459s-1.896.205-1.896.459.849.459 1.896.459 1.896-.205 1.896-.459z" fill="#2da6ff"/><path d="M223.763 46.858v6.705l-7.504 3.034v-6.706l7.504-3.033z" fill="#002ec4"/><path d="M207.079 53.676v-6.484l9.22 2.74v6.705l-9.22-2.961zm16.684-6.738l-9.295-2.739-7.389 2.993 9.18 2.82 7.504-3.073z" fill="#2da6ff"/><path d="M217.695 47.337v1.357c-.718.639-3.192.599-3.791-.08v-1.397l3.791.12z" fill="#002ec4"/><path d="M217.695 47.237c0-.253-.849-.459-1.896-.459s-1.896.206-1.896.459c0 .254.849.459 1.896.459s1.896-.205 1.896-.459z" fill="#2da6ff"/><path d="M212.966 45.96v1.357c-.718.639-3.193.599-3.791-.08v-1.397l3.791.119z" fill="#002ec4"/><path d="M212.966 45.86c0-.254-.849-.459-1.896-.459s-1.896.205-1.896.459c0 .253.849.459 1.896.459s1.896-.206 1.896-.459z" fill="#2da6ff"/><path d="M216.896 44.304v1.357c-.718.639-3.193.599-3.791-.08v-1.397l3.791.12z" fill="#002ec4"/><path d="M216.896 44.205c0-.253-.849-.459-1.896-.459s-1.896.206-1.896.459c0 .254.849.459 1.896.459s1.896-.205 1.896-.459z" fill="#2da6ff"/><path d="M221.546 45.642v1.357c-.718.639-3.193.599-3.791-.08v-1.397l3.791.12z" fill="#002ec4"/><path d="M221.546 45.542c0-.254-.849-.459-1.896-.459s-1.896.205-1.896.459.849.459 1.896.459 1.896-.205 1.896-.459z" fill="#2da6ff"/><path d="M219.323 38.905v6.705l-7.504 3.034v-6.706l7.504-3.033z" fill="#002ec4"/><path d="M202.639 45.723v-6.484l9.22 2.74v6.705l-9.22-2.961zm16.684-6.738l-9.295-2.739-7.389 2.993 9.18 2.82 7.504-3.073z" fill="#2da6ff"/><path d="M213.255 39.384v1.357c-.718.639-3.192.599-3.791-.08v-1.397l3.791.12z" fill="#002ec4"/><path d="M213.255 39.284c0-.253-.849-.459-1.896-.459s-1.896.206-1.896.459c0 .254.849.459 1.896.459s1.896-.205 1.896-.459z" fill="#2da6ff"/><path d="M208.526 38.007v1.357c-.718.639-3.193.599-3.791-.08v-1.397l3.791.119z" fill="#002ec4"/><path d="M208.526 37.907c0-.254-.849-.459-1.896-.459s-1.896.205-1.896.459c0 .253.849.459 1.896.459s1.896-.206 1.896-.459z" fill="#2da6ff"/><path d="M212.456 36.351v1.357c-.718.639-3.193.599-3.791-.08v-1.397l3.791.12z" fill="#002ec4"/><path d="M212.456 36.252c0-.253-.849-.459-1.896-.459s-1.896.206-1.896.459c0 .254.849.459 1.896.459s1.896-.205 1.896-.459z" fill="#2da6ff"/><path d="M217.106 37.689v1.357c-.718.639-3.193.599-3.791-.08v-1.397l3.791.12z" fill="#002ec4"/><path d="M217.106 37.589c0-.254-.849-.459-1.896-.459s-1.896.205-1.896.459.849.459 1.896.459 1.896-.205 1.896-.459z" fill="#2da6ff"/><path d="M250.889 67.869v6.705l-7.504 3.034v-6.706l7.504-3.033z" fill="#002ec4"/><path d="M234.205 74.687v-6.484l9.22 2.74v6.705l-9.22-2.961zm16.684-6.738l-9.295-2.739-7.389 2.993 9.18 2.82 7.504-3.073z" fill="#2da6ff"/><path d="M244.821 68.348v1.357c-.718.639-3.192.599-3.791-.08v-1.397l3.791.12z" fill="#002ec4"/><path d="M244.821 68.248c0-.253-.849-.459-1.896-.459s-1.896.206-1.896.459c0 .254.849.459 1.896.459s1.896-.205 1.896-.459z" fill="#2da6ff"/><path d="M240.092 66.971v1.357c-.718.639-3.193.599-3.791-.08v-1.397l3.791.119z" fill="#002ec4"/><path d="M240.092 66.871c0-.254-.849-.459-1.896-.459s-1.896.205-1.896.459c0 .253.849.459 1.896.459s1.896-.206 1.896-.459z" fill="#2da6ff"/><path d="M244.022 65.315v1.357c-.718.639-3.193.599-3.791-.08v-1.397l3.791.12z" fill="#002ec4"/><path d="M244.022 65.216c0-.253-.849-.459-1.896-.459s-1.896.206-1.896.459c0 .254.849.459 1.896.459s1.896-.205 1.896-.459z" fill="#2da6ff"/><path d="M248.672 66.653v1.357c-.718.639-3.193.599-3.791-.08v-1.397l3.791.12z" fill="#002ec4"/><path d="M248.672 66.553c0-.254-.849-.459-1.896-.459s-1.896.205-1.896.459.849.459 1.896.459 1.896-.205 1.896-.459z" fill="#2da6ff"/><path d="M246.449 59.917v6.705l-7.504 3.034v-6.706l7.504-3.033z" fill="#002ec4"/><path d="M229.765 66.735v-6.484l9.22 2.74v6.705l-9.22-2.961zm16.684-6.738l-9.295-2.739-7.389 2.993 9.18 2.82 7.504-3.073z" fill="#2da6ff"/><path d="M240.381 60.396v1.357c-.718.639-3.192.599-3.791-.08v-1.397l3.791.12z" fill="#002ec4"/><path d="M240.381 60.296c0-.253-.849-.459-1.896-.459s-1.896.206-1.896.459c0 .254.849.459 1.896.459s1.896-.205 1.896-.459z" fill="#2da6ff"/><path d="M235.652 59.019v1.357c-.718.639-3.193.599-3.791-.08v-1.397l3.791.119z" fill="#002ec4"/><path d="M235.652 58.919c0-.254-.849-.459-1.896-.459s-1.896.205-1.896.459c0 .253.849.459 1.896.459s1.896-.206 1.896-.459z" fill="#2da6ff"/><path d="M239.582 57.363v1.357c-.718.639-3.193.599-3.791-.08v-1.397l3.791.12z" fill="#002ec4"/><path d="M239.582 57.264c0-.253-.849-.459-1.896-.459s-1.896.206-1.896.459c0 .254.849.459 1.896.459s1.896-.205 1.896-.459z" fill="#2da6ff"/><path d="M244.232 58.701v1.357c-.718.639-3.193.599-3.791-.08v-1.397l3.791.12z" fill="#002ec4"/><path d="M244.232 58.601c0-.254-.849-.459-1.896-.459s-1.896.205-1.896.459.849.459 1.896.459 1.896-.205 1.896-.459z" fill="#2da6ff"/><path d="M242.196 52.033v6.705l-7.504 3.034v-6.706l7.504-3.033z" fill="#002ec4"/><path d="M225.512 58.851v-6.484l9.22 2.74v6.705l-9.22-2.961zm16.684-6.738l-9.295-2.739-7.389 2.993 9.18 2.82 7.504-3.073z" fill="#2da6ff"/><path d="M236.128 52.512v1.357c-.718.639-3.192.599-3.791-.08v-1.397l3.791.12z" fill="#002ec4"/><path d="M236.128 52.412c0-.253-.849-.459-1.896-.459s-1.896.206-1.896.459c0 .254.849.459 1.896.459s1.896-.205 1.896-.459z" fill="#2da6ff"/><path d="M231.399 51.135v1.357c-.718.639-3.193.599-3.791-.08v-1.397l3.791.119z" fill="#002ec4"/><path d="M231.399 51.035c0-.254-.849-.459-1.896-.459s-1.896.205-1.896.459c0 .253.849.459 1.896.459s1.896-.206 1.896-.459z" fill="#2da6ff"/><path d="M235.329 49.479v1.357c-.718.639-3.193.599-3.791-.08v-1.397l3.791.12z" fill="#002ec4"/><path d="M235.329 49.38c0-.253-.849-.459-1.896-.459s-1.896.206-1.896.459c0 .254.849.459 1.896.459s1.896-.205 1.896-.459z" fill="#2da6ff"/><path d="M239.979 50.817v1.357c-.718.639-3.193.599-3.791-.08v-1.397l3.791.12z" fill="#002ec4"/><path d="M239.979 50.717c0-.254-.849-.459-1.896-.459s-1.896.205-1.896.459.849.459 1.896.459 1.896-.205 1.896-.459z" fill="#2da6ff"/><path d="M237.756 44.08v6.705l-7.504 3.034v-6.706l7.504-3.033z" fill="#002ec4"/><path d="M221.072 50.898v-6.484l9.22 2.74v6.705l-9.22-2.961zm16.684-6.738l-9.295-2.739-7.389 2.993 9.18 2.82 7.504-3.073z" fill="#2da6ff"/><path d="M231.688 44.559v1.357c-.718.639-3.192.599-3.791-.08v-1.397l3.791.12z" fill="#002ec4"/><path d="M231.688 44.459c0-.253-.849-.459-1.896-.459s-1.896.206-1.896.459c0 .254.849.459 1.896.459s1.896-.205 1.896-.459z" fill="#2da6ff"/><path d="M226.959 43.182v1.357c-.718.639-3.193.599-3.791-.08v-1.397l3.791.119z" fill="#002ec4"/><path d="M226.959 43.082c0-.254-.849-.459-1.896-.459s-1.896.205-1.896.459c0 .253.849.459 1.896.459s1.896-.206 1.896-.459z" fill="#2da6ff"/><path d="M230.889 41.526v1.357c-.718.639-3.193.599-3.791-.08v-1.397l3.791.12z" fill="#002ec4"/><path d="M230.889 41.427c0-.253-.849-.459-1.896-.459s-1.896.206-1.896.459c0 .254.849.459 1.896.459s1.896-.205 1.896-.459z" fill="#2da6ff"/><path d="M235.539 42.864v1.357c-.718.639-3.193.599-3.791-.08v-1.397l3.791.12z" fill="#002ec4"/><path d="M235.539 42.764c0-.254-.849-.459-1.896-.459s-1.896.205-1.896.459.849.459 1.896.459 1.896-.205 1.896-.459z" fill="#2da6ff"/><path d="M163.562 55.562l104.572 33.413" stroke="#000" marker-end="url(#a)" fill="none"/><path d="M192.808 70.094l-2.092-.524v6.047l-.849-.212v-6.047l-2.087-.522v-.717l5.028 1.258zm1.39.339c-.148-.037-.275-.116-.379-.236-.104-.12-.157-.253-.157-.398 0-.145.052-.252.157-.322.104-.07.231-.086.379-.049.152.038.28.118.387.241.106.122.159.256.159.401 0 .138-.053.243-.159.314-.106.071-.235.087-.387.049zm.404 4.809c0 .443.184.711.551.803.148.037.281.053.399.048v.698l-.255-.019-.336-.063c-.165-.041-.32-.105-.465-.192-.145-.087-.27-.195-.377-.325-.106-.13-.19-.281-.253-.452-.062-.171-.093-.361-.093-.568v-3.618l.829.207zm9.203 3.651l-.829-.207v-2.773c0-.535-.088-.943-.265-1.227-.177-.283-.474-.477-.892-.582-.354-.089-.654-.013-.902.227-.248.24-.371.571-.371.992v2.755l-.829-.207v-2.868c0-.95-.393-1.523-1.178-1.719-.364-.091-.664-.024-.9.202s-.354.566-.354 1.022v2.755l-.829-.207v-4.83l.829.207v.764l.02.005c.367-.493.903-.651 1.607-.475.354.089.662.258.925.507.263.25.443.536.541.859.384-.571.957-.761 1.718-.57 1.139.285 1.708 1.083 1.708 2.394zm5.726-.789l-3.654-.914c.013.541.168.995.465 1.362.296.367.704.615 1.223.745.583.146 1.119.101 1.607-.136v.726c-.455.194-1.056.198-1.804.011-.731-.183-1.306-.546-1.723-1.089-.418-.543-.627-1.213-.627-2.008 0-.752.228-1.307.685-1.666.457-.359 1.023-.454 1.701-.284.677.169 1.201.505 1.572 1.006.371.502.556 1.115.556 1.842zm-.849-.868c-.003-.447-.119-.824-.346-1.129-.227-.305-.543-.509-.948-.61-.391-.098-.723-.05-.996.142-.273.193-.441.492-.505.897z" fill="#333"/><path d="M163.809 55.736l.224-44.625" stroke="#000" marker-end="url(#a)" fill="none"/><path d="M154.289 41.771v2.021l6.26 1.678v.82l-6.26-1.678v2.017l-.742-.199v-4.858zm6.259-2.888v.801l-.781-.209v.02c.599.509.898 1.102.898 1.779 0 .498-.132.853-.396 1.063-.264.211-.614.258-1.05.141-.934-.25-1.478-.946-1.631-2.087l-.21-1.555c-.85-.228-1.274.002-1.274.689 0 .602.205 1.201.615 1.796l-.82-.22c-.313-.575-.469-1.184-.469-1.825 0-1.175.622-1.596 1.865-1.263zm-2.529.123l.166 1.251c.052.385.144.69.276.914.132.224.365.381.701.471.244.065.444.032.598-.101.155-.133.232-.344.232-.634 0-.397-.139-.762-.417-1.096-.278-.333-.631-.557-1.057-.671zm2.349-1.388l-.859-.23c.322-.35.483-.787.483-1.311 0-.703-.234-1.117-.703-1.243-.133-.036-.247-.036-.339-.001-.093.035-.175.095-.247.178-.072.083-.136.187-.193.31l-.178.399c-.088.198-.177.369-.266.512-.089.144-.19.257-.303.339-.112.082-.24.133-.383.151-.143.019-.311.002-.503-.049-.234-.063-.442-.172-.623-.328-.181-.156-.332-.34-.454-.551-.122-.212-.214-.441-.276-.687-.062-.246-.093-.491-.093-.735 0-.433.075-.8.225-1.102l.811.217c-.241.303-.361.694-.361 1.173 0 .15.017.289.051.419.034.13.082.246.144.349.062.103.136.189.222.26.086.07.181.119.286.147.13.035.239.041.327.017.088-.024.166-.072.234-.145s.13-.167.186-.282l.181-.396c.085-.199.172-.374.261-.526.089-.152.19-.274.303-.368.112-.094.242-.154.388-.182.146-.027.321-.014.522.04.247.066.462.178.645.336.182.158.334.344.454.559.12.215.21.449.269.702.059.253.088.51.088.771 0 .514-.099.934-.298 1.258zm.18-8.643v1.123l-2.402 1.563v.02l2.402.644v.801l-7.402-1.984v-.801l4.692 1.258v-.02l-2.29-2.713v-1.05l2.412 2.966zm-.18-.575l-.859-.23c.322-.35.483-.787.483-1.311 0-.703-.234-1.117-.703-1.243-.133-.036-.247-.036-.339-.001-.093.035-.175.095-.247.178-.072.083-.136.187-.193.31l-.178.399c-.088.198-.177.369-.266.512-.089.144-.19.257-.303.339-.112.082-.24.133-.383.151-.143.019-.311.002-.503-.049-.234-.063-.442-.172-.623-.328-.181-.156-.332-.34-.454-.551-.122-.212-.214-.441-.276-.687-.062-.246-.093-.491-.093-.735 0-.433.075-.8.225-1.102l.811.217c-.241.303-.361.694-.361 1.173 0 .15.017.289.051.419.034.13.082.246.144.349.062.103.136.189.222.26.086.07.181.119.286.147.13.035.239.041.327.017.088-.024.166-.072.234-.145s.13-.167.186-.282l.181-.396c.085-.199.172-.374.261-.526.089-.152.19-.274.303-.368.112-.094.242-.154.388-.182.146-.027.321-.014.522.04.247.066.462.178.645.336.182.158.334.344.454.559.12.215.21.449.269.702.059.253.088.51.088.771 0 .514-.099.934-.298 1.258zm5.824-20.158v-7.002h1.934c2.467 0 3.701 1.138 3.701 3.413 0 1.081-.343 1.949-1.028 2.605-.685.656-1.602.984-2.751.984zm.82-6.26v5.518h1.045c.918 0 1.632-.246 2.144-.737.511-.492.767-1.188.767-2.09 0-1.794-.954-2.69-2.861-2.69zm10.103 3.96h-3.53c.013.557.163.986.449 1.289.286.303.68.454 1.182.454.563 0 1.081-.186 1.553-.557v.752c-.439.319-1.021.479-1.743.479-.706 0-1.261-.227-1.665-.681-.404-.454-.605-1.093-.605-1.917 0-.778.221-1.412.662-1.902.441-.49.989-.735 1.643-.735s1.16.212 1.519.635c.358.423.537 1.011.537 1.763zm-.82-.679c-.003-.462-.115-.822-.334-1.079-.22-.257-.525-.386-.916-.386-.378 0-.698.135-.962.405s-.426.623-.488 1.06zm5.966-2.021l-1.992 5h-.786l-1.895-5h.879l1.27 3.633c.094.267.153.5.176.698h.019c.033-.251.085-.477.156-.679l1.328-3.652zm4.874 2.7h-3.53c.013.557.163.986.449 1.289.286.303.68.454 1.182.454.563 0 1.081-.186 1.553-.557v.752c-.439.319-1.021.479-1.743.479-.706 0-1.261-.227-1.665-.681-.404-.454-.605-1.093-.605-1.917 0-.778.221-1.412.662-1.902.441-.49.989-.735 1.643-.735s1.16.212 1.519.635c.358.423.537 1.011.537 1.763zm-.82-.679c-.003-.462-.115-.822-.334-1.079-.22-.257-.525-.386-.916-.386-.378 0-.698.135-.962.405s-.426.623-.488 1.06zm2.782 1.582c0 .459.177.688.532.688.143 0 .272-.018.386-.054v.723l-.247.046-.325.022c-.16 0-.309-.026-.449-.078-.14-.052-.261-.132-.364-.239-.103-.107-.184-.242-.244-.403-.06-.161-.09-.349-.09-.564v-6.147h.801zm3.882 1.514c-.739 0-1.329-.234-1.77-.701-.441-.467-.662-1.086-.662-1.858 0-.84.229-1.496.688-1.968.459-.472 1.079-.708 1.86-.708.745 0 1.327.229 1.746.688.418.459.627 1.095.627 1.909 0 .798-.225 1.436-.676 1.917-.451.48-1.056.72-1.814.72zm.059-4.561c-.514 0-.921.175-1.221.525-.299.35-.449.833-.449 1.448 0 .592.151 1.06.454 1.401.303.342.708.513 1.216.513.518 0 .916-.168 1.194-.503.278-.335.417-.812.417-1.431 0-.625-.139-1.107-.417-1.445-.278-.339-.676-.508-1.194-.508zm4.531 3.721h-.019v3.022h-.801v-7.3h.801v.879h.019c.394-.664.97-.996 1.729-.996.645 0 1.147.224 1.509.671.361.448.542 1.047.542 1.799 0 .837-.203 1.506-.61 2.009-.407.503-.964.754-1.67.754-.648 0-1.147-.28-1.499-.84zm-.019-2.017v.698c0 .413.134.764.403 1.052.269.288.61.432 1.023.432.485 0 .865-.186 1.14-.557.275-.371.413-.887.413-1.548 0-.557-.129-.993-.386-1.309-.257-.316-.605-.474-1.045-.474-.466 0-.84.162-1.123.486-.283.324-.425.73-.425 1.218zm12.177 2.74h-.801v-2.871c0-.553-.086-.954-.256-1.201-.171-.247-.458-.371-.862-.371-.342 0-.632.156-.872.469-.239.313-.359.687-.359 1.123v2.852h-.801v-2.969c0-.983-.379-1.475-1.138-1.475-.352 0-.641.147-.869.442-.228.295-.342.678-.342 1.15v2.852h-.801v-5h.801v.791h.019c.355-.605.872-.908 1.553-.908.342 0 .64.095.894.286.254.19.428.44.522.75.371-.69.924-1.035 1.66-1.035 1.1 0 1.65.679 1.65 2.036zm5.533-2.3h-3.53c.013.557.163.986.449 1.289.286.303.68.454 1.182.454.563 0 1.081-.186 1.553-.557v.752c-.439.319-1.021.479-1.743.479-.706 0-1.261-.227-1.665-.681-.404-.454-.605-1.093-.605-1.917 0-.778.221-1.412.662-1.902.441-.49.989-.735 1.643-.735s1.16.212 1.519.635c.358.423.537 1.011.537 1.763zm-.82-.679c-.003-.462-.115-.822-.334-1.079-.22-.257-.525-.386-.916-.386-.378 0-.698.135-.962.405s-.426.623-.488 1.06zm6.186 2.979h-.801v-2.852c0-1.061-.387-1.592-1.162-1.592-.4 0-.732.151-.994.452-.262.301-.393.681-.393 1.14v2.852h-.801v-5h.801v.83h.019c.378-.632.924-.947 1.641-.947.547 0 .965.177 1.255.53.29.353.435.863.435 1.531zm3.833-.049c-.189.104-.438.156-.747.156-.876 0-1.313-.488-1.313-1.465v-2.959h-.859v-.684h.859v-1.221l.801-.259v1.479h1.26v.684h-1.26v2.817c0 .335.057.575.171.718.114.143.303.215.566.215.202 0 .376-.055.522-.166zm10.112-4.951l-1.499 5h-.83l-1.03-3.579c-.039-.137-.065-.291-.078-.464h-.019c-.01.117-.044.269-.103.454l-1.118 3.589h-.801l-1.514-5h.84l1.035 3.76c.033.114.055.264.068.449h.039c.01-.143.039-.296.088-.459l1.152-3.75h.732l1.035 3.77c.033.12.057.27.073.449h.039c.007-.127.034-.277.083-.449l1.016-3.77zm1.284-1.27c-.143 0-.265-.049-.366-.146-.101-.098-.151-.221-.151-.371s.051-.274.151-.374c.101-.099.223-.149.366-.149.146 0 .271.05.374.149.103.099.154.224.154.374 0 .143-.051.265-.154.366-.103.101-.227.151-.374.151zm.391 4.873c0 .459.177.688.532.688.143 0 .272-.018.386-.054v.723l-.247.046-.325.022c-.16 0-.309-.026-.449-.078-.14-.052-.261-.132-.364-.239-.103-.107-.184-.242-.244-.403-.06-.161-.09-.349-.09-.564v-3.745h.801zm4.111 1.348c-.189.104-.438.156-.747.156-.876 0-1.313-.488-1.313-1.465v-2.959h-.859v-.684h.859v-1.221l.801-.259v1.479h1.26v.684h-1.26v2.817c0 .335.057.575.171.718.114.143.303.215.566.215.202 0 .376-.055.522-.166zm5.23.049h-.801v-2.881c0-1.042-.387-1.562-1.162-1.563-.391 0-.719.151-.986.452-.267.301-.4.688-.4 1.16v2.832h-.801v-7.402h.801v3.232h.019c.384-.632.931-.947 1.641-.947 1.126 0 1.689.679 1.689 2.036zm9.121-.293c-.518.273-1.162.41-1.934.41-.996 0-1.794-.321-2.393-.962-.599-.641-.898-1.483-.898-2.524 0-1.12.337-2.025 1.011-2.715.674-.69 1.528-1.035 2.563-1.035.664 0 1.214.096 1.65.288v.874c-.501-.28-1.055-.42-1.66-.42-.804 0-1.456.269-1.956.806s-.75 1.255-.75 2.153c0 .853.234 1.532.701 2.039.467.506 1.08.759 1.838.759.703 0 1.312-.156 1.826-.469zm2.246.293h-.82v-7.002h.82z" fill="#333"/></svg>