<?xml version="1.0" encoding="UTF-8" standalone="no"?>
<svg
   xmlns:dc="http://purl.org/dc/elements/1.1/"
   xmlns:cc="http://creativecommons.org/ns#"
   xmlns:rdf="http://www.w3.org/1999/02/22-rdf-syntax-ns#"
   xmlns:svg="http://www.w3.org/2000/svg"
   xmlns="http://www.w3.org/2000/svg"
   xmlns:sodipodi="http://sodipodi.sourceforge.net/DTD/sodipodi-0.dtd"
   xmlns:inkscape="http://www.inkscape.org/namespaces/inkscape"
   width="300"
   height="500"
   id="svg2"
   version="1.1"
   inkscape:version="0.48.4 r9939"
   sodipodi:docname="developer.svg">
  <metadata
     id="metadata80">
    <rdf:RDF>
      <cc:Work
         rdf:about="">
        <dc:format>image/svg+xml</dc:format>
        <dc:type
           rdf:resource="http://purl.org/dc/dcmitype/StillImage" />
      </cc:Work>
    </rdf:RDF>
  </metadata>
  <defs
     id="defs78" />
  <sodipodi:namedview
     pagecolor="#ffffff"
     bordercolor="#666666"
     borderopacity="1"
     objecttolerance="10"
     gridtolerance="10"
     guidetolerance="10"
     inkscape:pageopacity="0"
     inkscape:pageshadow="2"
     inkscape:window-width="1304"
     inkscape:window-height="746"
     id="namedview76"
     showgrid="false"
     inkscape:zoom="1.118"
     inkscape:cx="150"
     inkscape:cy="250"
     inkscape:window-x="54"
     inkscape:window-y="-8"
     inkscape:window-maximized="1"
     inkscape:current-layer="g10" />
  <title
     id="title4">little lego man</title>
  <g
     transform="translate(0 20)"
     id="g6">
    <title
       id="title8">Layer 1</title>
    <g
       stroke="#000"
       stroke-width="5.042"
       opacity=".98"
       id="g10">
      <g
         id="g3836">
        <path
           id="path12"
           fill-rule="evenodd"
           fill="#fff"
           d="M112.398 145.117l-49.887 70.219 30.058 25.719 9.641-15.434 10.188-80.503z" />
        <path
           id="path14"
           fill="#ff0"
           d="M40.663 227.349c-8.119.225-16.93 7.555-21.426 18.665-4.493 11.103-3.294 22.565 2.336 28.471l3.105-6.036c-3.601-4.557-4.223-12.578-1.076-20.356 3.315-8.191 9.808-13.611 15.801-13.84 1.383-.053 2.741.168 4.027.698 6.858 2.828 9.106 13.316 5.026 23.397-2.504 6.188-6.816 10.787-11.359 12.769l-.476 6.268c6.413-2.467 12.586-8.845 16.108-17.548 5.5-13.592 2.467-27.715-6.778-31.527-1.445-.596-2.961-.917-4.503-.962-.26-.008-.522-.007-.784 0z" />
        <path
           id="path16"
           fill-rule="evenodd"
           fill="#fff"
           d="M203.387 288.744l-.169.745.476.171c9.246 3.812 12.278 17.936 6.778 31.527-3.981 9.838-12.219 17.416-19.492 19.018l24.349 9.888c12.416.185 23.728-2.428 30.571-16.307 2.531-8.351 3.37-17.081-2.459-27.307-12.804.028-20.016-6.382-26.345-13.824l-13.71-3.91z" />
        <path
           id="path18"
           fill="#fff"
           d="M206.198 319.343c-2.468 6.353-5.903 10.186-11.139 12.367-3.769-1.094-10.656-1.883-13.242-2.949-3.131-5.085-4.084-9.861-.466-19.663 3.767-10.205 12.957-15.969 19.815-13.141 6.858 2.828 9.113 13.305 5.033 23.387z" />
        <path
           id="path20"
           fill="#ff0"
           d="M48.456 258.345c-2.578 6.372-7.073 11.068-11.763 12.948-4.136-.502-7.987-1.071-11.564-1.58-2.843-3.933-4.961-11.708-1.52-21.614 3.57-10.277 12.957-15.969 19.815-13.141 6.858 2.828 9.113 13.305 5.033 23.387z" />
        <path
           id="path22"
           fill-rule="evenodd"
           fill="#fff"
           d="M182.31 328.82l-2.811 7.27 12.472 2.66 2.284-6.738-11.945-3.192z" />
        <path
           id="path24"
           fill-rule="evenodd"
           fill="#ff0"
           d="M45.643 227.395l-.154.745.461.171c9.246 3.812 12.278 17.936 6.778 31.527-3.79 9.366-10.643 16.043-17.568 18.044l2.062.04 21.777 9.766c15.963.467 24.77-5.691 29.511-15.609 3.717-10.302 2.484-19.61-3.166-28.021l-.553-.295-.154.295c-13.572.158-16.838-8.592-24.592-13.467l.154-.264-.154-.093-14.402-2.839zm21.434-7.803l-7.026 10.994c7.755 4.875 11.02 13.634 24.592 13.476l3.865-6.738-21.43-17.732zm-42.158 49.472l-2.986 6.029 14.931 2.305.351-6.206-12.296-2.128z" />
        <path
           id="path26"
           fill-rule="evenodd"
           fill="#fff"
           d="M203.387 288.744l-.169.745.476.171c9.246 3.812 12.278 17.936 6.778 31.527-3.981 9.838-12.219 17.416-19.492 19.018l24.349 9.888c12.416.185 23.728-2.428 30.571-16.307 2.531-8.351 3.37-17.081-2.459-27.307-12.804.028-20.016-6.382-26.345-13.824l-13.71-3.91zm0 0l-.169.745.476.171c9.246 3.812 12.278 17.936 6.778 31.527-3.981 9.838-12.219 17.416-19.492 19.018l24.349 9.888c12.416.185 23.728-2.428 30.571-16.307 2.531-8.351 3.37-17.081-2.459-27.307-12.804.028-20.016-6.382-26.345-13.824l-13.71-3.91z" />
        <path
           id="path28"
           fill-rule="evenodd"
           fill="#00f"
           d="M230.429 381.459c-17.253-13.709-14.683-31.965-13.415-40.123 1.315-8.456 7.491-24.249 28.817-30.092 19.689-5.394 27.618 12.526 30.804 31.095l-1.491 111.842-60.118 22.569v-32.098l14.408-7.021.994-56.172z" />
        <path
           id="path30"
           fill-rule="evenodd"
           fill="#f00"
           d="M117.592 43.256c6.455-14.849 9.888-30.253 30.213-42.557l22.229-9.879c11.946-8.431 25.653-8.313 39.618-.208l16.849 7.959c11.193 8.007 21.434 12.877 29.511 39.72 6.504 11.751 10.469 21.396 6.494 27.368-7.198 10.814-14.144 14.75-22.655 18.735-33.492 9.43-66.985 13.855-100.477 9.93-16.31-3.334-35.519-2.941-37.943-24.115-3.382-9.789 5.114-18.488 16.161-26.953z" />
        <path
           id="path32"
           fill-rule="evenodd"
           fill="#ff0"
           d="M245.686 81.1c-1.521.804-3.082 1.552-4.703 2.312-33.492 9.43-66.983 13.855-100.475 9.93-3.174-.649-6.465-1.154-9.714-1.707l-.369 26.019c4.613 10.135 10.461 19.712 26.821 24.576 26.281 3.561 52.528 6.548 77.512-9.526 17.646-18.286 8.586-34.506 10.928-51.604zm-21.119 57.113c-21.884 9.74-44.592 7.099-67.322 4.018-1.483-.441-2.879-.927-4.196-1.443l.231 6.951c24.915 11.144 49.266 13.248 71.533-.993l-.246-8.533z" />
        <path
           id="path34"
           fill-rule="evenodd"
           fill="#fff"
           d="M136.68 128.655l-21.672 9.061 86.949 35.111 61.619-25.585-32.754-12.18c-2.079 1.168-4.16 2.217-6.256 3.15l.246 8.533c-22.267 14.241-46.618 12.137-71.533.993l-.231-6.951c-7.729-3.024-12.716-7.282-16.369-12.133zm80.586 12.35c-.452.146-.9.297-1.353.434.453-.137.9-.288 1.353-.434zm-103.74-3.794l-16.396 126.387 120.235 46.141-15.899-138.424-87.941-34.104zm104.336 172.529l63.099-23.572-17.886-138.925-62.105 25.578 16.893 136.919z" />
        <path
           id="path36"
           fill-rule="evenodd"
           fill="#00f"
           d="M101.104 265.605v25.578l114.77 42.63v-24.074l-114.77-44.135zm176.875 22.068l-61.112 22.575v25.073l2.398-1.009c3.204-8.363 10.647-18.615 26.913-23.071 8.239-2.257 14.409-.415 19.044 3.832l12.757-5.337v-22.063zm-119.277 25.219c-8.233 14.494-5.671 35.028 6.491 44.492l-.984 56.166-14.417 7.028v32.101l9.066-3.917v-26.274l15.632-7.545.648-54.054c-4.476-3.839-16.75-29.558-4.37-43.489-4.629-1.616-6.556-2.917-12.065-4.51zm.751 109.143l.03 32.899 56.143 22.318v-32.851l-56.173-22.367zm.279.55l15.154-7.523 55.646 22.318-15.154 7.272-55.646-22.068zm16.147-61.187l-.994 54.417 55.149 21.817.745-55.67-54.901-20.563zm-10.783-2.788c-13.86-14.311-13.713-29.907-7.026-46.103l-51.644-18.441c-6.915 15.354-3.818 29.444 4.216 42.911l54.455 21.633zm63.94 23.406c-13.86-14.311-15.47-30.261-10.54-47.167l-48.131-17.377c-6.915 15.354-6.98 24.479 4.216 42.911l54.455 21.633zm-118.395-44.33l-.351 53.196 54.806 21.633v-54.26l-54.455-20.569zm-.351 53.551l-15.809 5.32 55.86 23.406 14.404-6.738-54.455-21.988zm-16.864 4.965l-.351 32.627 56.562 24.47v-33.336l-56.211-23.761z" />
        <path
           id="path38"
           fill-rule="evenodd"
           fill="#ff0"
           d="M203.387 288.744l-.169.745.476.171c9.246 3.812 12.278 17.936 6.778 31.527-3.981 9.838-12.219 17.416-19.492 19.018l24.349 9.888c12.416.185 23.728-2.428 30.571-16.307 2.531-8.351 3.37-17.081-2.459-27.307-12.804.028-20.016-6.382-26.345-13.824l-13.71-3.91z" />
        <path
           id="path40"
           fill="#ff0"
           d="M198.961 288.697c-.232-.003-.459.007-.692.015-8.079.308-16.819 7.622-21.288 18.665-4.489 11.093-3.296 22.533 2.321 28.44l2.767-6.842c-3.287-4.621-3.764-12.358-.722-19.875 3.442-8.506 10.299-14.036 16.477-13.855 1.144.033 2.264.272 3.335.714 6.858 2.828 9.121 13.3 5.041 23.382-2.623 6.482-7.227 11.22-12.004 13.033l-2.951 7.246c7.467-1.344 15.137-8.322 19.228-18.432 5.5-13.592 2.467-27.715-6.778-31.527-1.517-.625-3.111-.942-4.734-.962z" />
        <path
           id="path42"
           fill-rule="evenodd"
           fill="#ff0"
           d="M220.604 283.427l-4.216 9.93c4.782 2.911 15.227 14.954 26.7 12.767l4.918-9.93c-6.324-8.511-15.458-12.767-27.403-12.767z" />
        <path
           id="path44"
           fill="#ff0"
           d="M206.492 318.986c-2.64 6.369-7.242 11.063-12.045 12.942-4.235-.501-8.178-2.489-11.841-2.997-2.911-3.931-5.08-10.284-1.556-20.186 3.656-10.272 13.266-15.961 20.288-13.135 7.022 2.827 9.331 13.299 5.154 23.376z" />
        <path
           id="path46"
           fill-rule="evenodd"
           fill="#fff"
           d="M255.033 297.612l25.295-56.033c5.427-12.022 2.892-20.702-2.108-30.499l-11.945-23.406c-4.991-12.019-16.578-26.986-33.024-19.86-14.602 6.328-16.66 26.217-14.053 40.429l14.053 33.336-18.269 39.72c18.987-2.529 30.338 5.735 40.05 16.313zm-33.54-17.479c-1.997.014-4.053.157-6.163.45-1.646 0 .067 2.91 3.766 6.377l1.506-3.538c11.945 0 21.081 4.258 27.405 12.769l-2.444 4.934c5.33 1.658 9.655 1.801 10.175-2.451-9.035-12.015-20.269-18.639-34.245-18.541z" />
        <path
           id="path48"
           d="M163.458 104.612" />
        <path
           id="path50"
           d="M137.019 92.69c-.845.92-1.383 2.319-1.383 3.894 0 2.768 1.663 5.011 3.72 5.011 2.057 0 3.735-2.243 3.735-5.011 0-1.147-.302-2.196-.784-3.041-.6-.065-1.198-.131-1.798-.202-1.149-.235-2.318-.445-3.489-.652z" />
        <path
           id="path52"
           fill="#f00"
           d="M201.466-14.599c3.08 1.007 6.192 2.408 9.314 4.22l16.846 7.959c1.106.791 2.203 1.557 3.289 2.312-1.883-6.975-13.773-12.673-29.449-14.491zm-22.087.078c-14.562 1.797-25.727 6.95-28.435 13.343l20.227-8.983c2.657-1.875 5.393-3.324 8.208-4.36z" />
        <path
           id="path54"
           fill-rule="evenodd"
           fill="#f00"
           d="M188.81-17.186c-6.666.011-13.071 2.099-19.044 6.315l-21.187 10.238c-15.972 7.907-28.387 30.214-29.847 41.3-3.85 14.382 10.66 30.379 33.189 34.712 13.096 2.747 40.284 4.385 53.181 2.498 32.386-4.737 46.621-13.32 52.105-36.725-3.147-12.438-11.63-36.562-30.986-44.281l-16.846-7.959c-6.983-4.053-13.9-6.109-20.565-6.098zm74.991 75.911c-.236 1.69-1.74 4.363-2.556 6.814-10.856 8.835-26.241 13.285-47.09 18.616-34.234 8.753-101.077 2.439-112.706-18.028 1.115 23.254 19.604 24.395 37.653 27.57 35.682 5.398 81.17 4.17 106.704-10.615 8.348-4.311 17.88-13.964 17.994-24.356z" />
        <path
           id="path56"
           fill="none"
           d="M166.15-9.86c3.199 7.343 13.734 9.167 24.241 9.93 15.158-.365 22.185-5.564 22.484-8.866-14.662-10.953-30.19-11.859-46.726-1.064z" />
        <path
           id="path58"
           fill-rule="evenodd"
           fill="#f00"
           d="M171.531-4.056c-19.699 20.799-31.819 45.035-35.595 74.344 3.747 2.19 7.495 3.39 11.242 3.641 1.232-30.183 11.165-54.419 32.064-75.148-4.43-4.23-5.684-2.851-7.711-2.837zm13.59 3.771l-.351 78.73h9.486l-.703-78.375c-5.32-3.665-5.993-.763-8.432-.355z" />
        <path
           id="path60"
           fill-rule="evenodd"
           fill="#00f"
           d="M124.343 184.482l-24.241 80.503 82.56 31.563c7.004-7.334 15.132-10.507 24.944-7.447l-17.917-79.084-65.345-25.534zm-5.27-44.684l4.567 36.528 10.891 3.901-1.405-35.819-14.053-4.61zm63.237 23.761l-2.459 34.4 9.134 3.546 7.378-31.563-14.053-6.384z" />
        <path
           id="path62"
           fill="#00f"
           d="M134.179 182.177m55.158 21.633" />
        <path
           id="path64"
           fill-rule="evenodd"
           fill="#00f"
           d="M136.287 211.435l-.351 48.231 42.861 15.959-.703-48.94-41.807-15.249zm0 0v19.505l20.025 20.569 21.782-5.674v-18.441l-41.807-15.959z" />
        <path
           id="path66"
           fill-rule="evenodd"
           fill="#ff0"
           d="M182.795 329.383l-2.986 6.029 11.875 2.648 2.049-5.863-10.938-2.813z" />
        <path
           id="path68"
           fill="#f00"
           d="M258.138 41.268c4.302 9.287 4.724 8.686 5.286 18.764-2.621 11.051-28.957 19.924-39.698 23.414-13.181 4.283-48.179 6.49-76.95 2.452-23.735-3.331-42.847-11.378-45.34-21.94 5.492-13.057 5.859-13.891 16.319-20.267-.762 15.079 13.324 28.85 35.573 32.046 15.385 2.21 42.48 4.192 53.181 2.488 33.442-5.326 46.605-14.711 51.629-36.957z" />
        <path
           id="path70"
           fill-rule="evenodd"
           fill="#f00"
           d="M206.903-3.476c19.699 20.799 31.117 39.698 34.892 69.007-3.128 2.086-5.828 4.461-10.78 5.32-1.232-30.183-11.646-50.76-32.544-71.489 1.983-1.781 3.951-3.578 8.432-2.837zm-37.24-2.128c-35.448 14.552-42.318 38.72-47.428 63.48-3.016-4.737-5.611-9.595-4.216-15.604 8.245-28.797 24.655-44.837 47.873-51.907l3.771 4.031zm40.753 0c34.887 15.684 36.312 35.638 41.789 59.656 2.585-3.687 4.271-8.282 4.936-13.908-8.197-30.14-19.793-40.43-44.102-50.004-4.006 1.419-2.894 2.837-2.623 4.256z" />
        <path
           id="path72"
           fill="none"
           d="M138.791 119.444c5.074 9.473 12.763 10.152 21.476 7.38" />
        <path
           id="path74"
           d="M160.597 97.57c-1.51-.078-3.379 2.485-3.379 4.061 0 2.768 1.663 5.011 3.72 5.011 2.057 0 3.735-2.243 3.735-5.011-.041-2.486-2.383-3.935-4.075-4.061z" />
      </g>
    </g>
  </g>
</svg>
