<svg xmlns="http://www.w3.org/2000/svg" xmlns:xlink="http://www.w3.org/1999/xlink" width="450" height="450"><defs><linearGradient id="d"><stop offset="0" stop-color="#e8d300"/><stop offset="1" stop-color="#c6af00"/></linearGradient><linearGradient id="e"><stop offset="0" stop-color="#fee300"/><stop offset="1" stop-color="#e8d300"/></linearGradient><linearGradient id="c"><stop offset="0" stop-color="#fee300"/><stop offset="1" stop-color="#e8d300"/></linearGradient><linearGradient id="b"><stop offset="0" stop-color="#c6af00"/><stop offset="1" stop-color="#e8d300"/></linearGradient><linearGradient><stop offset="0" stop-color="#ffe300"/><stop offset=".206" stop-color="#edd400"/><stop offset=".627" stop-color="#dcc500"/><stop offset="1" stop-color="#c8b200"/></linearGradient><linearGradient id="f"><stop offset="0" stop-color="#f1d801"/><stop offset=".567" stop-color="#dcc500"/><stop offset="1" stop-color="#c8b200"/></linearGradient><linearGradient id="a"><stop offset="0" stop-color="#c8b200"/><stop offset=".194" stop-color="#dcc500"/><stop offset="1" stop-color="#f1d800"/></linearGradient><linearGradient xlink:href="#a" id="g" gradientUnits="userSpaceOnUse" x1="468.071" y1="287.362" x2="278.071" y2="287.362"/><linearGradient xlink:href="#b" id="h" gradientUnits="userSpaceOnUse" gradientTransform="matrix(1.037 0 0 1 -20.443 0)" x1="610.862" y1="334.513" x2="490.085" y2="371.656"/><linearGradient xlink:href="#c" id="i" gradientUnits="userSpaceOnUse" x1="299.027" y1="371.656" x2="442.759" y2="371.656"/><linearGradient xlink:href="#d" id="j" gradientUnits="userSpaceOnUse" gradientTransform="matrix(1.038 0 0 1.071 -17.973 -37.715)" x1="475.292" y1="545.266" x2="635.876" y2="545.266"/><linearGradient xlink:href="#e" id="k" gradientUnits="userSpaceOnUse" gradientTransform="matrix(.999 0 0 1.071 .216 -37.751)" x1="271.241" y1="545.266" x2="484.353" y2="545.266"/><linearGradient xlink:href="#c" id="l" gradientUnits="userSpaceOnUse" gradientTransform="matrix(1 0 0 -1 0 1088.785)" x1="299.027" y1="371.656" x2="442.759" y2="371.656"/><linearGradient xlink:href="#b" id="m" gradientUnits="userSpaceOnUse" gradientTransform="matrix(1.037 0 0 -.944 -20.443 1068.433)" x1="610.862" y1="334.513" x2="490.085" y2="371.656"/><linearGradient xlink:href="#f" id="n" gradientUnits="userSpaceOnUse" gradientTransform="translate(1.429 -1.429)" x1="215.214" y1="787.362" x2="537.643" y2="787.362"/></defs><g transform="matrix(.79 0 0 .79 -73.348 -195.996)"><rect y="248.096" x="254.305" height="78.533" width="238.533" overflow="visible" fill="url(#g)" enable-background="accumulate"/><path d="M251.438 326.656c-62.218 1.052-115.984 14.076-135.719 75.313v14.688h159.188c2.819-37.114 13.238-66.644 28.344-90h-51.813z" overflow="visible" fill="#fee300" enable-background="accumulate"/><path d="M441.178 326.656c15.949 23.732 26.695 53.347 28.416 90h170.593v-10c-22.361-71.667-82.972-79.643-148.139-80h-50.87z" overflow="visible" fill="url(#h)" enable-background="accumulate"/><path d="M302.344 326.656c-14.81 23.434-24.927 52.957-27.531 90h197.875c-1.422-36.573-11.461-66.201-26.531-90h-143.813z" overflow="visible" fill="url(#i)" enable-background="accumulate"/><rect y="416.027" x="115.219" height="262.517" width="165.543" overflow="visible" fill="#fee300" enable-background="accumulate"/><rect width="163.541" height="272.638" x="476.844" y="409.957" overflow="visible" fill="url(#j)" enable-background="accumulate"/><rect y="410.194" x="273.03" height="272.164" width="209.535" overflow="visible" fill="url(#k)" enable-background="accumulate"/><path d="M251.438 762.128c-62.218-1.052-115.984-14.076-135.719-75.313v-14.688h159.188c2.819 37.114 13.238 66.644 28.344 90h-51.813z" overflow="visible" fill="#fee300" enable-background="accumulate"/><path d="M302.344 762.128c-14.81-23.434-24.927-52.957-27.531-90h197.875c-1.422 36.573-11.461 66.201-26.531 90h-143.813z" overflow="visible" fill="url(#l)" enable-background="accumulate"/><path d="M441.178 760.108c15.949-22.4 26.695-50.353 28.416-84.949h170.593v9.439c-22.361 67.645-82.972 75.173-148.139 75.51h-50.87z" overflow="visible" fill="url(#m)" enable-background="accumulate"/><rect width="321.339" height="64.196" x="217.188" y="753.835" overflow="visible" fill="url(#n)" enable-background="accumulate"/></g><path d="M167.136 299.121c13.936 62.323 93.169 67.84 115.328-1.552l-2.382-1.093-112.946 2.645z" fill="#fff" fill-rule="evenodd" stroke="#000" stroke-width="12.64" stroke-linecap="round" stroke-linejoin="round"/><path d="M148.148 223.548c16.726-7.821 27.212-4.203 37.143.432m73.896-2.102c16.726-7.821 27.212-4.203 37.143.432" stroke="#000" stroke-width="12.64" stroke-linecap="round" fill="none"/></svg>