<?xml version="1.0" encoding="UTF-8" standalone="no"?>
<svg
   xmlns:dc="http://purl.org/dc/elements/1.1/"
   xmlns:cc="http://creativecommons.org/ns#"
   xmlns:rdf="http://www.w3.org/1999/02/22-rdf-syntax-ns#"
   xmlns:svg="http://www.w3.org/2000/svg"
   xmlns="http://www.w3.org/2000/svg"
   xmlns:xlink="http://www.w3.org/1999/xlink"
   xmlns:sodipodi="http://sodipodi.sourceforge.net/DTD/sodipodi-0.dtd"
   xmlns:inkscape="http://www.inkscape.org/namespaces/inkscape"
   width="300"
   height="500"
   enable-background="new"
   id="svg6198"
   version="1.1"
   inkscape:version="0.48.4 r9939"
   sodipodi:docname="product-owner.svg">
  <metadata
     id="metadata6282">
    <rdf:RDF>
      <cc:Work
         rdf:about="">
        <dc:format>image/svg+xml</dc:format>
        <dc:type
           rdf:resource="http://purl.org/dc/dcmitype/StillImage" />
      </cc:Work>
    </rdf:RDF>
  </metadata>
  <sodipodi:namedview
     pagecolor="#ffffff"
     bordercolor="#666666"
     borderopacity="1"
     objecttolerance="10"
     gridtolerance="10"
     guidetolerance="10"
     inkscape:pageopacity="0"
     inkscape:pageshadow="2"
     inkscape:window-width="1304"
     inkscape:window-height="746"
     id="namedview6280"
     showgrid="false"
     inkscape:zoom="1.1180244"
     inkscape:cx="149.99683"
     inkscape:cy="250.00553"
     inkscape:window-x="54"
     inkscape:window-y="-8"
     inkscape:window-maximized="1"
     inkscape:current-layer="svg6198" />
  <defs
     id="defs6200">
    <linearGradient
       id="a">
      <stop
         offset="0"
         stop-color="#666"
         id="stop6203" />
      <stop
         offset="1"
         stop-color="#666"
         stop-opacity="0"
         id="stop6205" />
    </linearGradient>
    <linearGradient
       xlink:href="#a"
       x1="372.012"
       y1="26.215"
       x2="349.136"
       y2="150.907"
       gradientUnits="userSpaceOnUse"
       id="linearGradient6207" />
    <linearGradient
       xlink:href="#a"
       gradientUnits="userSpaceOnUse"
       x1="372.012"
       y1="26.215"
       x2="349.136"
       y2="150.907"
       gradientTransform="translate(596.951 172.801)"
       id="linearGradient6209" />
    <linearGradient
       xlink:href="#a"
       id="b"
       gradientUnits="userSpaceOnUse"
       x1="372.012"
       y1="26.215"
       x2="349.136"
       y2="150.907" />
  </defs>
  <path
     d="M248.581 85.179c-12.925 6.063-25.548 13.309-45.574 19.757-25.309 4.834-54.883 4.932-74.576-2.142l1.634 33.566c4.652 10.125 10.55 19.692 27.047 24.552 26.503 3.558 52.972 6.541 78.166-9.517 17.795-18.268 12.568-47.179 13.301-66.215z"
     fill="#ff0"
     fill-rule="evenodd"
     stroke="#000"
     stroke-width="4.96"
     stroke-linecap="round"
     stroke-linejoin="round"
     enable-background="new"
     id="path6212" />
  <path
     d="M112.145 165.705l-50.309 70.149 30.312 25.693 9.722-15.419 10.274-80.423z"
     fill="#1a1a1a"
     fill-rule="evenodd"
     stroke="#000"
     stroke-width="4.96"
     stroke-linecap="round"
     stroke-linejoin="round"
     id="path6214" />
  <path
     d="M39.804 247.855c-8.188.225-17.073 7.548-21.607 18.646-4.531 11.092-3.321 22.542 2.356 28.442l3.131-6.029c-3.631-4.553-4.259-12.566-1.085-20.336 3.343-8.183 9.891-13.598 15.934-13.826 1.395-.053 2.764.168 4.061.698 6.916 2.825 9.183 13.302 5.069 23.374-2.525 6.182-6.874 10.776-11.454 12.756l-.48 6.262c6.467-2.464 12.693-8.836 16.244-17.53 5.546-13.578 2.488-27.687-6.835-31.496-1.457-.595-2.986-.916-4.542-.961-.262-.008-.526-.007-.79 0z"
     fill="#ff0"
     stroke="#000"
     stroke-width="4.96"
     stroke-linecap="round"
     stroke-linejoin="round"
     overflow="visible"
     enable-background="accumulate"
     id="path6216" />
  <path
     d="M203.903 309.188l-.17.744.48.17c9.324 3.809 12.382 17.918 6.835 31.496-4.015 9.828-12.322 17.398-19.656 18.999l24.554 9.878c12.521.185 23.928-2.426 30.829-16.291 2.552-8.342 3.399-17.064-2.48-27.28-12.912.028-20.185-6.376-26.567-13.81l-13.826-3.906z"
     fill="#fff"
     fill-rule="evenodd"
     stroke="#000"
     stroke-width="4.96"
     stroke-linecap="round"
     stroke-linejoin="round"
     id="path6218" />
  <path
     d="M207.01 339.991c-2.486 6.354-5.951 10.19-11.234 12.374-3.805-1.091-10.757-1.875-13.369-2.939-3.164-5.083-4.13-9.857-.485-19.661 3.795-10.207 13.066-15.977 19.99-13.155 6.924 2.822 9.208 13.297 5.097 23.381z"
     fill="#fff"
     stroke="#000"
     stroke-width="4.961"
     stroke-linecap="round"
     stroke-linejoin="round"
     overflow="visible"
     enable-background="accumulate"
     id="path6220" />
  <path
     d="M47.936 279.054c-2.598 6.373-7.131 11.073-11.864 12.955-4.175-.498-8.062-1.065-11.674-1.571-2.873-3.931-5.016-11.703-1.55-21.611 3.596-10.279 13.066-15.977 19.99-13.155 6.924 2.822 9.208 13.297 5.097 23.381z"
     fill="#ff0"
     stroke="#000"
     stroke-width="4.961"
     stroke-linecap="round"
     stroke-linejoin="round"
     overflow="visible"
     enable-background="accumulate"
     id="path6222" />
  <path
     d="M182.648 349.225l-2.834 7.263 12.577 2.657 2.303-6.731-12.046-3.189z"
     fill="#fff"
     fill-rule="evenodd"
     stroke="#000"
     stroke-width="4.96"
     stroke-linecap="round"
     stroke-linejoin="round"
     id="path6224" />
  <path
     d="M44.826 247.901l-.155.744.465.17c9.324 3.809 12.382 17.918 6.835 31.496-3.822 9.356-10.733 16.027-17.716 18.026l2.079.04 21.961 9.756c16.098.467 24.979-5.686 29.76-15.593 3.749-10.292 2.505-19.591-3.193-27.993l-.558-.294-.155.294c-13.687.158-16.98-8.584-24.8-13.454l.155-.264-.155-.093-14.524-2.837zm21.616-7.796l-7.086 10.983c7.82 4.87 11.113 13.621 24.8 13.463l3.897-6.731-21.611-17.714zm-42.514 49.423l-3.011 6.023 15.057 2.303.354-6.2-12.4-2.126z"
     fill="#ff0"
     fill-rule="evenodd"
     stroke="#000"
     stroke-width="4.96"
     stroke-linecap="round"
     stroke-linejoin="round"
     id="path6226" />
  <path
     d="M203.903 309.188l-.17.744.48.17c9.324 3.809 12.382 17.918 6.835 31.496-4.015 9.828-12.322 17.398-19.656 18.999l24.554 9.878c12.521.185 23.928-2.426 30.829-16.291 2.552-8.342 3.399-17.064-2.48-27.28-12.912.028-20.185-6.376-26.567-13.81l-13.826-3.906zm0 0l-.17.744.48.17c9.324 3.809 12.382 17.918 6.835 31.496-4.015 9.828-12.322 17.398-19.656 18.999l24.554 9.878c12.521.185 23.928-2.426 30.829-16.291 2.552-8.342 3.399-17.064-2.48-27.28-12.912.028-20.185-6.376-26.567-13.81l-13.826-3.906z"
     fill="#fff"
     fill-rule="evenodd"
     stroke="#000"
     stroke-width="4.96"
     stroke-linecap="round"
     stroke-linejoin="round"
     id="path6228" />
  <path
     d="M231.172 401.811c-17.398-13.695-14.807-31.934-13.528-40.083 1.326-8.447 7.554-24.225 29.06-30.062 19.855-5.389 27.851 12.514 31.064 31.064l-1.503 111.731-60.625 22.547v-32.066l14.53-7.014 1.002-56.116zm-117.89-244.004l-16.534 126.261 121.251 46.095-16.033-138.286-88.683-34.07zm105.218 172.356l63.632-23.549-18.037-138.787-62.629 25.553 17.035 136.783zm-117.744-44.091v25.553l115.739 42.588v-24.05l-115.739-44.091zm178.368 22.046l-61.628 22.552v25.048l2.418-1.008c3.231-8.355 10.737-18.596 27.14-23.049 8.308-2.255 14.531-.414 19.204 3.829l12.865-5.332v-22.041zm-120.284 25.195c-8.302 14.479-5.719 34.993 6.545 44.447l-.992 56.11-14.539 7.021v32.069l9.143-3.913v-26.248l15.764-7.537.653-54c-4.514-3.835-16.891-29.529-4.407-43.445-4.668-1.615-6.612-2.915-12.167-4.505zm.757 109.034l.03 32.866 56.617 22.296v-32.818l-56.647-22.344zm.281.549l15.282-7.516 56.116 22.296-15.282 7.265-56.116-22.046zm16.284-61.126l-1.002 54.362 55.615 21.795.752-55.615-55.364-20.542zm-10.874-2.785c-13.977-14.296-13.829-29.877-7.086-46.057l-52.08-18.423c-6.974 15.338-3.85 29.415 4.251 42.869l54.914 21.611zm64.48 23.383c-13.977-14.296-15.601-30.231-10.629-47.12l-48.537-17.36c-6.974 15.338-7.039 24.455 4.251 42.869l54.914 21.611zm-119.395-44.286l-.354 53.143 55.269 21.611v-54.206l-54.914-20.549zm-.354 53.497l-15.943 5.314 56.331 23.383 14.526-6.731-54.914-21.966zm-17.006 4.96l-.354 32.594 57.04 24.446v-33.303l-56.686-23.737z"
     fill="#1a1a1a"
     fill-rule="evenodd"
     stroke="#000"
     stroke-width="4.96"
     stroke-linecap="round"
     stroke-linejoin="round"
     id="path6230" />
  <path
     d="M203.903 309.188l-.17.744.48.17c9.324 3.809 12.382 17.918 6.835 31.496-4.015 9.828-12.322 17.398-19.656 18.999l24.554 9.878c12.521.185 23.928-2.426 30.829-16.291 2.552-8.342 3.399-17.064-2.48-27.28-12.912.028-20.185-6.376-26.567-13.81l-13.826-3.906z"
     fill="#ff0"
     fill-rule="evenodd"
     stroke="#000"
     stroke-width="4.96"
     stroke-linecap="round"
     stroke-linejoin="round"
     id="path6232" />
  <path
     d="M199.439 309.142c-.234-.003-.462.007-.698.015-8.147.308-16.961 7.614-21.468 18.646-4.527 11.082-3.324 22.511 2.341 28.412l2.79-6.835c-3.314-4.616-3.796-12.345-.729-19.855 3.471-8.498 10.385-14.022 16.616-13.841 1.154.034 2.283.272 3.364.713 6.916 2.825 9.198 13.287 5.084 23.358-2.645 6.476-7.288 11.209-12.105 13.02l-2.976 7.239c7.53-1.343 15.265-8.313 19.39-18.414 5.546-13.578 2.488-27.687-6.835-31.496-1.53-.625-3.138-.941-4.774-.961z"
     fill="#ff0"
     stroke="#000"
     stroke-width="4.96"
     stroke-linecap="round"
     stroke-linejoin="round"
     overflow="visible"
     enable-background="accumulate"
     id="path6234" />
  <path
     d="M221.265 303.876l-4.251 9.92c4.822 2.909 15.356 14.939 26.926 12.754l4.96-9.92c-6.377-8.503-15.589-12.754-27.634-12.754z"
     fill="#ff0"
     fill-rule="evenodd"
     stroke="#000"
     stroke-width="4.96"
     stroke-linecap="round"
     stroke-linejoin="round"
     id="path6236" />
  <path
     d="M207.034 339.4c-2.662 6.363-7.304 11.052-12.146 12.929-4.271-.501-8.247-2.486-11.941-2.994-2.936-3.927-5.123-10.274-1.57-20.166 3.686-10.262 13.378-15.946 20.46-13.122 7.081 2.824 9.41 13.286 5.197 23.353z"
     fill="#ff0"
     stroke="#000"
     stroke-width="4.96"
     stroke-linecap="round"
     stroke-linejoin="round"
     overflow="visible"
     enable-background="accumulate"
     id="path6238" />
  <path
     d="M255.985 318.048l25.509-55.977c5.473-12.01 2.916-20.682-2.126-30.469l-12.046-23.383c-5.033-12.007-16.718-26.96-33.303-19.84-14.725 6.321-16.8 26.19-14.171 40.389l14.171 33.303-18.423 39.68c19.148-2.527 30.594 5.729 40.389 16.297zm-33.823-17.463c-2.013.014-4.088.157-6.215.45-1.66 0 .067 2.907 3.797 6.37l1.519-3.534c12.046 0 21.259 4.254 27.636 12.756l-2.465 4.929c5.375 1.657 9.737 1.799 10.261-2.449-9.111-12.003-20.44-18.621-34.534-18.523z"
     fill="#1a1a1a"
     fill-rule="evenodd"
     stroke="#000"
     stroke-width="4.96"
     stroke-linecap="round"
     stroke-linejoin="round"
     id="path6240" />
  <path
     d="M183.136 349.787l-3.011 6.023 11.976 2.645 2.066-5.858-11.03-2.81z"
     fill="#ff0"
     fill-rule="evenodd"
     stroke="#000"
     stroke-width="4.96"
     stroke-linecap="round"
     stroke-linejoin="round"
     id="path6242" />
  <path
     d="M153.217 293.816c-.886 1.933-.618 5.485 2.239 5.484 2.799-.001 3.374-2.889 2.179-5.612-.804-1.831-3.585-1.69-4.418.127zm0-16.819c-.886 1.933-.618 5.485 2.239 5.484 2.799-.001 3.374-2.889 2.179-5.612-.804-1.831-3.585-1.69-4.418.127zm.23-16.589c-.886 1.933-.618 5.485 2.239 5.484 2.799-.001 3.374-2.889 2.179-5.612-.804-1.831-3.585-1.69-4.418.127z"
     fill="#e6e6e6"
     fill-rule="evenodd"
     stroke="#000"
     stroke-width="4.96"
     id="path6244" />
  <path
     d="M131.843 165.279c-3.493 21.207-.458 42.289 22.42 62.967 29.349-4.07 27.529-26.044 29.585-46.176l-52.005-16.791z"
     fill="#ececec"
     fill-rule="evenodd"
     stroke="#000"
     stroke-width="4.96"
     id="path6246" />
  <path
     d="M123.544 162.047l-.924 36.629c3.784 1.245 6.983 1.83 10.164 2.574-1.849 3.634-5.696 5.469-8.778 7.524 5.827 9.984 14.837 17.581 30.492 20.195 12.518 7.171 23.595 7.677 33.033.594-6.601-6.956-5.898-8.432-8.085-12.078 4.813.331 8.004 3.47 11.55 2.97l-.693-36.629"
     stroke="#000"
     stroke-width="4.96"
     stroke-linejoin="round"
     fill="none"
     id="path6248" />
  <path
     d="M153.447 245.42c-.886 1.933-.618 5.485 2.239 5.484 2.799-.001 3.374-2.889 2.179-5.612-.804-1.831-3.585-1.69-4.418.127z"
     fill="#e6e6e6"
     fill-rule="evenodd"
     stroke="#000"
     stroke-width="4.96"
     id="path6250" />
  <path
     d="M154.099 209.252c-.886 1.933-.618 5.485 2.239 5.484 2.799-.001 3.374-2.889 2.179-5.612-.804-1.831-3.585-1.69-4.418.127zm0-17.921c-.886 1.933-.618 5.485 2.239 5.484 2.799-.001 3.374-2.889 2.179-5.612-.804-1.831-3.585-1.69-4.418.127z"
     fill="#1a1a1a"
     fill-rule="evenodd"
     stroke="#000"
     stroke-width="4.96"
     id="path6252" />
  <path
     d="M133.772 167.702c2.171 6.435 1.52 12.164 10.101 20.202 2.811-5.316 5.119-10.947 14.662-12.056 4.169 4.482 9.042 6.382 10.752 19.876 7.833-.953 11.592-4.816 13.359-10.101"
     stroke="#000"
     stroke-width="4.96"
     fill="none"
     id="path6254" />
  <path
     d="M114.873 227.33l22.157 8.472v11.404l-13.359 1.629-9.775-11.078.977-10.427z"
     stroke="#000"
     stroke-width="4.96"
     fill="none"
     id="path6256" />
  <path
     d="M122.96 239.869c-.748 1.633-.522 4.635 1.892 4.634 2.365-.001 2.851-2.441 1.841-4.741-.679-1.547-3.029-1.428-3.733.108z"
     fill="#e6e6e6"
     fill-rule="evenodd"
     stroke="#000"
     stroke-width="4.96"
     id="path6260" />
  <path
     d="M159.513 142.939c-8.799 2.249-16.571 1.758-20.202-9.775"
     stroke="#000"
     stroke-width="4.96"
     stroke-linecap="round"
     enable-background="new"
     fill="none"
     id="path6262" />
  <path
     d="M163.076 120.862c0 2.767-1.682 5.01-3.758 5.01-2.075 0-3.758-2.243-3.758-5.01s1.682-5.01 3.758-5.01c2.075 0 3.758 2.243 3.758 5.01z"
     opacity=".98"
     stroke="#000"
     stroke-width="4.96"
     stroke-linecap="round"
     stroke-linejoin="round"
     overflow="visible"
     enable-background="accumulate"
     id="path6264" />
  <path
     d="M136.413 108.952c-.852.919-1.395 2.317-1.395 3.89 0 2.766 1.677 5.006 3.751 5.006s3.767-2.241 3.767-5.006c0-1.146-.304-2.194-.79-3.038-.606-.065-1.208-.131-1.813-.202-1.159-.235-2.338-.445-3.518-.651z"
     opacity=".98"
     stroke="#000"
     stroke-width="4.96"
     stroke-linecap="round"
     stroke-linejoin="round"
     overflow="visible"
     enable-background="accumulate"
     fill="none"
     id="path6266" />
  <path
     d="M136.374 147.349l-21.855 9.052 87.683 35.077 62.139-25.559-33.03-12.168c-2.097 1.167-4.195 2.215-6.308 3.147l.248 8.525c-22.455 14.227-47.012 12.125-72.137.992l-.232-6.944c-7.794-3.021-12.824-7.275-16.508-12.121zm81.266 12.338c-.456.146-.908.297-1.364.434.457-.137.907-.288 1.364-.434z"
     opacity=".98"
     fill="#1a1a1a"
     fill-rule="evenodd"
     stroke="#000"
     stroke-width="4.96"
     stroke-linecap="round"
     stroke-linejoin="round"
     enable-background="new"
     id="path6268" />
  <path
     d="M142.8 113.029c0 2.767-1.682 5.01-3.758 5.01-2.075 0-3.758-2.243-3.758-5.01s1.682-5.01 3.758-5.01c2.075 0 3.758 2.243 3.758 5.01z"
     opacity=".98"
     stroke="#000"
     stroke-width="4.96"
     stroke-linecap="round"
     stroke-linejoin="round"
     overflow="visible"
     enable-background="accumulate"
     id="path6270" />
  <path
     d="M186.615 174.848c-9.066-.684-18.692-3.149-28.377-7.266l-4.789-2.036v-4.276l.921.232c1.865.47 9.816 1.653 16.332 2.43 5.495.655 8.72.804 17.923.827 11.551.029 13.655-.137 20.771-1.639 4.192-.885 8.211-2.064 12.141-3.56 1.585-.603 2.968-1.097 3.075-1.097.107 0 .194 1.375.194 3.056v3.056l-2.309 1.48c-9.942 6.372-23.603 9.72-35.882 8.794z"
     overflow="visible"
     enable-background="accumulate"
     fill="none"
     id="path6272" />
  <path
     d="M197.308 2.482c-19.459.087-38.773 5.68-60.605 11.424-21.41 5.632-30.897 9.355-17.081 21.669l-.511-.155c12.103 8.011 9.309 18.506.651 29.977-5.675 14.114-12.608 13.975-3.255 29.977 8.555 10.244 29.297 13.056 52.777 13.02 34.542-.053 51.419-10.348 69.084-19.546h-.434c6.635-2.244 11.534-5.61 12.508-10.447-.364-7.411-6.233-9.42.31-26.04l.093.232c.174-.083.36-.154.558-.232 6.327-2.063 13.183-11.852 14.322-20.832-1.793-12.631 1.068-20.738-33.883-26.738-11.386-1.392-22.859-2.362-34.534-2.309z"
     fill="#f2f2f2"
     fill-rule="evenodd"
     stroke="#000"
     stroke-width="4.96"
     enable-background="new"
     id="path6274" />
  <path
     d="M219.752 159.466c-19.706 6.759-41.25 4.764-61.566 2-1.532.033-4.581-1.907-4.898.713-.51 3.594 3.062 5.272 5.902 6.121 10.44 3.812 21.364 7.042 32.616 6.403 11.296-.006 22.863-2.935 32.147-9.409 1.426-1.975 1.067-5.034-.124-6.975-1.415-.176-2.726.816-4.077 1.147z"
     fill="#ff0"
     overflow="visible"
     enable-background="accumulate"
     id="path6276" />
  <path
     d="M129.253 52.227c-1.049-5.814 2.242-2.243-5.037-13.167 18.841 13.414 39.582 17.921 64.651 20.338 19.399 1.87 31.967 2.116 61.643-6.183-6.568 10.54-1.641 3.047-1.276 7.748-2.649 8.31-42.958 10.305-59.796 9.179-15.861-1.06-27.284-3.191-60.184-17.914z"
     fill="url(#b)"
     fill-rule="evenodd"
     enable-background="new"
     id="path6278" />
</svg>
