<svg xmlns="http://www.w3.org/2000/svg" width="300" height="500"><g stroke="#000" stroke-width="5"><path d="M134.59 134.693l-22.801 8.885 92.509 35.475 62.807-24.929-29.412-9.707c-4.352 2.758-9.926 5.068-17.093 6.821-19.015 5.299-38.035 5.894-57.05.968-13.375-2.455-23.488-7.873-28.96-17.512zm-23.969 17.624l-52.337 72.977 31.534 26.729 10.114-16.041 10.689-83.666z" fill="#fff" fill-rule="evenodd"/><path d="M35.364 237.779c-8.518.234-17.762 7.852-22.478 19.398-4.713 11.539-3.455 23.451 2.451 29.589l3.257-6.273c-3.777-4.736-4.431-13.072-1.129-21.156 3.477-8.513 10.29-14.146 16.576-14.383 1.451-.055 2.876.175 4.225.726 7.195 2.939 9.553 13.839 5.273 24.317-2.627 6.432-7.151 11.211-11.916 13.271l-.5 6.514c6.728-2.564 13.204-9.192 16.899-18.237 5.77-14.126 2.589-28.804-7.111-32.766-1.516-.619-3.106-.953-4.725-1-.273-.008-.548-.008-.822 0z" fill="#803300"/><path d="M206.079 301.586l-.177.774.5.177c9.7 3.962 12.881 18.64 7.111 32.766-4.176 10.224-12.819 18.1-20.449 19.765l25.544 10.276c13.026.193 24.893-2.524 32.073-16.947 2.655-8.679 3.536-17.752-2.58-28.38-13.433.029-20.999-6.633-27.638-14.367l-14.383-4.064z" fill="#803300" fill-rule="evenodd"/><path d="M208.694 333.283c-2.594 6.597-6.2 10.575-11.693 12.835-3.951-1.141-11.171-1.966-13.883-3.077-3.277-5.286-4.273-10.247-.469-20.426 3.96-10.597 13.602-16.575 20.79-13.63 7.188 2.944 9.542 13.83 5.254 24.298zm-165.488-63.395c-2.71 6.616-7.428 11.49-12.348 13.438-4.336-.525-8.374-1.121-12.124-1.653-2.977-4.088-5.191-12.166-1.572-22.453 3.754-10.671 13.602-16.575 20.79-13.63 7.188 2.944 9.542 13.83 5.254 24.298z" fill="#803300"/><path d="M183.967 343.237l-2.949 7.556 13.084 2.764 2.396-7.003-12.531-3.317zm-143.379-105.409l-.161.774.484.177c9.7 3.962 12.881 18.64 7.111 32.766-3.976 9.734-11.166 16.673-18.431 18.753l2.163.041 22.847 10.15c16.747.486 25.987-5.915 30.96-16.222 3.9-10.707 2.606-20.381-3.322-29.122l-.581-.306-.161.306c-14.238.164-17.664-8.93-25.8-13.997l.161-.274-.161-.097-15.109-2.951zm22.488-8.111l-7.371 11.426c8.136 5.067 11.562 14.17 25.8 14.006l4.054-7.003-22.483-18.429zm-44.229 51.416l-3.133 6.266 15.664 2.396.369-6.45-12.9-2.211zm187.232 20.453l-.177.774.5.177c9.7 3.962 12.881 18.64 7.111 32.766-4.176 10.224-12.819 18.1-20.449 19.765l25.544 10.276c13.026.193 24.893-2.524 32.073-16.947 2.655-8.679 3.536-17.752-2.58-28.38-13.433.029-20.999-6.633-27.638-14.367l-14.383-4.064zm0 0l-.177.774.5.177c9.7 3.962 12.881 18.64 7.111 32.766-4.176 10.224-12.819 18.1-20.449 19.765l25.544 10.276c13.026.193 24.893-2.524 32.073-16.947 2.655-8.679 3.536-17.752-2.58-28.38-13.433.029-20.999-6.633-27.638-14.367l-14.383-4.064z" fill="#803300" fill-rule="evenodd"/><path d="M234.448 397.944c-18.1-14.247-15.404-33.221-14.073-41.699 1.379-8.788 7.859-25.202 30.232-31.274 20.655-5.606 28.974 13.018 32.317 32.317l-1.564 116.236-63.07 23.456v-33.359l15.116-7.297 1.042-58.379z" fill="#00f" fill-rule="evenodd"/><path d="M111.805 144.101l-17.201 131.352 126.14 47.954-16.68-143.862-92.259-35.444z" fill="#fff" fill-rule="evenodd"/><path d="M221.265 323.407l66.197-24.498-18.765-144.383-65.155 26.583 17.722 142.298z" fill="#fff"/><path d="M98.774 277.538v26.583l120.406 44.305v-25.019l-120.406-45.869zm185.56 22.935l-64.113 23.462v26.058l2.516-1.048c3.361-8.692 11.17-19.346 28.235-23.978 8.643-2.346 15.117-.431 19.979 3.983l13.384-5.547v-22.93zm-125.135 26.21c-8.637 15.063-5.95 36.404 6.809 46.24l-1.032 58.373-15.125 7.305v33.363l9.511-4.07v-27.307l16.399-7.841.68-56.177c-4.696-3.99-17.572-30.72-4.584-45.197-4.856-1.68-6.878-3.032-12.658-4.687zm.789 113.431l.032 34.191 58.9 23.195v-34.141l-58.932-23.245zm.292.572l15.898-7.819 58.379 23.195-15.898 7.558-58.379-22.935zm16.94-63.592l-1.042 56.554 57.857 22.674.782-57.858-57.597-21.371zm-11.313-2.897c-14.54-14.873-14.387-31.082-7.371-47.914l-54.18-19.166c-7.255 15.957-4.005 30.601 4.423 44.597l57.129 22.483zm67.08 24.326c-14.54-14.873-16.23-31.45-11.057-49.02l-50.494-18.06c-7.255 15.957-7.322 25.441 4.423 44.597l57.129 22.483zm-124.208-46.072l-.369 55.286 57.497 22.483v-56.391l-57.129-21.377zm-.369 55.655l-16.586 5.529 58.603 24.326 15.111-7.003-57.129-22.851zm-17.691 5.16l-.369 33.909 59.34 25.431v-34.646l-58.971-24.694z" fill="#00f"/><path d="M206.079 301.586l-.177.774.5.177c9.7 3.962 12.881 18.64 7.111 32.766-4.176 10.224-12.819 18.1-20.449 19.765l25.544 10.276c13.026.193 24.893-2.524 32.073-16.947 2.655-8.679 3.536-17.752-2.58-28.38-13.433.029-20.999-6.633-27.638-14.367l-14.383-4.064z" fill="#803300" fill-rule="evenodd"/><path d="M201.435 301.538c-.243-.003-.481.007-.726.016-8.476.32-17.645 7.921-22.333 19.398-4.709 11.529-3.458 23.418 2.435 29.557l2.902-7.111c-3.448-4.802-3.949-12.843-.758-20.656 3.611-8.841 10.804-14.588 17.286-14.4 1.2.035 2.375.283 3.499.742 7.195 2.939 9.569 13.823 5.289 24.3-2.752 6.737-7.582 11.661-12.594 13.545l-3.096 7.53c7.833-1.397 15.88-8.648 20.172-19.157 5.77-14.126 2.589-28.804-7.111-32.766-1.591-.65-3.264-.979-4.966-1z" fill="#803300"/><path d="M224.141 296.06l-4.423 10.32c5.016 3.026 15.975 15.542 28.011 13.269l5.16-10.32c-6.634-8.846-16.217-13.269-28.749-13.269z" fill="#803300" fill-rule="evenodd"/><path d="M209.337 333.016c-2.77 6.619-7.598 11.498-12.636 13.45-4.443-.521-8.579-2.587-12.422-3.115-3.054-4.086-5.33-10.688-1.633-20.979 3.835-10.676 13.918-16.589 21.285-13.651 7.367 2.938 9.789 13.821 5.407 24.294z" fill="#803300"/><path d="M260.261 310.803l26.537-58.234c5.694-12.494 3.034-21.515-2.211-31.697l-12.531-24.326c-5.236-12.491-17.392-28.047-34.646-20.64-15.319 6.576-17.478 27.247-14.743 42.017l14.743 34.646-19.166 41.28c19.92-2.628 31.828 5.96 42.017 16.954zm-35.187-18.166c-2.095.015-4.252.164-6.466.468-1.727 0 .07 3.024 3.951 6.627l1.58-3.676c12.531 0 22.117 4.425 28.751 13.271l-2.564 5.128c5.592 1.723 10.129 1.872 10.675-2.548-9.478-12.487-21.264-19.372-35.927-19.269z" fill="#fff" fill-rule="evenodd"/><path d="M184.475 343.822l-3.133 6.266 12.459 2.752 2.15-6.094-11.475-2.924zm-53.516-257.297v38.35c3.33 15.959 15.222 24.135 32.598 27.325 19.015 4.926 38.031 4.34 57.046-.959 20.77-5.08 28.18-14.932 31.16-26.366-5.721.874-8.13-7.084-10.067-16.299-2.547-22.145-19.416 2.268-26.845 16.778l-11.984-1.438c-8.682-11.931-9.847-22.359-12.464-33.077-20.829 5.665-41.149 7.765-59.443-4.314z" fill="#803300" fill-rule="evenodd"/><path d="M153.97 149.324c1.764 7.426 6.202 16.507 36.912 16.778 27.895.247 39.51-8.196 39.309-17.737-23.418 7.282-47.74 11.397-76.221.959z" fill="#fff" fill-rule="evenodd"/><path d="M153.97 149.324c1.764 7.426 6.202 16.507 36.912 16.778 27.895.247 39.51-8.196 39.309-17.737-23.418 7.282-47.74 11.397-76.221.959z" fill="#803300" fill-rule="evenodd"/><path d="M140.547 129.19c4.109 6.14 9.329 9.318 17.258 5.273" fill="none"/><path d="M192.43 2.5c-17.642.022-29.342 6.696-40.861 13.561-16.378 12.968-28.434 30.587-28.283 61.356 1.048 10.759 2.828 19.33 7.676 18.689v-9.578c18.294 12.08 38.608 9.97 59.437 4.305 2.617 10.718 3.782 21.157 12.465 33.089l11.981 1.435c7.429-14.51 24.301-38.931 26.848-16.786 1.937 9.215 4.357 17.176 10.078 16.302-.097.374-.215.742-.323 1.113l.79-.145 14.383-58.485c.199-23.354-9.11-44.046-40.748-58.485-13.338-4.568-24.202-6.381-33.443-6.369z" fill="#333" fill-rule="evenodd"/><path d="M164.363 104.439c-7.068.905-7.301 12.679-.348 13.99 6.196.612 8.549-8.026 4.799-12.074-1.055-1.316-2.767-2.048-4.451-1.915zm-24.067-8.305c-7.068.905-7.301 12.679-.348 13.99 6.196.612 8.549-8.026 4.799-12.074-1.055-1.316-2.767-2.048-4.451-1.915zm19.063 108.336c0 1.263-1.024 2.286-2.286 2.286-1.263 0-2.286-1.024-2.286-2.286 0-1.263 1.024-2.286 2.286-2.286 1.263 0 2.286 1.024 2.286 2.286zm0 16.27c0 1.263-1.024 2.286-2.286 2.286-1.263 0-2.286-1.024-2.286-2.286 0-1.263 1.024-2.286 2.286-2.286 1.263 0 2.286 1.024 2.286 2.286z"/><path d="M158.702 255.603c0 1.669-1.353 3.022-3.022 3.022-1.669 0-3.022-1.353-3.022-3.022 0-1.669 1.353-3.022 3.022-3.022 1.669 0 3.022 1.353 3.022 3.022zm.384 17.242c0 1.738-1.409 3.147-3.147 3.147-1.738 0-3.147-1.409-3.147-3.147 0-1.738 1.409-3.147 3.147-3.147 1.738 0 3.147 1.409 3.147 3.147z" fill="#fff"/></g></svg>