<svg xmlns="http://www.w3.org/2000/svg" width="400" height="300"><path d="M185.898 137.45c-4.725 0-8.55.529-8.55 1.166 0 .086.087.162.218.243h-.218v.974l-7.24 1.218c-1.442-.149-3.222-.225-5.18-.225-4.725 0-8.55.511-8.55 1.148 0 .086.057.164.187.243h-.187v1.182l-6.553 1.114c-1.536-.198-3.577-.331-5.867-.331-4.725 0-8.581.511-8.581 1.148 0 .086.087.18.218.261h-.218v1.373l-5.898 1.008c-1.57-.253-3.888-.417-6.522-.417-4.725 0-8.55.511-8.55 1.148 0 .086.057.164.187.243h-.187v1.565l-6.74 1.148c-.674-.023-1.364-.034-2.091-.034-4.725 0-8.55.511-8.55 1.148 0 .086.057.164.187.243h-.187v.974l-7.24 1.235c-1.445-.151 12.831-1.981 10.866-1.981-4.725 0-8.55.511-8.55 1.148 0 .086.085.18.218.261h-.218v1.166l-6.553 1.114c-1.533-.196-3.589-.331-5.867-.331-4.725 0-8.55.529-8.55 1.166 0 .086.057.164.187.243h-.187v1.373l-5.929 1.008c-1.57-.251-3.895-.417-6.522-.417-4.725 0-8.55.511-8.55 1.148 0 .086.087.18.218.261h-.218v1.565l-9.486 1.6-.499-.104v16.852l14.136 3.183c-4.621.015-8.332.52-8.332 1.148 0 .086.087.162.218.243h-.218v1.373l-5.898.991c-1.57-.251-3.893-.4-6.522-.4-4.725 0-8.55.511-8.55 1.148 0 .086.056.18.187.261h-.187v1.548l-9.518 1.618-.499-.104v16.87l33.671 7.583v.139l31.767-5.618v10.505c-1.305-.109-2.815-.173-4.462-.173-4.725 0-8.581.511-8.581 1.148 0 .086.087.18.218.261h-.218v1.565l-9.486 1.6-.499-.104v16.852l33.671 7.599v.139l37.939-7.81v11.374l21.142 12.075 33.771 13.598 83.891-26.247 23.398-21.349v-15.687l-10.111 1.634 9.923-1.634-10.703-2.521v-.939h-.031l31.77-1.834v-15.687l-10.111 1.652 9.923-1.652-2.84-.678 26.056-4.574v-15.687l-9.486 1.548 9.299-1.548-.468-.104 48.368-8.556v-15.687l-10.111 1.634 9.923-1.634-10.703-2.521v-.957h-.031c-.229-.61-3.972-1.096-8.55-1.096h-.094l-7.989-1.878v-1.078h-.031c-.2-.613-3.952-1.114-8.55-1.114-4.725 0-8.55.529-8.55 1.166 0 .086.087.162.218.243h-.218v.974l-7.24 1.218c-1.442-.149-3.222-.225-5.18-.225-4.725 0-8.55.511-8.55 1.148 0 .086.057.164.187.243h-.187v1.182l-6.553 1.112c-1.536-.198-3.608-.331-5.898-.331-4.725 0-8.55.511-8.55 1.148 0 .086.087.18.218.261h-.218v1.373l9.643-.73c-1.57-.253-3.888-.417-6.522-.417-4.725 0-8.55.511-8.55 1.148 0 .086.057.164.187.243h-.187v1.565l-9.486 1.618-.53-.122v4.592l-6.428-1.513v-.887c0-.637-3.825-1.148-8.55-1.148h-.062l-8.051-1.913v-1.008c0-.637-3.824-1.148-8.55-1.148-4.725 0-8.55.511-8.55 1.148 0 .086.085.18.218.261h-.218v.957l-7.302 1.235c-1.432-.146-3.187-.243-5.118-.243-2.348 0-4.477.141-6.023.349v-9.114l-10.111 1.634 9.923-1.634-10.703-2.521v-.957h-.031c-.229-.61-3.972-1.096-8.55-1.096h-.094l-7.989-1.878v-1.078h-.031c-.2-.613-3.952-1.114-8.55-1.114zm94.771 23.391v.018l-5.804.939 5.804-.957z" fill="#666"/><path d="M150.153 236.27v30.265l33.868 13.691v-30.265l-33.868-13.691z" fill="#fcd327"/><path d="M267.788 253.788v-28.15l-83.947 24.744v30.023l83.947-26.618zm-117.635-17.158l83.406-25.403 34.049 14.412-83.774 24.701-33.68-13.71z" fill="#f5fa40"/><path d="M177.535 238.43v6.125c3.243 2.884 14.41 2.703 17.114-.359v-6.307l-17.114.541z" fill="#e9b018"/><path d="M177.535 237.981c0-1.143 3.831-2.071 8.557-2.071 4.725 0 8.557.928 8.557 2.071 0 1.145-3.832 2.071-8.557 2.071-4.726 0-8.557-.927-8.557-2.071z" fill="#f5fa40"/><path d="M198.882 232.215v6.126c3.243 2.882 14.41 2.702 17.112-.36v-6.305l-17.112.539z" fill="#e9b018"/><path d="M198.882 231.767c0-1.145 3.831-2.071 8.556-2.071 4.726 0 8.557.927 8.557 2.071 0 1.143-3.831 2.071-8.557 2.071-4.725 0-8.556-.928-8.556-2.071z" fill="#f5fa40"/><path d="M219.688 226.001v6.125c3.243 2.882 14.41 2.702 17.112-.36v-6.305l-17.112.541z" fill="#e9b018"/><path d="M219.688 225.552c0-1.145 3.831-2.071 8.557-2.071 4.725 0 8.556.927 8.556 2.071 0 1.145-3.831 2.071-8.556 2.071-4.726 0-8.557-.927-8.557-2.071z" fill="#f5fa40"/><path d="M239.774 219.966v6.125c3.243 2.882 14.41 2.702 17.112-.36v-6.305l-17.112.541z" fill="#e9b018"/><path d="M239.774 219.517c0-1.143 3.831-2.071 8.556-2.071 4.726 0 8.557.928 8.557 2.071 0 1.145-3.831 2.071-8.557 2.071-4.725 0-8.556-.927-8.556-2.071z" fill="#f5fa40"/><path d="M223.112 212.67v6.125c3.241 2.884 14.409 2.703 17.112-.359v-6.305l-17.112.539z" fill="#e9b018"/><path d="M223.112 212.223c0-1.145 3.831-2.071 8.556-2.071 4.726 0 8.557.927 8.557 2.071 0 1.143-3.831 2.071-8.557 2.071-4.725 0-8.556-.928-8.556-2.071z" fill="#f5fa40"/><path d="M202.127 218.707v6.125c3.241 2.884 14.41 2.703 17.112-.359v-6.307l-17.112.541z" fill="#e9b018"/><path d="M202.127 218.258c0-1.143 3.831-2.071 8.556-2.071 4.726 0 8.557.928 8.557 2.071 0 1.145-3.831 2.071-8.557 2.071-4.725 0-8.556-.927-8.556-2.071z" fill="#f5fa40"/><path d="M181.143 224.743v6.125c3.243 2.882 14.41 2.703 17.112-.36v-6.305l-17.112.541z" fill="#e9b018"/><path d="M181.143 224.294c0-1.143 3.831-2.071 8.556-2.071 4.726 0 8.557.928 8.557 2.071 0 1.145-3.831 2.071-8.557 2.071-4.725 0-8.556-.927-8.556-2.071z" fill="#f5fa40"/><path d="M160.158 230.78v6.125c3.243 2.882 14.41 2.702 17.112-.36v-6.305l-17.112.541z" fill="#e9b018"/><path d="M160.158 230.33c0-1.143 3.831-2.071 8.556-2.071 4.726 0 8.557.928 8.557 2.071 0 1.145-3.831 2.071-8.557 2.071-4.725 0-8.556-.927-8.556-2.071z" fill="#f5fa40"/><path d="M172.329 185.849v30.264l33.868 13.692v-30.265l-33.868-13.691z" fill="#c00104"/><path d="M289.964 203.367v-28.15l-83.947 24.502v30.084zm-117.635-17.159l83.407-25.402 34.047 14.412-83.854 24.415z" fill="#ff212c"/><path d="M199.713 188.009v6.125c3.241 2.882 14.409 2.703 17.112-.36v-6.305l-17.112.541z" fill="#c00104"/><path d="M199.713 187.56c0-1.143 3.831-2.071 8.556-2.071 4.726 0 8.557.928 8.557 2.071 0 1.145-3.831 2.071-8.557 2.071-4.725 0-8.556-.927-8.556-2.071z" fill="#ff212c"/><path d="M221.058 181.793v6.125c3.243 2.884 14.41 2.703 17.112-.359v-6.305l-17.112.539z" fill="#c00104"/><path d="M221.058 181.346c0-1.145 3.831-2.071 8.557-2.071 4.725 0 8.556.927 8.556 2.071 0 1.143-3.831 2.071-8.556 2.071-4.726 0-8.557-.928-8.557-2.071z" fill="#ff212c"/><path d="M241.864 175.578v6.126c3.243 2.882 14.41 2.702 17.112-.36v-6.305l-17.112.539z" fill="#c00104"/><path d="M241.864 175.13c0-1.145 3.831-2.071 8.557-2.071 4.725 0 8.556.927 8.556 2.071 0 1.143-3.831 2.071-8.556 2.071-4.726 0-8.557-.928-8.557-2.071z" fill="#ff212c"/><path d="M261.95 169.545v6.125c3.243 2.882 14.41 2.702 17.112-.36v-6.305l-17.112.541z" fill="#c00104"/><path d="M261.95 169.095c0-1.143 3.831-2.071 8.557-2.071 4.725 0 8.556.928 8.556 2.071 0 1.145-3.831 2.071-8.556 2.071-4.726 0-8.557-.927-8.557-2.071z" fill="#ff212c"/><path d="M245.288 162.249v6.125c3.243 2.884 14.41 2.703 17.112-.359v-6.307l-17.112.541z" fill="#c00104"/><path d="M245.288 161.8c0-1.143 3.831-2.071 8.556-2.071 4.726 0 8.557.928 8.557 2.071 0 1.145-3.831 2.071-8.557 2.071-4.725 0-8.556-.927-8.556-2.071z" fill="#ff212c"/><path d="M224.303 168.286v6.125c3.243 2.882 14.41 2.703 17.112-.36v-6.305l-17.112.541z" fill="#c00104"/><path d="M224.303 167.836c0-1.143 3.831-2.071 8.556-2.071 4.726 0 8.557.928 8.557 2.071 0 1.145-3.831 2.071-8.557 2.071-4.725 0-8.556-.927-8.556-2.071z" fill="#ff212c"/><path d="M203.319 174.322v6.125c3.243 2.882 14.41 2.702 17.112-.36v-6.305l-17.112.541z" fill="#c00104"/><path d="M203.319 173.873c0-1.143 3.831-2.071 8.557-2.071 4.725 0 8.556.928 8.556 2.071 0 1.145-3.831 2.071-8.556 2.071-4.726 0-8.557-.927-8.557-2.071z" fill="#ff212c"/><path d="M182.334 180.358v6.125c3.243 2.882 14.41 2.702 17.112-.36v-6.305l-17.112.541z" fill="#c00104"/><path d="M182.334 179.909c0-1.145 3.831-2.071 8.557-2.071 4.725 0 8.556.927 8.556 2.071 0 1.145-3.831 2.071-8.556 2.071-4.726 0-8.557-.927-8.557-2.071z" fill="#ff212c"/><path d="M130.152 198.31v30.264l33.868 13.692v-30.265l-33.868-13.691z" fill="#002ec4"/><path d="M205.453 229.861v-30.02l-41.613 12.341v30.264zm-75.301-31.19l41.953-12.363 33.348 13.506-41.433 12.726-33.868-13.87z" fill="#2da6ff"/><path d="M157.536 200.47v6.125c3.241 2.882 14.409 2.703 17.112-.36v-6.305l-17.112.541z" fill="#002ec4"/><path d="M157.536 200.021c0-1.143 3.831-2.071 8.556-2.071 4.726 0 8.557.928 8.557 2.071 0 1.145-3.831 2.071-8.557 2.071-4.725 0-8.556-.927-8.556-2.071z" fill="#2da6ff"/><path d="M178.882 194.255v6.125c3.243 2.884 14.41 2.703 17.112-.359v-6.305l-17.112.539z" fill="#002ec4"/><path d="M178.882 193.807c0-1.145 3.831-2.071 8.557-2.071 4.725 0 8.556.927 8.556 2.071 0 1.143-3.831 2.071-8.556 2.071-4.726 0-8.557-.928-8.557-2.071z" fill="#2da6ff"/><path d="M161.142 186.784v6.125c3.243 2.882 14.41 2.702 17.112-.36v-6.305l-17.112.541z" fill="#002ec4"/><path d="M161.142 186.334c0-1.143 3.831-2.071 8.557-2.071 4.725 0 8.556.928 8.556 2.071 0 1.145-3.831 2.071-8.556 2.071-4.726 0-8.557-.927-8.557-2.071z" fill="#2da6ff"/><path d="M140.158 192.82v6.125c3.243 2.882 14.41 2.702 17.112-.36v-6.305l-17.112.541z" fill="#002ec4"/><path d="M140.158 192.371c0-1.145 3.831-2.071 8.557-2.071 4.725 0 8.556.927 8.556 2.071 0 1.145-3.831 2.071-8.556 2.071-4.726 0-8.557-.927-8.557-2.071z" fill="#2da6ff"/><path d="M211.439 130.993v30.264l33.868 13.692v-30.265l-33.868-13.691z" fill="#c00104"/><path d="M329.074 148.511v-28.15l-83.947 24.502v30.084zm-117.635-17.159l83.407-25.402 34.047 14.412-83.586 24.504z" fill="#ff212c"/><path d="M238.823 133.153v6.125c3.241 2.882 14.409 2.703 17.112-.36v-6.305l-17.112.541z" fill="#c00104"/><path d="M238.823 132.704c0-1.143 3.831-2.071 8.556-2.071 4.726 0 8.557.928 8.557 2.071 0 1.145-3.831 2.071-8.557 2.071-4.725 0-8.556-.927-8.556-2.071z" fill="#ff212c"/><path d="M260.168 126.937v6.125c3.243 2.884 14.41 2.703 17.112-.359v-6.305l-17.112.539z" fill="#c00104"/><path d="M260.168 126.49c0-1.145 3.831-2.071 8.557-2.071 4.725 0 8.556.927 8.556 2.071 0 1.143-3.831 2.071-8.556 2.071-4.726 0-8.557-.928-8.557-2.071z" fill="#ff212c"/><path d="M280.974 120.722v6.126c3.243 2.882 14.41 2.702 17.112-.36v-6.305l-17.112.539z" fill="#c00104"/><path d="M280.974 120.274c0-1.145 3.831-2.071 8.557-2.071 4.725 0 8.556.927 8.556 2.071 0 1.143-3.831 2.071-8.556 2.071-4.726 0-8.557-.928-8.557-2.071z" fill="#ff212c"/><path d="M301.06 114.689v6.125c3.243 2.882 14.41 2.702 17.112-.36v-6.305l-17.112.541z" fill="#c00104"/><path d="M301.06 114.239c0-1.143 3.831-2.071 8.557-2.071 4.725 0 8.556.928 8.556 2.071 0 1.145-3.831 2.071-8.556 2.071-4.726 0-8.557-.927-8.557-2.071z" fill="#ff212c"/><path d="M284.398 107.393v6.125c3.243 2.884 14.41 2.703 17.112-.359v-6.307l-17.112.541z" fill="#c00104"/><path d="M284.398 106.944c0-1.143 3.831-2.071 8.556-2.071 4.726 0 8.557.928 8.557 2.071 0 1.145-3.831 2.071-8.557 2.071-4.725 0-8.556-.927-8.556-2.071z" fill="#ff212c"/><path d="M263.413 113.43v6.125c3.243 2.882 14.41 2.703 17.112-.36v-6.305l-17.112.541z" fill="#c00104"/><path d="M263.413 112.98c0-1.143 3.831-2.071 8.556-2.071 4.726 0 8.557.928 8.557 2.071 0 1.145-3.831 2.071-8.557 2.071-4.725 0-8.556-.927-8.556-2.071z" fill="#ff212c"/><path d="M242.429 119.466v6.125c3.243 2.882 14.41 2.702 17.112-.36v-6.305l-17.112.541z" fill="#c00104"/><path d="M242.429 119.017c0-1.143 3.831-2.071 8.557-2.071 4.725 0 8.556.928 8.556 2.071 0 1.145-3.831 2.071-8.556 2.071-4.726 0-8.557-.927-8.557-2.071z" fill="#ff212c"/><path d="M221.444 125.502v6.125c3.243 2.882 14.41 2.702 17.112-.36v-6.305l-17.112.541z" fill="#c00104"/><path d="M221.444 125.053c0-1.145 3.831-2.071 8.557-2.071 4.725 0 8.556.927 8.556 2.071 0 1.145-3.831 2.071-8.556 2.071-4.726 0-8.557-.927-8.557-2.071z" fill="#ff212c"/><path d="M127.254 155.938v30.265l33.868 13.691v-30.265l-33.868-13.691z" fill="#fcd327"/><path d="M244.889 173.456v-28.15l-83.768 24.591-.179 30.176 83.947-26.618zm-117.635-17.158l83.406-25.403 34.049 14.412-83.586 24.862-33.868-13.871z" fill="#f5fa40"/><path d="M154.636 158.098v6.125c3.243 2.884 14.41 2.703 17.114-.359v-6.307l-17.114.541z" fill="#e9b018"/><path d="M154.636 157.649c0-1.143 3.831-2.071 8.557-2.071 4.725 0 8.557.928 8.557 2.071 0 1.145-3.832 2.071-8.557 2.071-4.726 0-8.557-.927-8.557-2.071z" fill="#f5fa40"/><path d="M175.983 151.883v6.126c3.243 2.882 14.41 2.702 17.112-.36v-6.305l-17.112.539z" fill="#e9b018"/><path d="M175.983 151.435c0-1.145 3.831-2.071 8.556-2.071 4.726 0 8.557.927 8.557 2.071 0 1.143-3.831 2.071-8.557 2.071-4.725 0-8.556-.928-8.556-2.071z" fill="#f5fa40"/><path d="M196.789 145.669v6.125c3.243 2.882 14.41 2.702 17.112-.36v-6.305l-17.112.541z" fill="#e9b018"/><path d="M196.789 145.22c0-1.145 3.831-2.071 8.557-2.071 4.725 0 8.556.927 8.556 2.071 0 1.145-3.831 2.071-8.556 2.071-4.726 0-8.557-.927-8.557-2.071z" fill="#f5fa40"/><path d="M216.875 139.634v6.125c3.243 2.882 14.41 2.702 17.112-.36v-6.305l-17.112.541z" fill="#e9b018"/><path d="M216.875 139.185c0-1.143 3.831-2.071 8.556-2.071 4.726 0 8.557.928 8.557 2.071 0 1.145-3.831 2.071-8.557 2.071-4.725 0-8.556-.927-8.556-2.071z" fill="#f5fa40"/><path d="M200.213 132.338v6.125c3.241 2.884 14.409 2.703 17.112-.359v-6.305l-17.112.539z" fill="#e9b018"/><path d="M200.213 131.891c0-1.145 3.831-2.071 8.556-2.071 4.726 0 8.557.927 8.557 2.071 0 1.143-3.831 2.071-8.557 2.071-4.725 0-8.556-.928-8.556-2.071z" fill="#f5fa40"/><path d="M179.228 138.375v6.125c3.241 2.884 14.41 2.703 17.112-.359v-6.307l-17.112.541z" fill="#e9b018"/><path d="M179.228 137.926c0-1.143 3.831-2.071 8.556-2.071 4.726 0 8.557.928 8.557 2.071 0 1.145-3.831 2.071-8.557 2.071-4.725 0-8.556-.927-8.556-2.071z" fill="#f5fa40"/><path d="M158.244 144.411v6.125c3.243 2.882 14.41 2.703 17.112-.36v-6.305l-17.112.541z" fill="#e9b018"/><path d="M158.244 143.962c0-1.143 3.831-2.071 8.556-2.071 4.726 0 8.557.928 8.557 2.071 0 1.145-3.831 2.071-8.557 2.071-4.725 0-8.556-.927-8.556-2.071z" fill="#f5fa40"/><path d="M137.259 150.448v6.125c3.243 2.882 14.41 2.702 17.112-.36v-6.305l-17.112.541z" fill="#e9b018"/><path d="M137.259 149.998c0-1.143 3.831-2.071 8.556-2.071 4.726 0 8.557.928 8.557 2.071 0 1.145-3.831 2.071-8.557 2.071-4.725 0-8.556-.927-8.556-2.071z" fill="#f5fa40"/><path d="M42.605 181.381v30.264l33.868 13.691v-30.264l-33.868-13.691z" fill="#002ec4"/><path d="M160.24 198.9v-28.15l-83.947 24.502v30.264l83.947-26.616zm-117.635-17.159l83.406-25.402 34.049 14.412-83.586 24.861-33.868-13.871z" fill="#2da6ff"/><path d="M69.988 183.542v6.125c3.243 2.882 14.41 2.702 17.112-.36v-6.305l-17.112.541z" fill="#002ec4"/><path d="M69.988 183.092c0-1.143 3.831-2.071 8.557-2.071 4.725 0 8.556.928 8.556 2.071 0 1.145-3.831 2.071-8.556 2.071-4.726 0-8.557-.927-8.557-2.071z" fill="#2da6ff"/><path d="M91.335 177.326v6.125c3.241 2.884 14.409 2.703 17.112-.359v-6.305l-17.112.539z" fill="#002ec4"/><path d="M91.335 176.877c0-1.143 3.831-2.071 8.556-2.071 4.726 0 8.557.928 8.557 2.071 0 1.145-3.831 2.073-8.557 2.073-4.725 0-8.556-.928-8.556-2.073z" fill="#2da6ff"/><path d="M112.14 171.111v6.126c3.243 2.882 14.41 2.702 17.112-.36v-6.305l-17.112.539z" fill="#002ec4"/><path d="M112.14 170.663c0-1.145 3.831-2.071 8.556-2.071 4.726 0 8.557.927 8.557 2.071 0 1.143-3.831 2.071-8.557 2.071-4.725 0-8.556-.928-8.556-2.071z" fill="#2da6ff"/><path d="M132.227 165.077v6.125c3.241 2.882 14.409 2.702 17.112-.36v-6.305l-17.112.541z" fill="#002ec4"/><path d="M132.227 164.628c0-1.145 3.831-2.071 8.556-2.071 4.726 0 8.557.927 8.557 2.071 0 1.145-3.831 2.071-8.557 2.071-4.725 0-8.556-.927-8.556-2.071z" fill="#2da6ff"/><path d="M115.563 157.782v6.125c3.243 2.882 14.41 2.703 17.114-.36v-6.305l-17.114.541z" fill="#002ec4"/><path d="M115.563 157.333c0-1.143 3.832-2.071 8.557-2.071 4.726 0 8.557.928 8.557 2.071 0 1.145-3.831 2.071-8.557 2.071-4.725 0-8.557-.927-8.557-2.071z" fill="#2da6ff"/><path d="M94.58 163.818v6.125c3.241 2.882 14.409 2.702 17.112-.36v-6.305l-17.112.541z" fill="#002ec4"/><path d="M94.58 163.369c0-1.143 3.831-2.071 8.556-2.071 4.726 0 8.557.928 8.557 2.071 0 1.145-3.831 2.071-8.557 2.071-4.725 0-8.556-.927-8.556-2.071z" fill="#2da6ff"/><path d="M73.595 169.855v6.125c3.241 2.882 14.409 2.702 17.112-.36v-6.305l-17.112.541z" fill="#002ec4"/><path d="M73.595 169.406c0-1.145 3.831-2.071 8.556-2.071 4.726 0 8.557.927 8.557 2.071 0 1.145-3.831 2.071-8.557 2.071-4.725 0-8.556-.927-8.556-2.071z" fill="#2da6ff"/><path d="M52.611 175.89v6.126c3.243 2.882 14.409 2.702 17.112-.36v-6.305l-17.112.539z" fill="#002ec4"/><path d="M52.611 175.442c0-1.145 3.831-2.071 8.556-2.071 4.726 0 8.557.927 8.557 2.071 0 1.143-3.831 2.071-8.557 2.071-4.725 0-8.556-.928-8.556-2.071z" fill="#2da6ff"/><path d="M234.515 93.367v30.264l33.868 13.692v-30.265l-33.868-13.691z" fill="#c00104"/><path d="M352.15 110.885v-28.15l-83.947 24.502v30.084zm-117.635-17.159l83.407-25.402 34.047 14.412-83.586 24.861-33.868-13.871z" fill="#ff212c"/><path d="M261.899 95.527v6.125c3.241 2.882 14.409 2.703 17.112-.36v-6.305l-17.112.541z" fill="#c00104"/><path d="M261.899 95.078c0-1.143 3.831-2.071 8.556-2.071 4.726 0 8.557.928 8.557 2.071 0 1.145-3.831 2.071-8.557 2.071-4.725 0-8.556-.927-8.556-2.071z" fill="#ff212c"/><path d="M283.244 89.311v6.125c3.243 2.884 14.41 2.703 17.112-.359v-6.305l-17.112.539z" fill="#c00104"/><path d="M283.244 88.864c0-1.145 3.831-2.071 8.557-2.071 4.725 0 8.556.927 8.556 2.071 0 1.143-3.831 2.071-8.556 2.071-4.726 0-8.557-.928-8.557-2.071z" fill="#ff212c"/><path d="M304.05 83.096v6.126c3.243 2.882 14.41 2.702 17.112-.36v-6.305l-17.112.539z" fill="#c00104"/><path d="M304.05 82.648c0-1.145 3.831-2.071 8.557-2.071 4.725 0 8.556.927 8.556 2.071 0 1.143-3.831 2.071-8.556 2.071-4.726 0-8.557-.928-8.557-2.071z" fill="#ff212c"/><path d="M324.136 77.063v6.125c3.243 2.882 14.41 2.702 17.112-.36v-6.305l-17.112.541z" fill="#c00104"/><path d="M324.136 76.613c0-1.143 3.831-2.071 8.557-2.071 4.725 0 8.556.928 8.556 2.071 0 1.145-3.831 2.071-8.556 2.071-4.726 0-8.557-.927-8.557-2.071z" fill="#ff212c"/><path d="M307.474 69.767v6.125c3.243 2.884 14.41 2.703 17.112-.359v-6.307l-17.112.541z" fill="#c00104"/><path d="M307.474 69.318c0-1.143 3.831-2.071 8.556-2.071 4.726 0 8.557.928 8.557 2.071 0 1.145-3.831 2.071-8.557 2.071-4.725 0-8.556-.927-8.556-2.071z" fill="#ff212c"/><path d="M286.489 75.804v6.125c3.243 2.882 14.41 2.703 17.112-.36v-6.305l-17.112.541z" fill="#c00104"/><path d="M286.489 75.354c0-1.143 3.831-2.071 8.556-2.071 4.726 0 8.557.928 8.557 2.071 0 1.145-3.831 2.071-8.557 2.071-4.725 0-8.556-.927-8.556-2.071z" fill="#ff212c"/><path d="M265.505 81.84v6.125c3.243 2.882 14.41 2.702 17.112-.36v-6.305l-17.112.541z" fill="#c00104"/><path d="M265.505 81.391c0-1.143 3.831-2.071 8.557-2.071 4.725 0 8.556.928 8.556 2.071 0 1.145-3.831 2.071-8.556 2.071-4.726 0-8.557-.927-8.557-2.071z" fill="#ff212c"/><path d="M244.52 87.876v6.125c3.243 2.882 14.41 2.702 17.112-.36v-6.305l-17.112.541z" fill="#c00104"/><path d="M244.52 87.427c0-1.145 3.831-2.071 8.557-2.071 4.725 0 8.556.927 8.556 2.071 0 1.145-3.831 2.071-8.556 2.071-4.726 0-8.557-.927-8.557-2.071z" fill="#ff212c"/><path d="M150.33 118.312v30.265l33.868 13.691v-30.265l-33.868-13.691z" fill="#fcd327"/><path d="M267.965 135.83v-28.15l-83.947 24.502v30.265l84.036-25.1zm-117.635-17.158l83.406-25.403 34.049 14.412-83.586 24.862-33.868-13.871z" fill="#f5fa40"/><path d="M177.712 120.472v6.125c3.243 2.884 14.41 2.703 17.114-.359v-6.307l-17.114.541z" fill="#e9b018"/><path d="M177.712 120.023c0-1.143 3.831-2.071 8.557-2.071 4.725 0 8.557.928 8.557 2.071 0 1.145-3.832 2.071-8.557 2.071-4.726 0-8.557-.927-8.557-2.071z" fill="#f5fa40"/><path d="M199.059 114.257v6.126c3.243 2.882 14.41 2.702 17.112-.36v-6.305l-17.112.539z" fill="#e9b018"/><path d="M199.059 113.809c0-1.145 3.831-2.071 8.556-2.071 4.726 0 8.557.927 8.557 2.071 0 1.143-3.831 2.071-8.557 2.071-4.725 0-8.556-.928-8.556-2.071z" fill="#f5fa40"/><path d="M219.865 108.043v6.125c3.243 2.882 14.41 2.702 17.112-.36v-6.305l-17.112.541z" fill="#e9b018"/><path d="M219.865 107.594c0-1.145 3.831-2.071 8.557-2.071 4.725 0 8.556.927 8.556 2.071 0 1.145-3.831 2.071-8.556 2.071-4.726 0-8.557-.927-8.557-2.071z" fill="#f5fa40"/><path d="M239.951 102.008v6.125c3.243 2.882 14.41 2.702 17.112-.36v-6.305l-17.112.541z" fill="#e9b018"/><path d="M239.951 101.559c0-1.143 3.831-2.071 8.556-2.071 4.726 0 8.557.928 8.557 2.071 0 1.145-3.831 2.071-8.557 2.071-4.725 0-8.556-.927-8.556-2.071z" fill="#f5fa40"/><path d="M223.289 94.712v6.125c3.241 2.884 14.409 2.703 17.112-.359v-6.305l-17.112.539z" fill="#e9b018"/><path d="M223.289 94.265c0-1.145 3.831-2.071 8.556-2.071 4.726 0 8.557.927 8.557 2.071 0 1.143-3.831 2.071-8.557 2.071-4.725 0-8.556-.928-8.556-2.071z" fill="#f5fa40"/><path d="M202.304 100.749v6.125c3.241 2.884 14.41 2.703 17.112-.359v-6.307l-17.112.541z" fill="#e9b018"/><path d="M202.304 100.3c0-1.143 3.831-2.071 8.556-2.071 4.726 0 8.557.928 8.557 2.071 0 1.145-3.831 2.071-8.557 2.071-4.725 0-8.556-.927-8.556-2.071z" fill="#f5fa40"/><path d="M181.32 106.785v6.125c3.243 2.882 14.41 2.703 17.112-.36v-6.305l-17.112.541z" fill="#e9b018"/><path d="M181.32 106.336c0-1.143 3.831-2.071 8.556-2.071 4.726 0 8.557.928 8.557 2.071 0 1.145-3.831 2.071-8.557 2.071-4.725 0-8.556-.927-8.556-2.071z" fill="#f5fa40"/><path d="M160.335 112.822v6.125c3.243 2.882 14.41 2.702 17.112-.36v-6.305l-17.112.541z" fill="#e9b018"/><path d="M160.335 112.372c0-1.143 3.831-2.071 8.556-2.071 4.726 0 8.557.928 8.557 2.071 0 1.145-3.831 2.071-8.557 2.071-4.725 0-8.556-.927-8.556-2.071z" fill="#f5fa40"/><path d="M65.681 143.754v30.264l33.868 13.691v-30.264l-33.868-13.691z" fill="#002ec4"/><path d="M184.03 162.344l-.714-29.221-83.947 24.502v30.264zm-118.349-18.23l83.406-25.402 34.049 14.412-83.586 24.861-33.868-13.871z" fill="#2da6ff"/><path d="M93.064 145.915v6.125c3.243 2.882 14.41 2.702 17.112-.36v-6.305l-17.112.541z" fill="#002ec4"/><path d="M93.064 145.465c0-1.143 3.831-2.071 8.557-2.071 4.725 0 8.556.928 8.556 2.071 0 1.145-3.831 2.071-8.556 2.071-4.726 0-8.557-.927-8.557-2.071z" fill="#2da6ff"/><path d="M114.411 139.699v6.125c3.241 2.884 14.409 2.703 17.112-.359v-6.305l-17.112.539z" fill="#002ec4"/><path d="M114.411 139.25c0-1.143 3.831-2.071 8.556-2.071 4.726 0 8.557.928 8.557 2.071 0 1.145-3.831 2.073-8.557 2.073-4.725 0-8.556-.928-8.556-2.073z" fill="#2da6ff"/><path d="M135.216 133.484v6.126c3.243 2.882 14.41 2.702 17.112-.36v-6.305l-17.112.539z" fill="#002ec4"/><path d="M135.216 133.036c0-1.145 3.831-2.071 8.556-2.071 4.726 0 8.557.927 8.557 2.071 0 1.143-3.831 2.071-8.557 2.071-4.725 0-8.556-.928-8.556-2.071z" fill="#2da6ff"/><path d="M155.303 127.45v6.125c3.241 2.882 14.409 2.702 17.112-.36v-6.305l-17.112.541z" fill="#002ec4"/><path d="M155.303 127.001c0-1.145 3.831-2.071 8.556-2.071 4.726 0 8.557.927 8.557 2.071 0 1.145-3.831 2.071-8.557 2.071-4.725 0-8.556-.927-8.556-2.071z" fill="#2da6ff"/><path d="M138.639 120.155v6.125c3.243 2.882 14.41 2.703 17.114-.36v-6.305l-17.114.541z" fill="#002ec4"/><path d="M138.639 119.706c0-1.143 3.832-2.071 8.557-2.071 4.726 0 8.557.928 8.557 2.071 0 1.145-3.831 2.071-8.557 2.071-4.725 0-8.557-.927-8.557-2.071z" fill="#2da6ff"/><path d="M117.656 126.191v6.125c3.241 2.882 14.409 2.702 17.112-.36v-6.305l-17.112.541z" fill="#002ec4"/><path d="M117.656 125.742c0-1.143 3.831-2.071 8.556-2.071 4.726 0 8.557.928 8.557 2.071 0 1.145-3.831 2.071-8.557 2.071-4.725 0-8.556-.927-8.556-2.071z" fill="#2da6ff"/><path d="M96.671 132.228v6.125c3.241 2.882 14.409 2.702 17.112-.36v-6.305l-17.112.541z" fill="#002ec4"/><path d="M96.671 131.779c0-1.145 3.831-2.071 8.556-2.071 4.726 0 8.557.927 8.557 2.071 0 1.145-3.831 2.071-8.557 2.071-4.725 0-8.556-.927-8.556-2.071z" fill="#2da6ff"/><path d="M75.687 138.263v6.126c3.243 2.882 14.409 2.702 17.112-.36v-6.305l-17.112.539z" fill="#002ec4"/><path d="M75.687 137.815c0-1.145 3.831-2.071 8.556-2.071 4.726 0 8.557.927 8.557 2.071 0 1.143-3.831 2.071-8.557 2.071-4.725 0-8.556-.928-8.556-2.071z" fill="#2da6ff"/><path d="M282.336 49.711v30.264l33.868 13.691v-30.264l-33.868-13.691z" fill="#002ec4"/><path d="M399.971 67.23v-28.15l-83.947 24.502v30.264l83.947-26.616zm-117.635-17.159l83.406-25.402 34.049 14.412-83.586 24.861-33.868-13.871z" fill="#2da6ff"/><path d="M309.719 51.872v6.125c3.243 2.882 14.41 2.702 17.112-.36v-6.305l-17.112.541z" fill="#002ec4"/><path d="M309.719 51.422c0-1.143 3.831-2.071 8.557-2.071 4.725 0 8.556.928 8.556 2.071 0 1.145-3.831 2.071-8.556 2.071-4.726 0-8.557-.927-8.557-2.071z" fill="#2da6ff"/><path d="M331.066 45.656v6.125c3.241 2.884 14.409 2.703 17.112-.359v-6.305l-17.112.539z" fill="#002ec4"/><path d="M331.066 45.207c0-1.143 3.831-2.071 8.556-2.071 4.726 0 8.557.928 8.557 2.071 0 1.145-3.831 2.073-8.557 2.073-4.725 0-8.556-.928-8.556-2.073z" fill="#2da6ff"/><path d="M351.871 39.441v6.126c3.243 2.882 14.41 2.702 17.112-.36v-6.305l-17.112.539z" fill="#002ec4"/><path d="M351.871 38.993c0-1.145 3.831-2.071 8.556-2.071 4.726 0 8.557.927 8.557 2.071 0 1.143-3.831 2.071-8.557 2.071-4.725 0-8.556-.928-8.556-2.071z" fill="#2da6ff"/><path d="M371.958 33.407v6.125c3.241 2.882 14.409 2.702 17.112-.36v-6.305l-17.112.541z" fill="#002ec4"/><path d="M371.958 32.958c0-1.145 3.831-2.071 8.556-2.071 4.726 0 8.557.927 8.557 2.071 0 1.145-3.831 2.071-8.557 2.071-4.725 0-8.556-.927-8.556-2.071z" fill="#2da6ff"/><path d="M355.294 26.112v6.125c3.243 2.882 14.41 2.703 17.114-.36v-6.305l-17.114.541z" fill="#002ec4"/><path d="M355.294 25.663c0-1.143 3.832-2.071 8.557-2.071 4.726 0 8.557.928 8.557 2.071 0 1.145-3.831 2.071-8.557 2.071-4.725 0-8.557-.927-8.557-2.071z" fill="#2da6ff"/><path d="M334.311 32.148v6.125c3.241 2.882 14.409 2.702 17.112-.36v-6.305l-17.112.541z" fill="#002ec4"/><path d="M334.311 31.699c0-1.143 3.831-2.071 8.556-2.071 4.726 0 8.557.928 8.557 2.071 0 1.145-3.831 2.071-8.557 2.071-4.725 0-8.556-.927-8.556-2.071z" fill="#2da6ff"/><path d="M313.326 38.185v6.125c3.241 2.882 14.409 2.702 17.112-.36v-6.305l-17.112.541z" fill="#002ec4"/><path d="M313.326 37.736c0-1.145 3.831-2.071 8.556-2.071 4.726 0 8.557.927 8.557 2.071 0 1.145-3.831 2.071-8.557 2.071-4.725 0-8.556-.927-8.556-2.071z" fill="#2da6ff"/><path d="M292.342 44.22v6.126c3.243 2.882 14.409 2.702 17.112-.36v-6.305l-17.112.539z" fill="#002ec4"/><path d="M292.342 43.772c0-1.145 3.831-2.071 8.556-2.071 4.726 0 8.557.927 8.557 2.071 0 1.143-3.831 2.071-8.557 2.071-4.725 0-8.556-.928-8.556-2.071z" fill="#2da6ff"/><path d="M168.974 70.306v30.264l33.868 13.692v-30.265l-33.868-13.691z" fill="#c00104"/><path d="M286.609 87.824v-28.15l-83.947 24.502v30.084zm-117.635-17.159l83.407-25.402 34.047 14.412-83.586 24.861-33.868-13.871z" fill="#ff212c"/><path d="M196.358 72.466v6.125c3.241 2.882 14.409 2.703 17.112-.36v-6.305l-17.112.541z" fill="#c00104"/><path d="M196.358 72.017c0-1.143 3.831-2.071 8.556-2.071 4.726 0 8.557.928 8.557 2.071 0 1.145-3.831 2.071-8.557 2.071-4.725 0-8.556-.927-8.556-2.071z" fill="#ff212c"/><path d="M217.703 66.25v6.125c3.243 2.884 14.41 2.703 17.112-.359v-6.305l-17.112.539z" fill="#c00104"/><path d="M217.703 65.803c0-1.145 3.831-2.071 8.557-2.071 4.725 0 8.556.927 8.556 2.071 0 1.143-3.831 2.071-8.556 2.071-4.726 0-8.557-.928-8.557-2.071z" fill="#ff212c"/><path d="M238.509 60.035v6.126c3.243 2.882 14.41 2.702 17.112-.36v-6.305l-17.112.539z" fill="#c00104"/><path d="M238.509 59.587c0-1.145 3.831-2.071 8.557-2.071 4.725 0 8.556.927 8.556 2.071 0 1.143-3.831 2.071-8.556 2.071-4.726 0-8.557-.928-8.557-2.071z" fill="#ff212c"/><path d="M258.595 54.002v6.125c3.243 2.882 14.41 2.702 17.112-.36v-6.305l-17.112.541z" fill="#c00104"/><path d="M258.595 53.552c0-1.143 3.831-2.071 8.557-2.071 4.725 0 8.556.928 8.556 2.071 0 1.145-3.831 2.071-8.556 2.071-4.726 0-8.557-.927-8.557-2.071z" fill="#ff212c"/><path d="M241.933 46.706v6.125c3.243 2.884 14.41 2.703 17.112-.359v-6.307l-17.112.541z" fill="#c00104"/><path d="M241.933 46.257c0-1.143 3.831-2.071 8.556-2.071 4.726 0 8.557.928 8.557 2.071 0 1.145-3.831 2.071-8.557 2.071-4.725 0-8.556-.927-8.556-2.071z" fill="#ff212c"/><path d="M220.948 52.743v6.125c3.243 2.882 14.41 2.703 17.112-.36v-6.305l-17.112.541z" fill="#c00104"/><path d="M220.948 52.293c0-1.143 3.831-2.071 8.556-2.071 4.726 0 8.557.928 8.557 2.071 0 1.145-3.831 2.071-8.557 2.071-4.725 0-8.556-.927-8.556-2.071z" fill="#ff212c"/><path d="M199.964 58.779v6.125c3.243 2.882 14.41 2.702 17.112-.36v-6.305l-17.112.541z" fill="#c00104"/><path d="M199.964 58.33c0-1.143 3.831-2.071 8.557-2.071 4.725 0 8.556.928 8.556 2.071 0 1.145-3.831 2.071-8.556 2.071-4.726 0-8.557-.927-8.557-2.071z" fill="#ff212c"/><path d="M178.979 64.815v6.125c3.243 2.882 14.41 2.702 17.112-.36v-6.305l-17.112.541z" fill="#c00104"/><path d="M178.979 64.366c0-1.145 3.831-2.071 8.557-2.071 4.725 0 8.556.927 8.556 2.071 0 1.145-3.831 2.071-8.556 2.071-4.726 0-8.557-.927-8.557-2.071z" fill="#ff212c"/><path d="M84.789 95.251v30.265l33.868 13.691v-30.265l-33.868-13.691z" fill="#fcd327"/><path d="M202.424 112.769v-28.15l-83.947 24.502v30.265l83.947-26.618zm-117.635-17.158l83.406-25.403 34.049 14.412-83.586 24.862-33.868-13.871z" fill="#f5fa40"/><path d="M112.171 97.411v6.125c3.243 2.884 14.41 2.703 17.114-.359v-6.307l-17.114.541z" fill="#e9b018"/><path d="M112.171 96.962c0-1.143 3.831-2.071 8.557-2.071 4.725 0 8.557.928 8.557 2.071 0 1.145-3.832 2.071-8.557 2.071-4.726 0-8.557-.927-8.557-2.071z" fill="#f5fa40"/><path d="M133.518 91.196v6.126c3.243 2.882 14.41 2.702 17.112-.36v-6.305l-17.112.539z" fill="#e9b018"/><path d="M133.518 90.748c0-1.145 3.831-2.071 8.556-2.071 4.726 0 8.557.927 8.557 2.071 0 1.143-3.831 2.071-8.557 2.071-4.725 0-8.556-.928-8.556-2.071z" fill="#f5fa40"/><path d="M154.324 84.982v6.125c3.243 2.882 14.41 2.702 17.112-.36v-6.305l-17.112.541z" fill="#e9b018"/><path d="M154.324 84.533c0-1.145 3.831-2.071 8.557-2.071 4.725 0 8.556.927 8.556 2.071 0 1.145-3.831 2.071-8.556 2.071-4.726 0-8.557-.927-8.557-2.071z" fill="#f5fa40"/><path d="M174.41 78.947v6.125c3.243 2.882 14.41 2.702 17.112-.36v-6.305l-17.112.541z" fill="#e9b018"/><path d="M174.41 78.498c0-1.143 3.831-2.071 8.556-2.071 4.726 0 8.557.928 8.557 2.071 0 1.145-3.831 2.071-8.557 2.071-4.725 0-8.556-.927-8.556-2.071z" fill="#f5fa40"/><path d="M157.748 71.651v6.125c3.241 2.884 14.409 2.703 17.112-.359v-6.305l-17.112.539z" fill="#e9b018"/><path d="M157.748 71.204c0-1.145 3.831-2.071 8.556-2.071 4.726 0 8.557.927 8.557 2.071 0 1.143-3.831 2.071-8.557 2.071-4.725 0-8.556-.928-8.556-2.071z" fill="#f5fa40"/><path d="M136.763 77.688v6.125c3.241 2.884 14.41 2.703 17.112-.359v-6.307l-17.112.541z" fill="#e9b018"/><path d="M136.763 77.239c0-1.143 3.831-2.071 8.556-2.071 4.726 0 8.557.928 8.557 2.071 0 1.145-3.831 2.071-8.557 2.071-4.725 0-8.556-.927-8.556-2.071z" fill="#f5fa40"/><path d="M115.779 83.724v6.125c3.243 2.882 14.41 2.703 17.112-.36v-6.305l-17.112.541z" fill="#e9b018"/><path d="M115.779 83.275c0-1.143 3.831-2.071 8.556-2.071 4.726 0 8.557.928 8.557 2.071 0 1.145-3.831 2.071-8.557 2.071-4.725 0-8.556-.927-8.556-2.071z" fill="#f5fa40"/><path d="M94.794 89.761v6.125c3.243 2.882 14.41 2.702 17.112-.36v-6.305l-17.112.541z" fill="#e9b018"/><path d="M94.794 89.311c0-1.143 3.831-2.071 8.556-2.071 4.726 0 8.557.928 8.557 2.071 0 1.145-3.831 2.071-8.557 2.071-4.725 0-8.556-.927-8.556-2.071z" fill="#f5fa40"/><path d="M.14 120.694v30.264l33.868 13.691v-30.264l-33.868-13.691z" fill="#002ec4"/><path d="M117.775 138.213v-28.15l-83.947 24.502v30.264l83.947-26.616zm-117.635-17.159l83.406-25.402 34.049 14.412-83.586 24.861-33.868-13.871z" fill="#2da6ff"/><path d="M27.523 122.855v6.125c3.243 2.882 14.41 2.702 17.112-.36v-6.305l-17.112.541z" fill="#002ec4"/><path d="M27.523 122.405c0-1.143 3.831-2.071 8.557-2.071 4.725 0 8.556.928 8.556 2.071 0 1.145-3.831 2.071-8.556 2.071-4.726 0-8.557-.927-8.557-2.071z" fill="#2da6ff"/><path d="M48.87 116.639v6.125c3.241 2.884 14.409 2.703 17.112-.359v-6.305l-17.112.539z" fill="#002ec4"/><path d="M48.87 116.19c0-1.143 3.831-2.071 8.556-2.071 4.726 0 8.557.928 8.557 2.071 0 1.145-3.831 2.073-8.557 2.073-4.725 0-8.556-.928-8.556-2.073z" fill="#2da6ff"/><path d="M69.675 110.424v6.126c3.243 2.882 14.41 2.702 17.112-.36v-6.305l-17.112.539z" fill="#002ec4"/><path d="M69.675 109.976c0-1.145 3.831-2.071 8.556-2.071 4.726 0 8.557.927 8.557 2.071 0 1.143-3.831 2.071-8.557 2.071-4.725 0-8.556-.928-8.556-2.071z" fill="#2da6ff"/><path d="M89.762 104.39v6.125c3.241 2.882 14.409 2.702 17.112-.36v-6.305l-17.112.541z" fill="#002ec4"/><path d="M89.762 103.941c0-1.145 3.831-2.071 8.556-2.071 4.726 0 8.557.927 8.557 2.071 0 1.145-3.831 2.071-8.557 2.071-4.725 0-8.556-.927-8.556-2.071z" fill="#2da6ff"/><path d="M73.098 97.095v6.125c3.243 2.882 14.41 2.703 17.114-.36v-6.305l-17.114.541z" fill="#002ec4"/><path d="M73.098 96.646c0-1.143 3.832-2.071 8.557-2.071 4.726 0 8.557.928 8.557 2.071 0 1.145-3.831 2.071-8.557 2.071-4.725 0-8.557-.927-8.557-2.071z" fill="#2da6ff"/><path d="M52.115 103.131v6.125c3.241 2.882 14.409 2.702 17.112-.36v-6.305l-17.112.541z" fill="#002ec4"/><path d="M52.115 102.682c0-1.143 3.831-2.071 8.556-2.071 4.726 0 8.557.928 8.557 2.071 0 1.145-3.831 2.071-8.557 2.071-4.725 0-8.556-.927-8.556-2.071z" fill="#2da6ff"/><path d="M31.13 109.168v6.125c3.241 2.882 14.409 2.702 17.112-.36v-6.305l-17.112.541z" fill="#002ec4"/><path d="M31.13 108.719c0-1.145 3.831-2.071 8.556-2.071 4.726 0 8.557.927 8.557 2.071 0 1.145-3.831 2.071-8.557 2.071-4.725 0-8.556-.927-8.556-2.071z" fill="#2da6ff"/><path d="M10.146 115.203v6.126c3.243 2.882 14.409 2.702 17.112-.36v-6.305l-17.112.539z" fill="#002ec4"/><path d="M10.146 114.755c0-1.145 3.831-2.071 8.556-2.071 4.726 0 8.557.927 8.557 2.071 0 1.143-3.831 2.071-8.557 2.071-4.725 0-8.556-.928-8.556-2.071z" fill="#2da6ff"/><path d="M105.808 45.18v30.264l33.868 13.691v-30.264l-33.868-13.691z" fill="#002ec4"/><path d="M223.443 62.699v-28.15l-83.947 24.502v30.264l83.947-26.616zm-117.635-17.159l83.406-25.402 34.049 14.412-83.586 24.861-33.868-13.871z" fill="#2da6ff"/><path d="M133.191 47.341v6.125c3.243 2.882 14.41 2.702 17.112-.36v-6.305l-17.112.541z" fill="#002ec4"/><path d="M133.191 46.891c0-1.143 3.831-2.071 8.557-2.071 4.725 0 8.556.928 8.556 2.071 0 1.145-3.831 2.071-8.556 2.071-4.726 0-8.557-.927-8.557-2.071z" fill="#2da6ff"/><path d="M154.538 41.125v6.125c3.241 2.884 14.409 2.703 17.112-.359v-6.305l-17.112.539z" fill="#002ec4"/><path d="M154.538 40.676c0-1.143 3.831-2.071 8.556-2.071 4.726 0 8.557.928 8.557 2.071 0 1.145-3.831 2.073-8.557 2.073-4.725 0-8.556-.928-8.556-2.073z" fill="#2da6ff"/><path d="M175.343 34.91v6.126c3.243 2.882 14.41 2.702 17.112-.36v-6.305l-17.112.539z" fill="#002ec4"/><path d="M175.343 34.462c0-1.145 3.831-2.071 8.556-2.071 4.726 0 8.557.927 8.557 2.071 0 1.143-3.831 2.071-8.557 2.071-4.725 0-8.556-.928-8.556-2.071z" fill="#2da6ff"/><path d="M195.43 28.876v6.125c3.241 2.882 14.409 2.702 17.112-.36v-6.305l-17.112.541z" fill="#002ec4"/><path d="M195.43 28.427c0-1.145 3.831-2.071 8.556-2.071 4.726 0 8.557.927 8.557 2.071 0 1.145-3.831 2.071-8.557 2.071-4.725 0-8.556-.927-8.556-2.071z" fill="#2da6ff"/><path d="M178.766 21.581v6.125c3.243 2.882 14.41 2.703 17.114-.36v-6.305l-17.114.541z" fill="#002ec4"/><path d="M178.766 21.132c0-1.143 3.832-2.071 8.557-2.071 4.726 0 8.557.928 8.557 2.071 0 1.145-3.831 2.071-8.557 2.071-4.725 0-8.557-.927-8.557-2.071z" fill="#2da6ff"/><path d="M157.783 27.617v6.125c3.241 2.882 14.409 2.702 17.112-.36v-6.305l-17.112.541z" fill="#002ec4"/><path d="M157.783 27.168c0-1.143 3.831-2.071 8.556-2.071 4.726 0 8.557.928 8.557 2.071 0 1.145-3.831 2.071-8.557 2.071-4.725 0-8.556-.927-8.556-2.071z" fill="#2da6ff"/><path d="M136.798 33.654v6.125c3.241 2.882 14.409 2.702 17.112-.36v-6.305l-17.112.541z" fill="#002ec4"/><path d="M136.798 33.205c0-1.145 3.831-2.071 8.556-2.071 4.726 0 8.557.927 8.557 2.071 0 1.145-3.831 2.071-8.557 2.071-4.725 0-8.556-.927-8.556-2.071z" fill="#2da6ff"/><path d="M115.814 39.689v6.126c3.243 2.882 14.409 2.702 17.112-.36v-6.305l-17.112.539z" fill="#002ec4"/><path d="M115.814 39.241c0-1.145 3.831-2.071 8.556-2.071 4.726 0 8.557.927 8.557 2.071 0 1.143-3.831 2.071-8.557 2.071-4.725 0-8.556-.928-8.556-2.071z" fill="#2da6ff"/><path d="M25.346 70.389v30.265l33.868 13.691v-30.265l-33.868-13.691z" fill="#fcd327"/><path d="M142.981 87.907v-28.15l-83.947 24.502v30.265l83.947-26.618zm-117.635-17.158l83.406-25.403 34.049 14.412-83.586 24.862-33.868-13.871z" fill="#f5fa40"/><path d="M52.728 72.549v6.125c3.243 2.884 14.41 2.703 17.114-.359v-6.307l-17.114.541z" fill="#e9b018"/><path d="M52.728 72.1c0-1.143 3.831-2.071 8.557-2.071 4.725 0 8.557.928 8.557 2.071 0 1.145-3.832 2.071-8.557 2.071-4.726 0-8.557-.927-8.557-2.071z" fill="#f5fa40"/><path d="M74.075 66.334v6.126c3.243 2.882 14.41 2.702 17.112-.36v-6.305l-17.112.539z" fill="#e9b018"/><path d="M74.075 65.886c0-1.145 3.831-2.071 8.556-2.071 4.726 0 8.557.927 8.557 2.071 0 1.143-3.831 2.071-8.557 2.071-4.725 0-8.556-.928-8.556-2.071z" fill="#f5fa40"/><path d="M94.881 60.12v6.125c3.243 2.882 14.41 2.702 17.112-.36v-6.305l-17.112.541z" fill="#e9b018"/><path d="M94.881 59.671c0-1.145 3.831-2.071 8.557-2.071 4.725 0 8.556.927 8.556 2.071 0 1.145-3.831 2.071-8.556 2.071-4.726 0-8.557-.927-8.557-2.071z" fill="#f5fa40"/><path d="M114.967 54.085v6.125c3.243 2.882 14.41 2.702 17.112-.36v-6.305l-17.112.541z" fill="#e9b018"/><path d="M114.967 53.636c0-1.143 3.831-2.071 8.556-2.071 4.726 0 8.557.928 8.557 2.071 0 1.145-3.831 2.071-8.557 2.071-4.725 0-8.556-.927-8.556-2.071z" fill="#f5fa40"/><path d="M98.305 46.789v6.125c3.241 2.884 14.409 2.703 17.112-.359v-6.305l-17.112.539z" fill="#e9b018"/><path d="M98.305 46.342c0-1.145 3.831-2.071 8.556-2.071 4.726 0 8.557.927 8.557 2.071 0 1.143-3.831 2.071-8.557 2.071-4.725 0-8.556-.928-8.556-2.071z" fill="#f5fa40"/><path d="M77.32 52.826v6.125c3.241 2.884 14.41 2.703 17.112-.359v-6.307l-17.112.541z" fill="#e9b018"/><path d="M77.32 52.377c0-1.143 3.831-2.071 8.556-2.071 4.726 0 8.557.928 8.557 2.071 0 1.145-3.831 2.071-8.557 2.071-4.725 0-8.556-.927-8.556-2.071z" fill="#f5fa40"/><path d="M56.336 58.862v6.125c3.243 2.882 14.41 2.703 17.112-.36v-6.305l-17.112.541z" fill="#e9b018"/><path d="M56.336 58.413c0-1.143 3.831-2.071 8.556-2.071 4.726 0 8.557.928 8.557 2.071 0 1.145-3.831 2.071-8.557 2.071-4.725 0-8.556-.927-8.556-2.071z" fill="#f5fa40"/><path d="M35.351 64.899v6.125c3.243 2.882 14.41 2.702 17.112-.36v-6.305l-17.112.541z" fill="#e9b018"/><path d="M35.351 64.449c0-1.143 3.831-2.071 8.556-2.071 4.726 0 8.557.928 8.557 2.071 0 1.145-3.831 2.071-8.557 2.071-4.725 0-8.556-.927-8.556-2.071z" fill="#f5fa40"/></svg>