<?xml version="1.0" encoding="UTF-8" standalone="no"?>
<svg
   xmlns:dc="http://purl.org/dc/elements/1.1/"
   xmlns:cc="http://creativecommons.org/ns#"
   xmlns:rdf="http://www.w3.org/1999/02/22-rdf-syntax-ns#"
   xmlns:svg="http://www.w3.org/2000/svg"
   xmlns="http://www.w3.org/2000/svg"
   xmlns:sodipodi="http://sodipodi.sourceforge.net/DTD/sodipodi-0.dtd"
   xmlns:inkscape="http://www.inkscape.org/namespaces/inkscape"
   width="300"
   height="500"
   version="1"
   enable-background="new"
   id="svg2"
   inkscape:version="0.48.4 r9939"
   sodipodi:docname="tester.svg">
  <metadata
     id="metadata82">
    <rdf:RDF>
      <cc:Work
         rdf:about="">
        <dc:format>image/svg+xml</dc:format>
        <dc:type
           rdf:resource="http://purl.org/dc/dcmitype/StillImage" />
      </cc:Work>
    </rdf:RDF>
  </metadata>
  <defs
     id="defs80" />
  <sodipodi:namedview
     pagecolor="#ffffff"
     bordercolor="#666666"
     borderopacity="1"
     objecttolerance="10"
     gridtolerance="10"
     guidetolerance="10"
     inkscape:pageopacity="0"
     inkscape:pageshadow="2"
     inkscape:window-width="1304"
     inkscape:window-height="746"
     id="namedview78"
     showgrid="false"
     inkscape:zoom="1.5810935"
     inkscape:cx="49.690762"
     inkscape:cy="262.60087"
     inkscape:window-x="54"
     inkscape:window-y="-8"
     inkscape:window-maximized="1"
     inkscape:current-layer="g20" />
  <g
     enable-background="new"
     id="g4">
    <path
       d="M148.269 109.872c-1.606 1.096-7.263 6.348-8.745 6.184-1.38-.153-.465-5.466-2.273-5.229-2.276.298-6.435 3.719-9.533 4.729l1.485 30.191c4.548 9.9 10.316 19.256 26.448 24.008 25.915 3.479 51.797 6.396 76.433-9.306 17.318-17.778 10.934-15.215 11.579-33.541-.204.588-.423 1.188-.621 1.773-2.032-1.003-3.902-4.678-6.517-4.986-1.383 5.239-4.258 8.357-5.911 10.609-1.742-1.702-3.436-4.921-4.683-3.683-3.916 3.888-7.817 7.066-9.427 5.471-.237-3.603-.275-4.052-2.516-7.896-2.76 3.748-5.916 2.584-9.518 2.395-.427-2.144-2.014-7.143-4.229-11.352-1.157 2.058-3.841 3.988-7.442 5.153-1.698-2.098-1.224-5.58-2.486-7.457-1.488 1.436-3.396 2.789-7.032 5.077-1.528-3.752-3.857-4.855-5.956-7.139-2.048 3.082-6.741 3.313-9.533 4.274.116-4.56-1.436-6.957-3.804-9.033-2.135 2.639-6.924 5.393-12.852 6.654-.197-2.553-.779-4.972-2.865-6.896z"
       opacity=".98"
       fill="#ff0"
       fill-rule="evenodd"
       stroke="#000"
       stroke-width="5"
       stroke-linecap="round"
       stroke-linejoin="round"
       id="path6" />
    <path
       d="M161.477 130.597c0 2.706-1.645 4.899-3.674 4.899s-3.674-2.193-3.674-4.899 1.645-4.899 3.674-4.899 3.674 2.193 3.674 4.899z"
       overflow="visible"
       opacity=".98"
       stroke="#000"
       stroke-width="5"
       stroke-linecap="round"
       stroke-linejoin="round"
       enable-background="accumulate"
       id="path8" />
    <path
       d="M135.405 118.951c-.833.898-1.364 2.265-1.364 3.804 0 2.704 1.64 4.895 3.668 4.895 2.028 0 3.683-2.191 3.683-4.895 0-1.121-.298-2.145-.773-2.971-.592-.064-1.181-.128-1.773-.197-1.133-.229-2.286-.435-3.44-.637z"
       overflow="visible"
       opacity=".98"
       stroke="#000"
       stroke-width="5"
       stroke-linecap="round"
       stroke-linejoin="round"
       enable-background="accumulate"
       fill="none"
       id="path10" />
    <path
       d="M135.368 156.496l-21.37 8.851 85.739 34.299 60.761-24.993-32.298-11.898c-2.05 1.141-4.102 2.166-6.169 3.077l.242 8.336c-21.957 13.911-45.969 11.856-70.537.97l-.227-6.79c-7.622-2.954-12.539-7.114-16.141-11.852zm79.464 12.064c-.446.143-.888.29-1.334.424.447-.134.887-.281 1.334-.424z"
       opacity=".98"
       fill="#1a1a1a"
       fill-rule="evenodd"
       stroke="#000"
       stroke-width="5"
       stroke-linecap="round"
       stroke-linejoin="round"
       id="path12" />
    <path
       d="M141.651 122.937c0 2.706-1.645 4.899-3.674 4.899s-3.674-2.193-3.674-4.899 1.645-4.899 3.674-4.899 3.674 2.193 3.674 4.899z"
       overflow="visible"
       opacity=".98"
       stroke="#000"
       stroke-width="5"
       stroke-linecap="round"
       stroke-linejoin="round"
       enable-background="accumulate"
       id="path14" />
    <path
       d="M184.494 183.385c-8.864-.669-18.278-3.079-27.748-7.105l-4.683-1.991v-4.182l.901.227c1.824.46 9.598 1.616 15.97 2.376 5.373.641 8.526.786 17.526.809 11.295.029 13.352-.134 20.31-1.603 4.099-.866 8.028-2.018 11.872-3.481 1.549-.59 2.903-1.073 3.007-1.073.104 0 .19 1.345.19 2.988v2.988l-2.258 1.447c-9.721 6.231-23.079 9.505-35.086 8.599z"
       overflow="visible"
       enable-background="accumulate"
       fill="none"
       id="path16" />
    <path
       d="M218.7 168.027c-12.299 3.978-25.524 5.85-38.541 4.712-8.558-.68-17.311-.747-25.646-2.741-2.693-.433-2.605 3.918-.591 4.835 6.491 3.438 13.761 5.343 20.879 7.05 9.638 1.24 19.56 1.055 29.126-.664 5.857-1.539 11.688-3.827 16.592-7.401 1.611-1.542.839-6.035-1.819-5.79z"
       overflow="visible"
       fill="#ff0"
       enable-background="accumulate"
       id="path18" />
  </g>
  <g
     id="g20"
     transform="matrix(0.99999922,0,0,1.0004147,1.168354e-4,-0.20717636)"
     style="stroke:#000000">
    <path
       d="m 127.271,116.506 c 0.659,-19.057 -17.365,-18.497 5.68,-61.059 13.889,-15.142 31.293,-27.103 57.746,-29.681 37.53,4.94 45.817,24.62 56.489,44.287 8.172,30.524 1.286,45.17 -3.476,59.233 -2.02,-0.997 -3.872,-4.642 -6.471,-4.948 -1.375,5.208 -4.228,8.307 -5.873,10.545 -1.732,-1.692 -3.416,-4.896 -4.656,-3.666 -3.893,3.865 -7.778,7.02 -9.378,5.434 -0.236,-3.581 -0.267,-4.018 -2.495,-7.839 -2.743,3.726 -5.885,2.556 -9.467,2.367 -0.424,-2.131 -1.995,-7.085 -4.197,-11.269 -1.15,2.046 -3.821,3.957 -7.4,5.116 -1.688,-2.085 -1.223,-5.55 -2.477,-7.417 -1.479,1.427 -3.375,2.776 -6.989,5.051 -1.519,-3.729 -3.83,-4.83 -5.916,-7.1 -2.036,3.064 -6.691,3.305 -9.467,4.26 0.115,-4.533 -1.432,-6.93 -3.786,-8.994 -2.122,2.623 -6.887,5.374 -12.78,6.627 -0.196,-2.538 -0.766,-4.951 -2.84,-6.864 -1.596,1.089 -7.231,6.319 -8.704,6.156 -1.372,-0.152 -0.46,-5.436 -2.258,-5.201 -2.748,0.36 -8.255,5.302 -11.284,4.962 z"
       id="path22"
       style="fill:#ff0000;fill-rule:evenodd;stroke-width:5;stroke-miterlimit:4;stroke-dasharray:none"
       inkscape:connector-curvature="0" />
    <path
       d="m 113.14,174.779 -48.898,68.181 29.462,24.972 9.45,-14.987 9.986,-78.167 z"
       id="path24"
       style="fill:#1a1a1a;fill-rule:evenodd;stroke-width:5;stroke-miterlimit:4;stroke-dasharray:none"
       inkscape:connector-curvature="0" />
    <path
       d="m 42.827,254.625 c -7.958,0.219 -16.595,7.336 -21.001,18.124 -4.403,10.781 -3.229,21.911 2.29,27.645 l 3.044,-5.861 c -3.53,-4.425 -4.14,-12.213 -1.055,-19.766 3.249,-7.954 9.613,-13.216 15.488,-13.438 1.356,-0.052 2.687,0.163 3.947,0.678 6.722,2.745 8.925,12.929 4.926,22.719 -2.454,6.009 -6.682,10.474 -11.133,12.399 l -0.467,6.086 c 6.285,-2.396 12.337,-8.588 15.789,-17.039 5.39,-13.197 2.418,-26.911 -6.644,-30.612 -1.416,-0.579 -2.902,-0.89 -4.414,-0.934 -0.255,-0.007 -0.512,-0.007 -0.768,0 z"
       overflow="visible"
       id="path26"
       style="fill:#ffff00;stroke-width:5;stroke-miterlimit:4;stroke-dasharray:none;overflow:visible;enable-background:accumulate"
       inkscape:connector-curvature="0" />
    <path
       d="m 202.323,314.239 -0.166,0.724 0.467,0.166 c 9.062,3.702 12.034,17.415 6.644,30.612 -3.901,9.552 -11.977,16.91 -19.105,18.466 l 23.866,9.601 c 12.171,0.18 23.257,-2.358 29.965,-15.833 2.481,-8.108 3.303,-16.586 -2.41,-26.515 -12.55,0.028 -19.62,-6.197 -25.822,-13.423 l -13.438,-3.796 z"
       id="path28"
       style="fill:#ffffff;fill-rule:evenodd;stroke-width:5;stroke-miterlimit:4;stroke-dasharray:none"
       inkscape:connector-curvature="0" />
    <path
       d="m 205.09,343.909 c -2.418,6.168 -5.785,9.889 -10.916,12.007 -3.694,-1.063 -10.443,-1.827 -12.979,-2.863 -3.068,-4.937 -4.004,-9.573 -0.458,-19.09 3.691,-9.908 12.697,-15.504 19.418,-12.759 6.721,2.745 8.932,12.917 4.934,22.705 z"
       overflow="visible"
       id="path30"
       style="fill:#ffffff;stroke-width:5;stroke-miterlimit:4;stroke-dasharray:none;overflow:visible;enable-background:accumulate"
       inkscape:connector-curvature="0" />
    <path
       d="m 50.477,284.68 c -2.527,6.187 -6.931,10.746 -11.527,12.571 -4.054,-0.487 -7.828,-1.04 -11.334,-1.533 -2.786,-3.818 -4.863,-11.366 -1.491,-20.983 3.498,-9.978 12.697,-15.504 19.418,-12.759 6.721,2.745 8.932,12.917 4.934,22.705 z"
       overflow="visible"
       id="path32"
       style="fill:#ffff00;stroke-width:5;stroke-miterlimit:4;stroke-dasharray:none;overflow:visible;enable-background:accumulate"
       inkscape:connector-curvature="0" />
    <path
       d="m 181.665,353.152 -2.754,7.059 12.224,2.582 2.238,-6.543 -11.708,-3.099 z"
       id="path34"
       style="fill:#ffffff;fill-rule:evenodd;stroke-width:5;stroke-miterlimit:4;stroke-dasharray:none"
       inkscape:connector-curvature="0" />
    <path
       d="m 47.709,254.67 -0.151,0.724 0.452,0.166 c 9.062,3.702 12.034,17.415 6.644,30.612 -3.715,9.094 -10.432,15.577 -17.22,17.521 l 2.021,0.039 21.345,9.483 c 15.647,0.453 24.278,-5.527 28.925,-15.156 3.643,-10.004 2.435,-19.041 -3.103,-27.208 l -0.543,-0.286 -0.151,0.286 c -13.303,0.154 -16.503,-8.343 -24.105,-13.077 l 0.151,-0.256 -0.151,-0.09 -14.116,-2.757 z m 21.009,-7.578 -6.887,10.675 c 7.601,4.733 10.802,13.239 24.105,13.085 l 3.788,-6.543 -21.005,-17.217 z m -41.322,48.037 -2.927,5.854 14.635,2.238 0.344,-6.027 -12.052,-2.067 z"
       id="path36"
       style="fill:#ffff00;fill-rule:evenodd;stroke-width:5;stroke-miterlimit:4;stroke-dasharray:none"
       inkscape:connector-curvature="0" />
    <path
       d="m 202.323,314.239 -0.166,0.724 0.467,0.166 c 9.062,3.702 12.034,17.415 6.644,30.612 -3.901,9.552 -11.977,16.91 -19.105,18.466 l 23.866,9.601 c 12.171,0.18 23.257,-2.358 29.965,-15.833 2.481,-8.108 3.303,-16.586 -2.41,-26.515 -12.55,0.028 -19.62,-6.197 -25.822,-13.423 l -13.438,-3.796 z m 0,0 -0.166,0.724 0.467,0.166 c 9.062,3.702 12.034,17.415 6.644,30.612 -3.901,9.552 -11.977,16.91 -19.105,18.466 l 23.866,9.601 c 12.171,0.18 23.257,-2.358 29.965,-15.833 2.481,-8.108 3.303,-16.586 -2.41,-26.515 -12.55,0.028 -19.62,-6.197 -25.822,-13.423 l -13.438,-3.796 z"
       id="path38"
       style="fill:#ffffff;fill-rule:evenodd;stroke-width:5;stroke-miterlimit:4;stroke-dasharray:none"
       inkscape:connector-curvature="0" />
    <path
       d="m 228.828,404.264 c -16.91,-13.311 -14.392,-31.038 -13.149,-38.959 1.288,-8.21 7.343,-23.546 28.246,-29.219 19.298,-5.238 27.071,12.163 30.193,30.193 l -1.461,108.597 -58.925,21.915 v -31.167 l 14.123,-6.818 0.974,-54.542 z M 114.245,167.103 98.175,289.823 216.026,334.626 200.442,200.218 114.245,167.103 z m 102.267,167.522 61.847,-22.888 -17.531,-134.895 -60.873,24.836 16.557,132.947 z M 102.071,291.771 v 24.836 l 112.493,41.394 V 334.626 L 102.071,291.772 z m 173.366,21.429 -59.899,21.92 v 24.345 l 2.35,-0.979 c 3.14,-8.12 10.436,-18.075 26.38,-22.402 8.075,-2.192 14.123,-0.403 18.666,3.722 l 12.505,-5.183 V 313.2 z m -116.911,24.487 c -8.069,14.073 -5.558,34.012 6.362,43.201 l -0.964,54.537 -14.132,6.825 v 31.17 l 8.886,-3.803 v -25.512 l 15.322,-7.326 0.635,-52.485 c -4.388,-3.728 -16.418,-28.701 -4.283,-42.227 -4.537,-1.57 -6.426,-2.833 -11.826,-4.379 z m 0.737,105.976 0.03,31.944 55.029,21.671 v -31.897 l -55.059,-21.718 z m 0.273,0.534 14.853,-7.305 54.542,21.671 -14.853,7.061 -54.542,-21.428 z m 15.826,-59.411 -0.974,52.838 54.056,21.184 0.731,-54.056 -53.812,-19.966 z m -10.569,-2.708 c -13.585,-13.895 -13.442,-29.039 -6.887,-44.766 l -50.619,-17.906 c -6.778,14.908 -3.742,28.589 4.132,41.666 l 53.374,21.005 z m 62.672,22.728 C 213.88,390.911 212.302,375.422 217.134,359.007 l -47.176,-16.873 c -6.778,14.908 -6.842,23.769 4.132,41.666 l 53.374,21.005 z m -116.047,-43.044 -0.344,51.652 53.719,21.005 v -52.686 l -53.374,-19.972 z m -0.344,51.997 -15.495,5.165 54.752,22.727 14.119,-6.543 -53.374,-21.35 z m -16.529,4.821 -0.344,31.68 55.44,23.761 V 441.652 L 94.545,418.58 z"
       id="path40"
       style="fill:#1a1a1a;fill-rule:evenodd;stroke-width:5;stroke-miterlimit:4;stroke-dasharray:none"
       inkscape:connector-curvature="0" />
    <path
       d="m 202.323,314.239 -0.166,0.724 0.467,0.166 c 9.062,3.702 12.034,17.415 6.644,30.612 -3.901,9.552 -11.977,16.91 -19.105,18.466 l 23.866,9.601 c 12.171,0.18 23.257,-2.358 29.965,-15.833 2.481,-8.108 3.303,-16.586 -2.41,-26.515 -12.55,0.028 -19.62,-6.197 -25.822,-13.423 l -13.438,-3.796 z"
       id="path42"
       style="fill:#ffff00;fill-rule:evenodd;stroke-width:5;stroke-miterlimit:4;stroke-dasharray:none"
       inkscape:connector-curvature="0" />
    <path
       d="m 197.985,314.193 c -0.228,-0.003 -0.449,0.006 -0.678,0.015 -7.918,0.299 -16.485,7.4 -20.865,18.124 -4.399,10.771 -3.231,21.879 2.275,27.614 l 2.712,-6.644 c -3.222,-4.487 -3.69,-12 -0.708,-19.299 3.374,-8.26 10.094,-13.63 16.15,-13.454 1.121,0.033 2.219,0.264 3.269,0.693 6.722,2.745 8.94,12.914 4.941,22.703 -2.571,6.294 -7.084,10.894 -11.766,12.655 l -2.893,7.036 c 7.319,-1.305 14.836,-8.08 18.846,-17.898 5.39,-13.197 2.418,-26.911 -6.644,-30.612 -1.487,-0.607 -3.05,-0.914 -4.64,-0.934 z"
       overflow="visible"
       id="path44"
       style="fill:#ffff00;stroke-width:5;stroke-miterlimit:4;stroke-dasharray:none;overflow:visible;enable-background:accumulate"
       inkscape:connector-curvature="0" />
    <path
       d="m 219.199,309.076 -4.132,9.642 c 4.687,2.827 14.925,14.52 26.171,12.396 l 4.821,-9.642 C 239.86,313.208 230.907,309.076 219.2,309.076 z"
       id="path46"
       style="fill:#ffff00;fill-rule:evenodd;stroke-width:5;stroke-miterlimit:4;stroke-dasharray:none"
       inkscape:connector-curvature="0" />
    <path
       d="m 205.367,343.604 c -2.587,6.185 -7.099,10.742 -11.806,12.566 -4.151,-0.487 -8.016,-2.416 -11.606,-2.91 -2.854,-3.817 -4.979,-9.986 -1.526,-19.6 3.583,-9.974 13.004,-15.498 19.886,-12.754 6.882,2.744 9.146,12.913 5.052,22.698 z"
       overflow="visible"
       id="path48"
       style="fill:#ffff00;stroke-width:5;stroke-miterlimit:4;stroke-dasharray:none;overflow:visible;enable-background:accumulate"
       inkscape:connector-curvature="0" />
    <path
       d="m 252.946,322.85 24.793,-54.408 c 5.32,-11.674 2.834,-20.102 -2.067,-29.614 l -11.708,-22.727 c -4.891,-11.671 -16.25,-26.204 -32.369,-19.284 -14.312,6.144 -16.329,25.456 -13.774,39.256 l 13.774,32.369 -17.906,38.567 c 18.611,-2.455 29.737,5.568 39.256,15.84 z M 220.07,305.877 c -1.957,0.014 -3.973,0.153 -6.042,0.437 -1.613,0 0.066,2.826 3.691,6.192 l 1.476,-3.435 c 11.708,0 20.663,4.134 26.862,12.399 l -2.396,4.791 c 5.224,1.61 9.464,1.749 9.973,-2.381 -8.856,-11.666 -19.867,-18.099 -33.565,-18.003 z"
       id="path50"
       style="fill:#1a1a1a;fill-rule:evenodd;stroke-width:5;stroke-miterlimit:4;stroke-dasharray:none"
       inkscape:connector-curvature="0" />
    <path
       d="m 182.139,353.699 -2.927,5.854 11.64,2.571 2.008,-5.694 -10.721,-2.732 z"
       id="path52"
       style="fill:#ffff00;fill-rule:evenodd;stroke-width:5;stroke-miterlimit:4;stroke-dasharray:none"
       inkscape:connector-curvature="0" />
    <path
       d="m 153.06,299.297 c -0.861,1.879 -0.601,5.332 2.176,5.331 2.72,-10e-4 3.279,-2.808 2.117,-5.454 -0.781,-1.779 -3.484,-1.643 -4.294,0.124 z m 0,-16.347 c -0.861,1.879 -0.601,5.332 2.176,5.331 2.72,-0.001 3.279,-2.808 2.117,-5.454 -0.781,-1.779 -3.484,-1.643 -4.294,0.124 z m 0.224,-16.124 c -0.861,1.879 -0.601,5.332 2.176,5.331 2.72,-10e-4 3.279,-2.808 2.117,-5.454 -0.781,-1.779 -3.484,-1.643 -4.294,0.124 z m -20.998,-92.461 c -3.396,20.613 -0.445,41.104 21.791,61.202 28.526,-3.955 26.756,-25.313 28.755,-44.881 l -50.547,-16.32 z"
       id="path54"
       style="fill:#ececec;fill-rule:evenodd;stroke-width:5;stroke-miterlimit:4;stroke-dasharray:none"
       inkscape:connector-curvature="0" />
    <path
       d="m 124.219,171.224 -0.899,35.601 c 3.678,1.211 6.787,1.779 9.879,2.502 -1.797,3.532 -5.537,5.316 -8.532,7.313 5.664,9.704 14.421,17.088 29.637,19.629 12.167,6.97 22.934,7.462 32.106,0.578 -6.416,-6.76 -5.732,-8.196 -7.859,-11.739 4.678,0.322 7.78,3.373 11.226,2.887 l -0.674,-35.601"
       id="path56"
       style="fill:none;stroke-width:5;stroke-miterlimit:4;stroke-dasharray:none"
       inkscape:connector-curvature="0" />
    <path
       d="m 159.856,150.46 c -7.888,3.961 -15.37,5.107 -21.21,-5.091"
       id="path58"
       style="fill:none;stroke-width:5;stroke-miterlimit:4;stroke-dasharray:none;enable-background:new"
       inkscape:connector-curvature="0" />
    <path
       d="m 153.283,252.258 c -0.861,1.879 -0.601,5.332 2.176,5.331 2.72,-10e-4 3.279,-2.808 2.117,-5.454 -0.781,-1.779 -3.484,-1.643 -4.294,0.124 z"
       id="path60"
       style="fill:#ececec;fill-rule:evenodd;stroke-width:5;stroke-miterlimit:4;stroke-dasharray:none"
       inkscape:connector-curvature="0" />
    <path
       d="m 153.917,217.105 c -0.861,1.879 -0.601,5.332 2.176,5.331 2.72,-0.001 3.279,-2.808 2.117,-5.454 -0.781,-1.779 -3.484,-1.643 -4.294,0.124 z m 0,-17.418 c -0.861,1.879 -0.601,5.332 2.176,5.331 2.72,-0.001 3.279,-2.808 2.117,-5.454 -0.781,-1.779 -3.484,-1.643 -4.294,0.124 z"
       id="path62"
       style="fill:#ffffff;fill-rule:evenodd;stroke-width:5;stroke-miterlimit:4;stroke-dasharray:none"
       inkscape:connector-curvature="0" />
    <path
       d="m 134.16,176.721 c 2.109,6.254 1.477,11.824 9.818,19.635 2.733,-5.167 4.976,-10.64 14.251,-11.717 4.052,4.357 8.788,6.203 10.451,19.318 7.613,-0.926 11.267,-4.681 12.985,-9.818"
       id="path64"
       style="fill:none;stroke-width:5;stroke-miterlimit:4;stroke-dasharray:none"
       inkscape:connector-curvature="0" />
    <path
       d="m 115.792,234.676 21.535,8.234 v 11.084 l -12.985,1.583 -9.501,-10.768 0.95,-10.134 z"
       id="path66"
       style="fill:none;stroke-width:5;stroke-miterlimit:4;stroke-dasharray:none"
       inkscape:connector-curvature="0" />
    <path
       d="m 123.651,246.864 c -0.728,1.587 -0.508,4.505 1.839,4.504 2.298,-0.001 2.77,-2.373 1.789,-4.608 -0.66,-1.504 -2.944,-1.388 -3.628,0.104 z"
       id="path70"
       style="fill:#ececec;fill-rule:evenodd;stroke-width:5;stroke-miterlimit:4;stroke-dasharray:none"
       inkscape:connector-curvature="0" />
    <path
       d="m 177.582,117.267 c 14.939,-17.676 14.57,-41.476 16.735,-64.261 m -29.788,58.906 c 14.939,-17.676 18.921,-36.455 21.086,-59.24 m -38.49,59.24 c 14.939,-17.676 29.297,-30.765 31.461,-53.551 m -39.747,52.58 C 148.091,91.197 164.062,78.695 170.3,57.39 m -39.575,57.199 c 8.442,-20.947 16.902,-51.961 36.482,-63.926 m -41.168,53.551 c 1.39,-24.473 15.95,-52.437 36.482,-63.926 m 29.834,76.025 C 206.807,96.446 204.41,70.892 201.04,48.058 m 0.454,71.454 c 14.939,-17.676 16.765,-40.708 9.892,-57.804 m 3.709,67.599 c 17.162,-22.816 12.945,-57.761 0.981,-72.342 m 12.113,72.663 c 11.384,-20.149 10.207,-53.799 0.27,-69.317"
       id="path72"
       style="fill:none;stroke-width:5;stroke-miterlimit:4;stroke-dasharray:none"
       inkscape:connector-curvature="0" />
    <path
       d="m 199.002,26.899 c -2.356,-11.12 25.553,-32.23 49.535,-21.421 9.071,4.089 18.895,18.418 19.7,32.809 0.699,12.501 -9.77,38.123 -12.002,48.857 -3.463,16.655 -2.931,27.611 -0.46,39.647 1.236,6.017 2.208,4.716 5.405,15.225 1.177,3.869 -4.118,1.931 -8.557,-2.71 -7.94,0.954 -9.375,-9.449 -8.159,-10.348 9.754,-18.684 9.862,-47.69 3.069,-60.222 C 229.193,41.457 227.133,32.49 199.002,26.9 z"
       id="path74"
       style="fill:#ff0000;fill-rule:evenodd;stroke-width:5;stroke-miterlimit:4;stroke-dasharray:none"
       inkscape:connector-curvature="0" />
    <path
       d="m 209.378,23.218 c 3.932,-5.732 14.769,-12.062 28.114,-9.036 19.36,4.39 20.101,17.187 20.417,26.775 0.403,12.205 -8.163,22.148 -6.025,39.494 -12.733,-23.889 9.837,-40.345 -10.71,-55.894 -11.908,-9.012 -21.325,-3.231 -31.796,-1.339 z m 12.718,6.025 c 12.044,-3.122 16.474,2.421 18.074,6.694 2.831,7.559 -1.658,7.636 4.017,28.114"
       id="path76"
       style="fill:none;stroke-width:5;stroke-miterlimit:4;stroke-dasharray:none"
       inkscape:connector-curvature="0" />
  </g>
</svg>
