<svg xmlns="http://www.w3.org/2000/svg" width="300" height="150"><g><path clip-rule="evenodd" d="M6.766 37.79h33.793c3.296 0 5.813 1.053 6.799 5.846 1.088 5.337.646 9.009-5.236 9.452l-10.642.782c7.82 50.147 53.479 66.465 78.364 12.477 4.114-8.941 5.473-10.574 9.962-9.452 6.119 1.564 6.934 4.761 4.045 13.77-21.521 66.566-93.764 73.229-107.941-15.674l-8.636.648c-7.003.51-7.276-5.508-7.276-8.874 0-6.596 2.414-8.975 6.766-8.975z" fill="#d63434" fill-rule="evenodd"/><path clip-rule="evenodd" d="M129.665 5.594c6.934 0 12.545 5.712 12.545 12.749 0 7.037-5.611 12.749-12.545 12.749-6.936 0-12.545-5.712-12.545-12.749 0-7.037 5.609-12.749 12.545-12.749z" fill="#d63434" fill-rule="evenodd"/><g fill="#d63434"><path d="M243.823 99.968v-9.536l-10.298 8.245v8.785l.511-.508c1.175 2.995 1.902 4.901 3.897 4.901 1.909 0 3.453-.542 4.994-1.176 1.634-.638 3.811-1.637 3.811-3.271 0-1.903-2.914-2.45-2.914-7.44z"/><path d="M223.262 112.593c-14.359 0-18.841-7.44-18.841-17.516v-31.2c0-1.203.226-1.727.827-2.178.677-.528 2.254-.828 4.811-.828 2.483 0 4.06.3 4.738.828.6.45.827.975.827 2.178v29.66c0 4.884 2.394 8.19 7.64 8.19 6.544 0 9.399-5.083 9.399-9.967v-27.883c0-1.203.226-1.727.823-2.178.677-.528 2.258-.828 4.815-.828 2.476 0 4.057.3 4.734.828.604.45.827.975.827 2.178v29.424c-.001 10.079-6.787 19.292-20.598 19.292z"/><path d="M267.727 111.016c-.673.528-2.257.827-4.734.827-2.557 0-4.137-.299-4.815-.827-.597-.451-.823-.976-.823-2.178v-44.962c0-1.203.226-1.727.823-2.178.677-.528 2.258-.828 4.815-.828 2.477 0 4.06.3 4.734.828.604.45.83.975.83 2.178v44.962c0 1.201-.226 1.726-.83 2.177z"/><path d="M200.157 68.167c.339 2.379-1.341 4.401-3.744 4.493l-27.52 1.038c-2.404.089-4.369-1.803-4.369-4.208v-4.246c0-2.404 1.969-4.371 4.373-4.371h25.83c2.407 0 4.654 1.947 5 4.328l.431 2.967z"/><path d="M176.761 72.284v36.555c0 1.202.226 1.726.827 2.178.677.528 2.258.827 4.815.827 2.48 0 4.057-.299 4.734-.827.601-.451.827-.976.827-2.178v-36.555h-11.203z"/></g><g fill="#333"><path d="M184.673 144.406c-4.486 0-6.271-2.315-6.271-5.5v-10.252c0-.362.048-.482.192-.603.169-.145.555-.241 1.279-.241.651 0 1.061.096 1.231.217.144.145.192.265.192.603v10.372c0 1.64 1.014 2.942 3.377 2.942 2.364 0 3.377-1.302 3.377-2.942v-10.348c0-.362.048-.482.193-.603.169-.145.555-.241 1.254-.241.675 0 1.085.096 1.255.217.145.145.192.265.192.603v10.252c-.001 3.184-1.786 5.524-6.272 5.524z"/><path d="M206.475 143.947c-.145.072-.506.217-1.278.217-.989 0-1.52-.072-1.906-.506l-6.054-6.994v6.657c0 .362-.048.482-.193.603-.169.145-.555.241-1.255.241-.675 0-1.085-.096-1.254-.217-.145-.145-.193-.265-.193-.603v-14.689c0-.362.048-.482.193-.603.169-.145.555-.241 1.254-.241.676 0 1.086.096 1.255.217.145.145.193.265.193.603v6.007l5.716-6.32c.386-.434.796-.506 1.712-.506.772 0 1.109.145 1.278.241.121.072.218.193.218.362 0 .168-.169.41-.434.723l-5.837 6.416 6.392 7.26c.289.338.458.555.458.748 0 .192-.121.313-.265.385z"/><path d="M227.651 136.012c-.145.265-.41.314-.82.314h-.989v2.05c0 3.835-2.412 5.934-6.175 5.934-3.184 0-5.789-1.568-5.789-4.993 0-1.688.796-3.208 2.508-4.124-1.061-.603-1.881-1.761-1.881-3.304 0-2.75 2.315-4.317 4.631-4.317 1.52 0 2.243.265 2.943.555.675.289.796.531.796.748 0 .216-.072.506-.241.844-.216.434-.434.772-.772.772s-.604-.193-.941-.313c-.338-.121-.82-.289-1.591-.289-1.134 0-2.099.724-2.099 2.122 0 1.231.868 2.002 2.774 2.002h7.164c.313 0 .458.024.554.072.121.072.169.193.169.506.001.481-.095 1.156-.24 1.421zm-4.631.314h-3.279c-2.099 0-2.895 1.351-2.895 2.991 0 1.592.965 2.581 2.991 2.581 2.075 0 3.184-1.109 3.184-3.618v-1.954z"/><path d="M238.576 143.923c-.169.145-.579.241-1.255.241-.675 0-1.085-.096-1.255-.217-.144-.145-.192-.265-.192-.603v-14.689c0-.362.048-.482.192-.603.169-.145.555-.241 1.231-.241.699 0 1.109.096 1.255.217.144.145.216.265.216.603v14.689c0 .362-.073.482-.192.603z"/><path d="M248.85 135.361c-.194.362-.434.747-.748.747-.241 0-.386-.096-.651-.192-.241-.096-.482-.194-.82-.194-.555 0-.965.265-1.327.699-.386.482-.651 1.158-.651 2.026v4.897c0 .338-.072.458-.217.579-.145.145-.506.241-1.182.241-.627 0-.989-.096-1.134-.217-.169-.12-.216-.265-.216-.579v-8.683c0-.41.048-.627.216-.797.145-.144.506-.241.844-.338.41-.096.772-.145.989-.145.193 0 .386.023.482.096.169.145.169.265.169.652v.747c.338-.651 1.302-1.495 2.412-1.495.555 0 .941.096 1.375.289.458.192.748.41.748.747 0 .242-.121.605-.289.918z"/><path d="M258.953 139.461c-.169.144-.458.241-1.086.241h-5.788c.217 1.327 1.182 2.292 2.798 2.292.748 0 1.278-.121 1.664-.241.411-.12.7-.289 1.062-.289.386 0 .531.289.723.699.169.338.266.555.266.797 0 .241-.121.482-.7.723-.723.314-1.664.628-3.328.628-3.111 0-5.21-2.123-5.21-5.475 0-3.304 1.905-5.523 5.089-5.523 3.16 0 4.775 2.218 4.775 5.258-.001.626-.097.748-.265.892zm-4.535-4.125c-1.327 0-2.147.916-2.339 2.388h4.486c-.048-1.472-.917-2.388-2.147-2.388z"/><path d="M263.872 143.923c-.145.145-.506.241-1.181.241-.628 0-.989-.096-1.134-.217-.169-.12-.217-.265-.217-.579v-14.279c0-.41.048-.651.193-.772.169-.169.531-.265.94-.362.387-.096.772-.145.989-.145.194 0 .386.024.506.145.121.121.121.265.121.603v14.786c-.001.338-.074.434-.218.579z"/><path d="M274.822 143.996c-.338.145-.628.241-.989.241-.265 0-.386-.072-.531-.265-.145-.193-.338-.675-.458-1.085-.892.941-1.881 1.424-3.304 1.424-1.737 0-3.545-.868-3.545-3.257 0-2.508 1.905-3.352 4.124-3.545l2.557-.217v-.289c0-.989-.676-1.664-2.123-1.664-.916 0-1.665.313-2.243.555-.289.121-.603.313-.94.313-.338 0-.531-.289-.724-.627-.192-.338-.241-.482-.241-.724 0-.241.145-.434.651-.699.82-.434 1.881-.844 3.811-.844 1.351 0 2.484.313 3.255 1.036.724.7 1.11 1.737 1.11 3.281v3.907c0 .651.193 1.061.265 1.278.072.194.145.338.145.482-.001.361-.484.555-.821.699zm-2.147-4.872l-2.412.241c-1.109.121-1.688.651-1.688 1.519 0 .868.579 1.374 1.471 1.374 1.037 0 2.63-.53 2.63-2.459v-.675z"/><path d="M287.363 143.923c-.145.145-.506.241-1.182.241-.626 0-.989-.096-1.133-.217-.169-.12-.218-.265-.218-.579v-5.741c0-1.375-.626-1.978-1.808-1.978-1.255 0-2.291 1.11-2.291 2.364v5.331c0 .338-.072.458-.218.579-.145.145-.506.241-1.181.241-.628 0-.989-.096-1.134-.217-.169-.12-.217-.265-.217-.579v-8.683c0-.41.048-.627.217-.797.145-.144.506-.241.868-.338.386-.096.748-.145.964-.145.194 0 .386.023.482.096.169.145.169.265.169.652v.723c.53-.82 1.616-1.567 3.208-1.567 2.364 0 3.69 1.471 3.69 3.859v6.175c0 .338-.073.458-.217.579z"/><path d="M299.784 143.947c-.145.121-.434.217-1.062.217-.651 0-.964-.096-1.109-.217-.145-.12-.194-.265-.194-.603v-.482c-.531.723-1.567 1.448-3.208 1.448-1.182 0-2.315-.434-3.087-1.255-.916-.965-1.423-2.412-1.423-4.221 0-3.352 1.809-5.523 4.558-5.523 1.568 0 2.485.675 2.991 1.35v-5.572c0-.41.048-.626.217-.796.145-.145.531-.241.916-.338.362-.072.747-.145.965-.145.192 0 .362.024.482.121.12.121.168.241.168.627v14.786c.001.338-.071.483-.216.604zm-4.8-8.249c-1.665 0-2.461 1.375-2.461 3.087 0 1.833.868 3.136 2.437 3.136 1.543 0 2.411-1.278 2.411-3.208 0-1.568-.844-3.015-2.387-3.015z"/></g></g></svg>